<svg width="1163" height="433" viewBox="0 0 1163 433" fill="none" xmlns="http://www.w3.org/2000/svg">
<mask id="path-1-outside-1_1_15" maskUnits="userSpaceOnUse" x="731.084" y="-3.50311" width="436.53" height="441.482" fill="black">
<rect fill="white" x="731.084" y="-3.50311" width="436.53" height="441.482"/>
<path d="M754.428 284.111L773.821 211.662L972.864 42.3711L1089.75 73.658L896.019 244.371L847.156 214.211L1108.94 284.283L1085.28 372.671L754.428 284.111ZM914.242 389.001L929.756 331.042L956.796 243.558L970.63 191.878L1077.85 220.579L1024.85 418.608L914.242 389.001Z"/>
</mask>
<path d="M754.428 284.111L773.821 211.662L972.864 42.3711L1089.75 73.658L896.019 244.371L847.156 214.211L1108.94 284.283L1085.28 372.671L754.428 284.111ZM914.242 389.001L929.756 331.042L956.796 243.558L970.63 191.878L1077.85 220.579L1024.85 418.608L914.242 389.001Z" fill="#E12B17" fill-opacity="0.05"/>
<path d="M754.428 284.111L748.632 282.56L747.081 288.356L752.877 289.907L754.428 284.111ZM773.821 211.662L769.934 207.092L768.509 208.303L768.025 210.111L773.821 211.662ZM972.864 42.3711L974.415 36.5752L971.374 35.7612L968.976 37.8007L972.864 42.3711ZM1089.75 73.658L1093.72 78.1597L1102.12 70.7572L1091.3 67.8621L1089.75 73.658ZM896.019 244.371L892.868 249.477L896.651 251.812L899.986 248.873L896.019 244.371ZM847.156 214.211L848.707 208.415L844.005 219.317L847.156 214.211ZM1108.94 284.283L1114.74 285.835L1116.29 280.039L1110.49 278.487L1108.94 284.283ZM1085.28 372.672L1083.73 378.467L1089.53 380.019L1091.08 374.223L1085.28 372.672ZM914.242 389.001L908.446 387.45L906.895 393.246L912.69 394.797L914.242 389.001ZM929.756 331.042L924.024 329.27L923.99 329.38L923.96 329.49L929.756 331.042ZM956.796 243.558L962.529 245.33L962.562 245.221L962.592 245.11L956.796 243.558ZM970.63 191.878L972.181 186.082L966.385 184.53L964.834 190.326L970.63 191.878ZM1077.85 220.579L1083.65 222.13L1085.2 216.335L1079.41 214.783L1077.85 220.579ZM1024.85 418.608L1023.3 424.404L1029.09 425.955L1030.64 420.159L1024.85 418.608ZM760.224 285.663L779.617 213.213L768.025 210.111L748.632 282.56L760.224 285.663ZM777.708 216.232L976.751 46.9416L968.976 37.8007L769.934 207.092L777.708 216.232ZM971.312 48.1671L1088.2 79.454L1091.3 67.8621L974.415 36.5752L971.312 48.1671ZM1085.78 69.1564L892.052 239.869L899.986 248.873L1093.72 78.1597L1085.78 69.1564ZM899.171 239.265L850.307 209.105L844.005 219.317L892.868 249.477L899.171 239.265ZM845.605 220.007L1107.39 290.079L1110.49 278.487L848.707 208.415L845.605 220.007ZM1103.14 282.732L1079.48 371.12L1091.08 374.223L1114.74 285.835L1103.14 282.732ZM1086.83 366.876L755.98 278.315L752.877 289.907L1083.73 378.467L1086.83 366.876ZM920.038 390.553L935.552 332.593L923.96 329.49L908.446 387.45L920.038 390.553ZM935.489 332.814L962.529 245.33L951.064 241.787L924.024 329.27L935.489 332.814ZM962.592 245.11L976.426 193.429L964.834 190.326L951 242.007L962.592 245.11ZM969.078 197.674L1076.3 226.375L1079.41 214.783L972.181 186.082L969.078 197.674ZM1072.06 219.028L1019.05 417.056L1030.64 420.159L1083.65 222.13L1072.06 219.028ZM1026.4 412.812L915.793 383.205L912.69 394.797L1023.3 424.404L1026.4 412.812Z" fill="#E12B17" mask="url(#path-1-outside-1_1_15)"/>
<mask id="path-3-outside-2_1_15" maskUnits="userSpaceOnUse" x="5" y="35.0742" width="355" height="362" fill="black">
<rect fill="white" x="5" y="35.0742" width="355" height="362"/>
<path d="M11.5 331.074V256.074L160 41.0742H281L138 256.074L83 239.574H354V331.074H11.5ZM193 391.074V331.074L196.5 239.574V186.074H307.5V391.074H193Z"/>
</mask>
<path d="M11.5 331.074V256.074L160 41.0742H281L138 256.074L83 239.574H354V331.074H11.5ZM193 391.074V331.074L196.5 239.574V186.074H307.5V391.074H193Z" fill="#E12B17" fill-opacity="0.05"/>
<path d="M11.5 331.074H5.5V337.074H11.5V331.074ZM11.5 256.074L6.56313 252.664L5.5 254.204V256.074H11.5ZM160 41.0742V35.0742H156.852L155.063 37.6643L160 41.0742ZM281 41.0742L285.996 44.397L292.197 35.0742H281V41.0742ZM138 256.074L136.276 261.821L140.534 263.099L142.996 259.397L138 256.074ZM83 239.574V233.574L81.2759 245.321L83 239.574ZM354 239.574H360V233.574H354V239.574ZM354 331.074V337.074H360V331.074H354ZM193 391.074H187V397.074H193V391.074ZM193 331.074L187.004 330.845L187 330.96V331.074H193ZM196.5 239.574L202.496 239.804L202.5 239.689V239.574H196.5ZM196.5 186.074V180.074H190.5V186.074H196.5ZM307.5 186.074H313.5V180.074H307.5V186.074ZM307.5 391.074V397.074H313.5V391.074H307.5ZM17.5 331.074V256.074H5.5V331.074H17.5ZM16.4369 259.484L164.937 44.4841L155.063 37.6643L6.56313 252.664L16.4369 259.484ZM160 47.0742H281V35.0742H160V47.0742ZM276.004 37.7514L133.004 252.751L142.996 259.397L285.996 44.397L276.004 37.7514ZM139.724 250.327L84.7241 233.827L81.2759 245.321L136.276 261.821L139.724 250.327ZM83 245.574H354V233.574H83V245.574ZM348 239.574V331.074H360V239.574H348ZM354 325.074H11.5V337.074H354V325.074ZM199 391.074V331.074H187V391.074H199ZM198.996 331.304L202.496 239.804L190.504 239.345L187.004 330.845L198.996 331.304ZM202.5 239.574V186.074H190.5V239.574H202.5ZM196.5 192.074H307.5V180.074H196.5V192.074ZM301.5 186.074V391.074H313.5V186.074H301.5ZM307.5 385.074H193V397.074H307.5V385.074Z" fill="#E12B17" mask="url(#path-3-outside-2_1_15)"/>
<mask id="path-5-outside-3_1_15" maskUnits="userSpaceOnUse" x="355.31" y="-7.01423" width="411.409" height="446.418" fill="black">
<rect fill="white" x="355.31" y="-7.01423" width="411.409" height="446.418"/>
<path d="M605.14 393.795C575.055 401.27 546.638 400.946 519.89 392.823C493.466 384.619 470.327 368.901 450.472 345.67C430.942 322.358 416.515 291.939 407.191 254.413C397.868 216.888 396.38 183.254 402.729 153.512C409.402 123.69 422.495 98.97 442.007 79.353C461.842 59.6556 486.803 46.0694 516.888 38.5945C546.974 31.1196 575.229 31.484 601.653 39.6878C628.401 47.8112 651.54 63.5288 671.071 86.8406C690.925 110.072 705.514 140.451 714.838 177.976C724.161 215.502 725.487 249.176 718.814 278.998C712.465 308.74 699.372 333.46 679.537 353.157C660.024 372.774 635.226 386.32 605.14 393.795ZM582.354 302.084C589.794 300.235 595.783 295.999 600.32 289.377C604.857 282.754 607.176 272.732 607.276 259.312C607.7 245.812 605.219 228.224 599.834 206.55C594.369 184.552 588.329 167.849 581.717 156.44C575.347 144.627 568.608 136.856 561.499 133.127C554.39 129.398 547.115 128.458 539.675 130.306C532.234 132.155 526.246 136.39 521.709 143.013C517.172 149.636 514.691 159.698 514.267 173.198C514.087 186.295 516.729 203.842 522.195 225.84C527.58 247.514 533.457 264.258 539.827 276.07C546.52 287.803 553.421 295.533 560.53 299.263C567.639 302.992 574.914 303.932 582.354 302.084Z"/>
</mask>
<path d="M605.14 393.795C575.055 401.27 546.638 400.946 519.89 392.823C493.466 384.619 470.327 368.901 450.472 345.67C430.942 322.358 416.515 291.939 407.191 254.413C397.868 216.888 396.38 183.254 402.729 153.512C409.402 123.69 422.495 98.97 442.007 79.353C461.842 59.6556 486.803 46.0694 516.888 38.5945C546.974 31.1196 575.229 31.484 601.653 39.6878C628.401 47.8112 651.54 63.5288 671.071 86.8406C690.925 110.072 705.514 140.451 714.838 177.976C724.161 215.502 725.487 249.176 718.814 278.998C712.465 308.74 699.372 333.46 679.537 353.157C660.024 372.774 635.226 386.32 605.14 393.795ZM582.354 302.084C589.794 300.235 595.783 295.999 600.32 289.377C604.857 282.754 607.176 272.732 607.276 259.312C607.7 245.812 605.219 228.224 599.834 206.55C594.369 184.552 588.329 167.849 581.717 156.44C575.347 144.627 568.608 136.856 561.499 133.127C554.39 129.398 547.115 128.458 539.675 130.306C532.234 132.155 526.246 136.39 521.709 143.013C517.172 149.636 514.691 159.698 514.267 173.198C514.087 186.295 516.729 203.842 522.195 225.84C527.58 247.514 533.457 264.258 539.827 276.07C546.52 287.803 553.421 295.533 560.53 299.263C567.639 302.992 574.914 303.932 582.354 302.084Z" fill="#E12B17" fill-opacity="0.05"/>
<path d="M519.89 392.823L518.111 398.553L518.129 398.558L518.147 398.564L519.89 392.823ZM450.472 345.67L445.873 349.523L445.892 349.545L445.911 349.568L450.472 345.67ZM402.729 153.512L396.874 152.202L396.868 152.231L396.862 152.259L402.729 153.512ZM442.007 79.353L437.779 75.0955L437.766 75.1086L437.753 75.1217L442.007 79.353ZM601.653 39.6878L599.874 45.418L599.892 45.4235L599.909 45.4288L601.653 39.6878ZM671.071 86.8406L666.472 90.6938L666.491 90.7164L666.51 90.7387L671.071 86.8406ZM718.814 278.998L712.959 277.688L712.952 277.717L712.946 277.746L718.814 278.998ZM679.537 353.157L675.309 348.9L675.296 348.913L675.283 348.926L679.537 353.157ZM607.276 259.312L601.279 259.124L601.277 259.196L601.276 259.267L607.276 259.312ZM581.717 156.44L576.436 159.288L576.479 159.369L576.526 159.449L581.717 156.44ZM561.499 133.127L564.286 127.814L564.286 127.814L561.499 133.127ZM521.709 143.013L516.759 139.622L516.759 139.622L521.709 143.013ZM514.267 173.198L508.27 173.01L508.269 173.063L508.268 173.115L514.267 173.198ZM539.827 276.07L534.546 278.918L534.58 278.981L534.615 279.044L539.827 276.07ZM603.694 387.972C574.542 395.215 547.235 394.857 521.634 387.081L518.147 398.564C546.042 407.035 575.568 407.325 606.587 399.618L603.694 387.972ZM521.669 387.092C496.438 379.259 474.231 364.235 455.034 341.772L445.911 349.568C466.422 373.567 490.494 389.979 518.111 398.553L521.669 387.092ZM455.072 341.816C436.263 319.367 422.176 289.841 413.014 252.967L401.368 255.86C410.854 294.038 425.62 325.349 445.873 349.523L455.072 341.816ZM413.014 252.967C403.852 216.093 402.483 183.407 408.597 154.765L396.862 152.259C390.278 183.101 391.883 217.683 401.368 255.86L413.014 252.967ZM408.585 154.822C415.037 125.986 427.629 102.316 446.261 83.5843L437.753 75.1217C417.36 95.6244 403.767 121.394 396.874 152.202L408.585 154.822ZM446.235 83.6104C465.22 64.7575 489.183 51.6604 518.335 44.4175L515.442 32.7715C484.423 40.4784 458.465 54.5536 437.779 75.0955L446.235 83.6104ZM518.335 44.4175C547.488 37.1741 574.618 37.5771 599.874 45.418L603.432 33.9576C575.839 25.391 546.459 25.065 515.442 32.7715L518.335 44.4175ZM599.909 45.4288C625.444 53.1838 647.621 68.1934 666.472 90.6938L675.67 82.9874C655.46 58.8642 631.358 42.4385 603.397 33.9467L599.909 45.4288ZM666.51 90.7387C685.62 113.099 699.858 142.568 709.015 179.423L720.661 176.53C711.17 138.333 696.231 107.045 675.632 82.9425L666.51 90.7387ZM709.015 179.423C718.172 216.278 719.381 248.984 712.959 277.688L724.669 280.308C731.592 249.369 730.151 214.726 720.661 176.53L709.015 179.423ZM712.946 277.746C706.818 306.452 694.245 330.096 675.309 348.9L683.764 357.415C704.5 336.824 718.112 311.028 724.682 280.251L712.946 277.746ZM675.283 348.926C656.634 367.675 632.847 380.729 603.694 387.972L606.587 399.618C637.605 391.912 663.415 377.873 683.791 357.389L675.283 348.926ZM583.801 307.907C592.739 305.686 599.945 300.54 605.27 292.767L595.37 285.986C591.621 291.458 586.85 294.784 580.907 296.261L583.801 307.907ZM605.27 292.767C610.799 284.697 613.172 273.251 613.276 259.357L601.276 259.267C601.179 272.214 598.915 280.811 595.37 285.986L605.27 292.767ZM613.273 259.5C613.722 245.209 611.101 227.012 605.657 205.103L594.011 207.997C599.338 229.436 601.678 246.415 601.279 259.124L613.273 259.5ZM605.657 205.103C600.138 182.89 593.935 165.556 586.908 153.431L576.526 159.449C582.724 170.142 588.599 186.214 594.011 207.997L605.657 205.103ZM586.998 153.592C580.403 141.362 572.95 132.358 564.286 127.814L558.712 138.44C564.266 141.354 570.291 147.892 576.436 159.288L586.998 153.592ZM564.286 127.814C555.943 123.437 547.166 122.262 538.228 124.483L541.121 136.129C547.064 134.653 552.837 135.359 558.712 138.44L564.286 127.814ZM538.228 124.483C529.29 126.704 522.083 131.85 516.759 139.622L526.658 146.404C530.408 140.931 535.179 137.606 541.121 136.129L538.228 124.483ZM516.759 139.622C511.269 147.636 508.708 159.061 508.27 173.01L520.264 173.386C520.674 160.334 523.075 151.636 526.658 146.404L516.759 139.622ZM508.268 173.115C508.077 186.969 510.858 205.096 516.372 227.287L528.018 224.393C522.6 202.588 520.097 185.621 520.267 173.281L508.268 173.115ZM516.372 227.287C521.809 249.172 527.832 266.468 534.546 278.918L545.108 273.223C539.082 262.048 533.35 245.856 528.018 224.393L516.372 227.287ZM534.615 279.044C541.531 291.166 549.14 300.063 557.743 304.576L563.317 293.949C557.702 291.004 551.509 284.44 545.038 273.097L534.615 279.044ZM557.743 304.576C566.086 308.953 574.862 310.127 583.801 307.907L580.907 296.261C574.965 297.737 569.192 297.031 563.317 293.949L557.743 304.576Z" fill="#E12B17" mask="url(#path-5-outside-3_1_15)"/>
</svg>
