<svg width="1118" height="433" viewBox="0 0 1118 433" fill="none" xmlns="http://www.w3.org/2000/svg">
<mask id="path-1-outside-1_1_6153" maskUnits="userSpaceOnUse" x="718.389" y="-6.34737" width="398.026" height="438.35" fill="black">
<rect fill="white" x="718.389" y="-6.34737" width="398.026" height="438.35"/>
<path d="M861.459 383.154C838.275 376.949 815.459 368.081 793.01 356.551C770.561 345.021 751.657 331.852 736.297 317.043L797.432 243.344C809.681 255.595 823.134 265.925 837.792 274.334C852.535 282.421 866.991 288.361 881.159 292.154C894.039 295.601 905.268 296.191 914.847 293.924C924.425 291.657 930.378 286.177 932.705 277.483C933.998 272.653 933.669 268.079 931.72 263.761C929.856 259.122 925.48 254.845 918.591 250.93C912.024 247.102 901.818 243.335 887.972 239.629L789.923 213.384L861.774 12.6356L1086.37 72.753L1063.35 158.726L878.85 109.34L949.385 75.9419L904.206 204.119L859.787 139.951L938.515 161.025C972.003 169.989 997.436 181.972 1014.81 196.976C1032.51 212.066 1043.67 229.028 1048.29 247.864C1053.32 266.463 1053.17 285.745 1047.82 305.708C1042.48 325.672 1031.88 343.366 1016.01 358.789C1000.56 373.977 979.854 384.307 953.889 389.779C928.333 395.016 897.522 392.808 861.459 383.154Z"/>
</mask>
<path d="M861.459 383.154C838.275 376.949 815.459 368.081 793.01 356.551C770.561 345.021 751.657 331.852 736.297 317.043L797.432 243.344C809.681 255.595 823.134 265.925 837.792 274.334C852.535 282.421 866.991 288.361 881.159 292.154C894.039 295.601 905.268 296.191 914.847 293.924C924.425 291.657 930.378 286.177 932.705 277.483C933.998 272.653 933.669 268.079 931.72 263.761C929.856 259.122 925.48 254.845 918.591 250.93C912.024 247.102 901.818 243.335 887.972 239.629L789.923 213.384L861.774 12.6356L1086.37 72.753L1063.35 158.726L878.85 109.34L949.385 75.9419L904.206 204.119L859.787 139.951L938.515 161.025C972.003 169.989 997.436 181.972 1014.81 196.976C1032.51 212.066 1043.67 229.028 1048.29 247.864C1053.32 266.463 1053.17 285.745 1047.82 305.708C1042.48 325.672 1031.88 343.366 1016.01 358.789C1000.56 373.977 979.854 384.307 953.889 389.779C928.333 395.016 897.522 392.808 861.459 383.154Z" fill="#E12B17" fill-opacity="0.05"/>
<path d="M736.297 317.043L731.679 313.212L728.124 317.498L732.132 321.362L736.297 317.043ZM797.432 243.344L801.675 239.102L797.019 234.445L792.814 239.514L797.432 243.344ZM837.792 274.334L834.806 279.538L834.856 279.567L834.906 279.595L837.792 274.334ZM914.847 293.924L916.228 299.763L914.847 293.924ZM931.72 263.761L926.152 265.998L926.199 266.115L926.251 266.231L931.72 263.761ZM918.591 250.93L915.569 256.114L915.598 256.131L915.627 256.147L918.591 250.93ZM789.923 213.384L784.274 211.362L782.079 217.496L788.372 219.18L789.923 213.384ZM861.774 12.6356L863.326 6.83965L857.988 5.41075L856.125 10.6137L861.774 12.6356ZM1086.37 72.753L1092.16 74.3045L1093.72 68.5085L1087.92 66.9571L1086.37 72.753ZM1063.35 158.726L1061.8 164.522L1067.6 166.074L1069.15 160.278L1063.35 158.726ZM878.85 109.34L876.283 103.917L861.513 110.91L877.299 115.136L878.85 109.34ZM949.385 75.9419L955.043 77.9364L959.83 64.3576L946.817 70.519L949.385 75.9419ZM904.206 204.119L899.272 207.534L905.959 217.193L909.864 206.113L904.206 204.119ZM859.787 139.951L861.338 134.155L845.552 129.93L854.853 143.366L859.787 139.951ZM1014.81 196.976L1010.89 201.518L1010.91 201.53L1010.92 201.542L1014.81 196.976ZM1048.29 247.864L1042.47 249.293L1042.48 249.361L1042.5 249.429L1048.29 247.864ZM1016.01 358.789L1011.83 354.488L1011.82 354.499L1011.81 354.51L1016.01 358.789ZM953.889 389.779L955.093 395.657L955.11 395.654L955.126 395.65L953.889 389.779ZM863.01 377.358C840.259 371.269 817.84 362.559 795.751 351.214L790.269 361.888C813.077 373.603 836.291 382.629 859.907 388.95L863.01 377.358ZM795.751 351.214C773.731 339.904 755.33 327.059 740.461 312.724L732.132 321.362C747.983 336.644 767.391 350.138 790.269 361.888L795.751 351.214ZM740.915 320.874L802.05 247.175L792.814 239.514L731.679 313.212L740.915 320.874ZM793.189 247.587C805.803 260.203 819.677 270.859 834.806 279.538L840.777 269.13C826.591 260.991 813.559 250.987 801.675 239.102L793.189 247.587ZM834.906 279.595C850.011 287.88 864.913 294.016 879.607 297.949L882.71 286.358C869.069 282.706 855.059 276.963 840.677 269.074L834.906 279.595ZM879.607 297.949C893.121 301.567 905.402 302.325 916.228 299.763L913.465 288.086C905.134 290.057 894.956 289.635 882.71 286.358L879.607 297.949ZM916.228 299.763C921.803 298.444 926.678 296.101 930.559 292.528C934.465 288.932 937.077 284.353 938.501 279.034L926.909 275.932C926.006 279.307 924.478 281.815 922.431 283.7C920.36 285.607 917.468 287.138 913.465 288.086L916.228 299.763ZM938.501 279.034C940.131 272.946 939.741 266.945 937.188 261.292L926.251 266.231C927.598 269.213 927.865 272.359 926.909 275.932L938.501 279.034ZM937.287 261.525C934.697 255.077 928.978 249.932 921.555 245.714L915.627 256.147C921.981 259.758 925.015 263.167 926.152 265.998L937.287 261.525ZM921.613 245.747C914.343 241.509 903.515 237.578 889.523 233.833L886.42 245.425C900.12 249.092 909.705 252.696 915.569 256.114L921.613 245.747ZM889.523 233.833L791.475 207.588L788.372 219.18L886.42 245.425L889.523 233.833ZM795.573 215.406L867.423 14.6575L856.125 10.6137L784.274 211.362L795.573 215.406ZM860.223 18.4316L1084.82 78.549L1087.92 66.9571L863.326 6.83965L860.223 18.4316ZM1080.57 71.2016L1057.56 157.175L1069.15 160.278L1092.16 74.3045L1080.57 71.2016ZM1064.91 152.93L880.402 103.544L877.299 115.136L1061.8 164.522L1064.91 152.93ZM881.418 114.762L951.952 81.3647L946.817 70.519L876.283 103.917L881.418 114.762ZM943.726 73.9473L898.547 202.124L909.864 206.113L955.043 77.9364L943.726 73.9473ZM909.139 200.704L864.72 136.536L854.853 143.366L899.272 207.534L909.139 200.704ZM858.235 145.747L936.964 166.821L940.067 155.229L861.338 134.155L858.235 145.747ZM936.964 166.821C969.983 175.659 994.46 187.33 1010.89 201.518L1018.74 192.434C1000.41 176.615 974.022 164.318 940.067 155.229L936.964 166.821ZM1010.92 201.542C1027.86 215.982 1038.2 231.908 1042.47 249.293L1054.12 246.434C1049.15 226.149 1037.17 208.15 1018.71 192.41L1010.92 201.542ZM1042.5 249.429C1047.24 266.934 1047.12 285.138 1042.03 304.157L1053.62 307.26C1059.21 286.351 1059.41 265.992 1054.09 246.298L1042.5 249.429ZM1042.03 304.157C1036.98 323.002 1026.97 339.764 1011.83 354.488L1020.2 363.091C1036.78 346.968 1047.97 328.343 1053.62 307.26L1042.03 304.157ZM1011.81 354.51C997.34 368.731 977.748 378.619 952.652 383.908L955.126 395.65C981.959 389.995 1003.78 379.223 1020.22 363.068L1011.81 354.51ZM952.685 383.901C928.348 388.888 898.536 386.868 863.01 377.358L859.907 388.95C896.509 398.748 928.318 401.144 955.093 395.657L952.685 383.901Z" fill="#E12B17" mask="url(#path-1-outside-1_1_6153)"/>
<mask id="path-3-outside-2_1_6153" maskUnits="userSpaceOnUse" x="-6" y="35.0742" width="313" height="370" fill="black">
<rect fill="white" x="-6" y="35.0742" width="313" height="370"/>
<path d="M140.5 399.074C116.5 399.074 92.1667 396.408 67.5 391.074C42.8333 385.741 21.1667 377.908 2.5 367.574L42.5 280.574C57.5 289.241 73.1667 295.741 89.5 300.074C105.833 304.074 121.333 306.074 136 306.074C149.333 306.074 160.333 303.741 169 299.074C177.667 294.408 182 287.574 182 278.574C182 273.574 180.5 269.241 177.5 265.574C174.5 261.574 169.167 258.574 161.5 256.574C154.167 254.574 143.333 253.574 129 253.574H27.5L45 41.0742H277.5V130.074H86.5L146 79.5742L135.5 215.074L76 164.574H157.5C192.167 164.574 219.833 169.574 240.5 179.574C261.5 189.574 276.667 203.074 286 220.074C295.667 236.741 300.5 255.408 300.5 276.074C300.5 296.741 294.833 316.574 283.5 335.574C272.5 354.241 255.167 369.574 231.5 381.574C208.167 393.241 177.833 399.074 140.5 399.074Z"/>
</mask>
<path d="M140.5 399.074C116.5 399.074 92.1667 396.408 67.5 391.074C42.8333 385.741 21.1667 377.908 2.5 367.574L42.5 280.574C57.5 289.241 73.1667 295.741 89.5 300.074C105.833 304.074 121.333 306.074 136 306.074C149.333 306.074 160.333 303.741 169 299.074C177.667 294.408 182 287.574 182 278.574C182 273.574 180.5 269.241 177.5 265.574C174.5 261.574 169.167 258.574 161.5 256.574C154.167 254.574 143.333 253.574 129 253.574H27.5L45 41.0742H277.5V130.074H86.5L146 79.5742L135.5 215.074L76 164.574H157.5C192.167 164.574 219.833 169.574 240.5 179.574C261.5 189.574 276.667 203.074 286 220.074C295.667 236.741 300.5 255.408 300.5 276.074C300.5 296.741 294.833 316.574 283.5 335.574C272.5 354.241 255.167 369.574 231.5 381.574C208.167 393.241 177.833 399.074 140.5 399.074Z" fill="#E12B17" fill-opacity="0.05"/>
<path d="M2.5 367.574L-2.95142 365.068L-5.27741 370.127L-0.405895 372.824L2.5 367.574ZM42.5 280.574L45.5017 275.379L39.7995 272.084L37.0486 278.068L42.5 280.574ZM89.5 300.074L87.9614 305.874L88.017 305.888L88.0728 305.902L89.5 300.074ZM169 299.074L171.845 304.357L169 299.074ZM177.5 265.574L172.7 269.174L172.776 269.276L172.856 269.374L177.5 265.574ZM161.5 256.574L159.921 262.363L159.953 262.372L159.985 262.38L161.5 256.574ZM27.5 253.574L21.5202 253.082L20.9856 259.574H27.5V253.574ZM45 41.0742V35.0742H39.4738L39.0202 40.5817L45 41.0742ZM277.5 41.0742H283.5V35.0742H277.5V41.0742ZM277.5 130.074V136.074H283.5V130.074H277.5ZM86.5 130.074L82.6175 125.5L70.1584 136.074H86.5V130.074ZM146 79.5742L151.982 80.0378L153.094 65.6831L142.117 74.9997L146 79.5742ZM135.5 215.074L131.617 219.649L140.574 227.251L141.482 215.538L135.5 215.074ZM76 164.574V158.574H59.6584L72.1175 169.149L76 164.574ZM240.5 179.574L237.887 184.975L237.904 184.983L237.92 184.991L240.5 179.574ZM286 220.074L280.741 222.962L280.774 223.024L280.81 223.085L286 220.074ZM283.5 335.574L278.347 332.501L278.339 332.514L278.331 332.528L283.5 335.574ZM231.5 381.574L234.183 386.941L234.198 386.933L234.213 386.926L231.5 381.574ZM140.5 393.074C116.948 393.074 93.0394 390.458 68.768 385.21L66.232 396.939C91.294 402.358 116.052 405.074 140.5 405.074V393.074ZM68.768 385.21C44.5728 379.978 23.4759 372.328 5.4059 362.325L-0.405895 372.824C18.8574 383.487 41.0939 391.503 66.232 396.939L68.768 385.21ZM7.95142 370.081L47.9514 283.081L37.0486 278.068L-2.95142 365.068L7.95142 370.081ZM39.4983 285.769C54.9456 294.694 71.103 301.401 87.9614 305.874L91.0386 294.275C75.2303 290.081 60.0544 283.787 45.5017 275.379L39.4983 285.769ZM88.0728 305.902C104.807 310 120.788 312.074 136 312.074V300.074C121.878 300.074 106.86 298.148 90.9272 294.246L88.0728 305.902ZM136 312.074C149.99 312.074 162.049 309.632 171.845 304.357L166.155 293.791C158.618 297.85 148.677 300.074 136 300.074V312.074ZM171.845 304.357C176.889 301.641 180.992 298.118 183.817 293.662C186.66 289.179 188 284.08 188 278.574H176C176 282.068 175.173 284.886 173.683 287.236C172.175 289.614 169.778 291.841 166.155 293.791L171.845 304.357ZM188 278.574C188 272.272 186.072 266.576 182.144 261.775L172.856 269.374C174.928 271.906 176 274.876 176 278.574H188ZM182.3 261.974C178.131 256.415 171.275 252.924 163.015 250.769L159.985 262.38C167.058 264.225 170.869 266.734 172.7 269.174L182.3 261.974ZM163.079 250.786C154.96 248.571 143.484 247.574 129 247.574V259.574C143.182 259.574 153.373 260.577 159.921 262.363L163.079 250.786ZM129 247.574H27.5V259.574H129V247.574ZM33.4798 254.067L50.9798 41.5666L39.0202 40.5817L21.5202 253.082L33.4798 254.067ZM45 47.0742H277.5V35.0742H45V47.0742ZM271.5 41.0742V130.074H283.5V41.0742H271.5ZM277.5 124.074H86.5V136.074H277.5V124.074ZM90.3825 134.649L149.883 84.1487L142.117 74.9997L82.6175 125.5L90.3825 134.649ZM140.018 79.1106L129.518 214.611L141.482 215.538L151.982 80.0378L140.018 79.1106ZM139.383 210.5L79.8825 160L72.1175 169.149L131.617 219.649L139.383 210.5ZM76 170.574H157.5V158.574H76V170.574ZM157.5 170.574C191.682 170.574 218.344 175.519 237.887 184.975L243.113 174.173C221.323 163.63 192.651 158.574 157.5 158.574V170.574ZM237.92 184.991C258.016 194.561 272.126 207.271 280.741 222.962L291.259 217.187C281.207 198.878 264.984 184.588 243.08 174.157L237.92 184.991ZM280.81 223.085C289.908 238.77 294.5 256.385 294.5 276.074H306.5C306.5 254.43 301.426 234.712 291.19 217.064L280.81 223.085ZM294.5 276.074C294.5 295.582 289.167 314.362 278.347 332.501L288.653 338.648C300.5 318.786 306.5 297.9 306.5 276.074H294.5ZM278.331 332.528C268.031 350.006 251.662 364.624 228.787 376.223L234.213 386.926C258.671 374.524 276.969 358.475 288.669 338.62L278.331 332.528ZM228.817 376.208C206.597 387.318 177.276 393.074 140.5 393.074V405.074C178.391 405.074 209.737 399.164 234.183 386.941L228.817 376.208Z" fill="#E12B17" mask="url(#path-3-outside-2_1_6153)"/>
<mask id="path-5-outside-3_1_6153" maskUnits="userSpaceOnUse" x="341.388" y="-7.01423" width="411.409" height="446.418" fill="black">
<rect fill="white" x="341.388" y="-7.01423" width="411.409" height="446.418"/>
<path d="M591.219 393.795C561.133 401.27 532.717 400.946 505.969 392.823C479.544 384.619 456.405 368.901 436.551 345.67C417.02 322.358 402.593 291.939 393.269 254.413C383.946 216.888 382.458 183.254 388.808 153.512C395.48 123.69 408.573 98.97 428.085 79.353C447.921 59.6556 472.881 46.0694 502.966 38.5945C533.052 31.1196 561.307 31.484 587.731 39.6878C614.479 47.8112 637.618 63.5288 657.149 86.8406C677.003 110.072 691.592 140.451 700.916 177.976C710.239 215.502 711.565 249.176 704.892 278.998C698.543 308.74 685.451 333.46 665.615 353.157C646.103 372.774 621.304 386.32 591.219 393.795ZM568.432 302.084C575.873 300.235 581.861 295.999 586.398 289.377C590.935 282.754 593.254 272.732 593.354 259.312C593.778 245.812 591.297 228.224 585.912 206.55C580.447 184.552 574.408 167.849 567.795 156.44C561.425 144.627 554.686 136.856 547.577 133.127C540.468 129.398 533.193 128.458 525.753 130.306C518.312 132.155 512.324 136.39 507.787 143.013C503.25 149.636 500.769 159.698 500.346 173.198C500.165 186.295 502.807 203.842 508.273 225.84C513.658 247.514 519.535 264.258 525.905 276.07C532.598 287.803 539.499 295.533 546.608 299.263C553.717 302.992 560.992 303.932 568.432 302.084Z"/>
</mask>
<path d="M591.219 393.795C561.133 401.27 532.717 400.946 505.969 392.823C479.544 384.619 456.405 368.901 436.551 345.67C417.02 322.358 402.593 291.939 393.269 254.413C383.946 216.888 382.458 183.254 388.808 153.512C395.48 123.69 408.573 98.97 428.085 79.353C447.921 59.6556 472.881 46.0694 502.966 38.5945C533.052 31.1196 561.307 31.484 587.731 39.6878C614.479 47.8112 637.618 63.5288 657.149 86.8406C677.003 110.072 691.592 140.451 700.916 177.976C710.239 215.502 711.565 249.176 704.892 278.998C698.543 308.74 685.451 333.46 665.615 353.157C646.103 372.774 621.304 386.32 591.219 393.795ZM568.432 302.084C575.873 300.235 581.861 295.999 586.398 289.377C590.935 282.754 593.254 272.732 593.354 259.312C593.778 245.812 591.297 228.224 585.912 206.55C580.447 184.552 574.408 167.849 567.795 156.44C561.425 144.627 554.686 136.856 547.577 133.127C540.468 129.398 533.193 128.458 525.753 130.306C518.312 132.155 512.324 136.39 507.787 143.013C503.25 149.636 500.769 159.698 500.346 173.198C500.165 186.295 502.807 203.842 508.273 225.84C513.658 247.514 519.535 264.258 525.905 276.07C532.598 287.803 539.499 295.533 546.608 299.263C553.717 302.992 560.992 303.932 568.432 302.084Z" fill="#E12B17" fill-opacity="0.05"/>
<path d="M505.969 392.823L504.19 398.553L504.207 398.558L504.225 398.564L505.969 392.823ZM436.551 345.67L431.951 349.523L431.97 349.545L431.989 349.568L436.551 345.67ZM388.808 153.512L382.952 152.202L382.946 152.231L382.94 152.259L388.808 153.512ZM428.085 79.353L423.857 75.0955L423.844 75.1086L423.831 75.1217L428.085 79.353ZM587.731 39.6878L585.952 45.418L585.97 45.4235L585.988 45.4288L587.731 39.6878ZM657.149 86.8406L652.55 90.6938L652.569 90.7164L652.588 90.7387L657.149 86.8406ZM704.892 278.998L699.037 277.688L699.03 277.717L699.024 277.746L704.892 278.998ZM665.615 353.157L661.387 348.9L661.374 348.913L661.361 348.926L665.615 353.157ZM593.354 259.312L587.357 259.124L587.355 259.196L587.354 259.267L593.354 259.312ZM567.795 156.44L562.514 159.288L562.557 159.369L562.604 159.449L567.795 156.44ZM547.577 133.127L550.364 127.814L550.364 127.814L547.577 133.127ZM507.787 143.013L502.837 139.622L502.837 139.622L507.787 143.013ZM500.346 173.198L494.348 173.01L494.347 173.063L494.346 173.115L500.346 173.198ZM525.905 276.07L520.624 278.918L520.658 278.981L520.693 279.044L525.905 276.07ZM589.772 387.972C560.62 395.215 533.313 394.857 507.712 387.081L504.225 398.564C532.12 407.035 561.646 407.325 592.665 399.618L589.772 387.972ZM507.748 387.092C482.516 379.259 460.31 364.235 441.112 341.772L431.989 349.568C452.5 373.567 476.572 389.979 504.19 398.553L507.748 387.092ZM441.15 341.816C422.341 319.367 408.254 289.841 399.092 252.967L387.446 255.86C396.932 294.038 411.698 325.349 431.951 349.523L441.15 341.816ZM399.092 252.967C389.931 216.093 388.561 183.407 394.675 154.765L382.94 152.259C376.356 183.101 377.961 217.683 387.446 255.86L399.092 252.967ZM394.663 154.822C401.115 125.986 413.708 102.316 432.339 83.5843L423.831 75.1217C403.438 95.6244 389.846 121.394 382.952 152.202L394.663 154.822ZM432.313 83.6104C451.298 64.7575 475.261 51.6604 504.413 44.4175L501.52 32.7715C470.501 40.4784 444.543 54.5536 423.857 75.0955L432.313 83.6104ZM504.413 44.4175C533.566 37.1741 560.696 37.5771 585.952 45.418L589.51 33.9576C561.917 25.391 532.537 25.065 501.52 32.7715L504.413 44.4175ZM585.988 45.4288C611.523 53.1838 633.699 68.1934 652.55 90.6938L661.748 82.9874C641.538 58.8642 617.436 42.4385 589.475 33.9467L585.988 45.4288ZM652.588 90.7387C671.698 113.099 685.936 142.568 695.093 179.423L706.739 176.53C697.249 138.333 682.309 107.045 661.71 82.9425L652.588 90.7387ZM695.093 179.423C704.25 216.278 705.459 248.984 699.037 277.688L710.747 280.308C717.67 249.369 716.229 214.726 706.739 176.53L695.093 179.423ZM699.024 277.746C692.896 306.452 680.323 330.096 661.387 348.9L669.843 357.415C690.578 336.824 704.19 311.028 710.76 280.251L699.024 277.746ZM661.361 348.926C642.712 367.675 618.925 380.729 589.772 387.972L592.665 399.618C623.683 391.912 649.494 377.873 669.869 357.389L661.361 348.926ZM569.879 307.907C578.817 305.686 586.023 300.54 591.348 292.767L581.448 285.986C577.699 291.458 572.928 294.784 566.985 296.261L569.879 307.907ZM591.348 292.767C596.877 284.697 599.25 273.251 599.354 259.357L587.354 259.267C587.258 272.214 584.993 280.811 581.448 285.986L591.348 292.767ZM599.351 259.5C599.8 245.209 597.179 227.012 591.735 205.103L580.089 207.997C585.416 229.436 587.756 246.415 587.357 259.124L599.351 259.5ZM591.735 205.103C586.216 182.89 580.013 165.556 572.986 153.431L562.604 159.449C568.802 170.142 574.677 186.214 580.089 207.997L591.735 205.103ZM573.076 153.592C566.482 141.362 559.028 132.358 550.364 127.814L544.79 138.44C550.344 141.354 556.369 147.892 562.514 159.288L573.076 153.592ZM550.364 127.814C542.021 123.437 533.244 122.262 524.306 124.483L527.2 136.129C533.142 134.653 538.915 135.359 544.79 138.44L550.364 127.814ZM524.306 124.483C515.368 126.704 508.161 131.85 502.837 139.622L512.737 146.404C516.486 140.931 521.257 137.606 527.2 136.129L524.306 124.483ZM502.837 139.622C497.347 147.636 494.786 159.061 494.348 173.01L506.343 173.386C506.752 160.334 509.153 151.636 512.737 146.404L502.837 139.622ZM494.346 173.115C494.155 186.969 496.936 205.096 502.45 227.287L514.096 224.393C508.678 202.588 506.175 185.621 506.345 173.281L494.346 173.115ZM502.45 227.287C507.887 249.172 513.91 266.468 520.624 278.918L531.186 273.223C525.16 262.048 519.428 245.856 514.096 224.393L502.45 227.287ZM520.693 279.044C527.609 291.166 535.218 300.063 543.821 304.576L549.395 293.949C543.78 291.004 537.587 284.44 531.116 273.097L520.693 279.044ZM543.821 304.576C552.164 308.953 560.94 310.127 569.879 307.907L566.985 296.261C561.043 297.737 555.27 297.031 549.395 293.949L543.821 304.576Z" fill="#E12B17" mask="url(#path-5-outside-3_1_6153)"/>
</svg>
