<svg width="22" height="22" viewBox="0 0 22 22" fill="none" xmlns="http://www.w3.org/2000/svg">
<mask id="mask0_1_785" style="mask-type:alpha" maskUnits="userSpaceOnUse" x="0" y="0" width="22" height="22">
<rect width="22" height="22" fill="#D9D9D9"/>
</mask>
<g mask="url(#mask0_1_785)">
<path d="M13.7493 18.3332C11.7021 18.3332 9.9681 17.6228 8.54727 16.2019C7.12643 14.7811 6.41602 13.0471 6.41602 10.9998C6.41602 8.96789 7.12643 7.23768 8.54727 5.80921C9.9681 4.38074 11.7021 3.6665 13.7493 3.6665C15.7813 3.6665 17.5115 4.38074 18.94 5.80921C20.3684 7.23768 21.0827 8.96789 21.0827 10.9998C21.0827 13.0471 20.3684 14.7811 18.94 16.2019C17.5115 17.6228 15.7813 18.3332 13.7493 18.3332ZM13.7493 16.4998C15.2771 16.4998 16.5757 15.9651 17.6452 14.8957C18.7146 13.8262 19.2493 12.5276 19.2493 10.9998C19.2493 9.47206 18.7146 8.17345 17.6452 7.104C16.5757 6.03456 15.2771 5.49984 13.7493 5.49984C12.2216 5.49984 10.923 6.03456 9.85352 7.104C8.78407 8.17345 8.24935 9.47206 8.24935 10.9998C8.24935 12.5276 8.78407 13.8262 9.85352 14.8957C10.923 15.9651 12.2216 16.4998 13.7493 16.4998ZM15.8348 14.4144L17.141 13.1082L14.666 10.6332V7.33317H12.8327V11.3894L15.8348 14.4144ZM1.83268 8.24984V6.4165H5.49935V8.24984H1.83268ZM0.916016 11.9165V10.0832H5.49935V11.9165H0.916016ZM1.83268 15.5832V13.7498H5.49935V15.5832H1.83268Z" fill="currentColor"/>
</g>
</svg>
