<svg width="25" height="24" viewBox="0 0 25 24" fill="none" xmlns="http://www.w3.org/2000/svg">
<mask id="mask0_1_8844" style="mask-type:alpha" maskUnits="userSpaceOnUse" x="0" y="0" width="25" height="24">
<rect width="24" height="24" transform="matrix(-1 0 0 1 24.5 0)" fill="#D9D9D9"/>
</mask>
<g mask="url(#mask0_1_8844)">
<path d="M10.5946 12.0054L17.1751 5.42491C17.3989 5.20108 17.5071 4.93622 17.4996 4.63032C17.4922 4.32443 17.3765 4.05957 17.1527 3.83574C16.9289 3.61191 16.664 3.5 16.3581 3.5C16.0522 3.5 15.7874 3.61191 15.5635 3.83574L8.69206 10.7296C8.513 10.9087 8.3787 11.1101 8.28917 11.3339C8.19964 11.5578 8.15487 11.7816 8.15487 12.0054C8.15487 12.2292 8.19964 12.4531 8.28917 12.6769C8.3787 12.9007 8.513 13.1022 8.69206 13.2812L15.5859 20.1751C15.8097 20.3989 16.0709 20.5071 16.3693 20.4996C16.6677 20.4922 16.9289 20.3765 17.1527 20.1527C17.3765 19.9289 17.4884 19.664 17.4884 19.3581C17.4884 19.0522 17.3765 18.7874 17.1527 18.5635L10.5946 12.0054Z" fill="currentColor"/>
</g>
</svg>
