<svg width="120" height="120" viewBox="0 0 120 120" fill="none" xmlns="http://www.w3.org/2000/svg">
<g clip-path="url(#clip0_1_949)">
<mask id="path-1-inside-1_1_949" fill="white">
<path d="M103.841 76.3113C104.528 75.6248 105.641 75.6248 106.327 76.3113C107.014 76.9978 107.014 78.1109 106.327 78.7971L80.0311 105.093C79.688 105.436 79.238 105.608 78.7882 105.608C78.3384 105.608 77.8884 105.436 77.5453 105.093C76.8588 104.407 76.8588 103.294 77.5453 102.607L103.841 76.3113ZM68.5034 40.9734C69.1898 40.287 70.3029 40.287 70.9891 40.9734C71.6756 41.6599 71.6756 42.773 70.9891 43.4592L63.0206 51.4277C62.6775 51.7709 62.2275 51.9427 61.7777 51.9427C61.328 51.9427 60.878 51.7711 60.5348 51.4277C59.8484 50.7412 59.8484 49.6282 60.5348 48.942L68.5034 40.9734ZM38.9386 0C42.3077 0 45.3598 1.38047 47.5615 3.60445L116.711 72.7437C118.832 74.8641 120 77.6836 120 80.6827C120 83.6817 118.832 86.5013 116.712 88.6219L88.6219 116.712C86.5012 118.833 83.6817 120 80.6827 120C77.6836 120 74.8641 118.832 72.7437 116.711L3.60587 47.5629C1.38117 45.3609 0 42.3084 0 38.9384C0 17.4677 17.4677 0 38.9386 0ZM47.5636 13.3615C46.1248 12.247 44.3644 11.64 42.5323 11.64C37.9903 11.64 34.2949 15.3352 34.2949 19.8773C34.2949 20.366 34.3397 20.8514 34.4257 21.33C38.4881 21.6417 42.1509 24.0731 44.0114 27.7001C45.1699 27.3408 46.3943 27.1498 47.6534 27.1523C47.5842 22.5916 47.5655 17.9918 47.5636 13.3615ZM35.6398 37.0936C35.7408 36.5684 35.8765 36.0591 36.0382 35.5643C33.2719 35.16 30.4181 36.0666 28.398 38.0866C25.8823 40.6024 25.1135 44.2999 26.3435 47.5631H38.5479C36.0811 44.7837 34.9015 40.9322 35.6398 37.0936ZM25.7714 35.7476C25.8185 35.6988 25.8642 35.6491 25.9123 35.6009C28.9999 32.5132 33.4856 31.2914 37.673 32.3034C38.5369 31.0805 39.6131 30.0373 40.8396 29.2151C39.3012 26.2987 36.0872 24.5112 32.7211 24.8522C28.2021 25.3085 24.8967 29.3562 25.3528 33.8752C25.4175 34.5164 25.5616 35.1438 25.7714 35.7476ZM47.7173 30.6677C43.5591 30.6314 39.903 33.5421 39.0923 37.7578C38.2957 41.8995 40.6263 46.0624 44.5348 47.5634H48.4352C48.0563 42.0091 47.8402 36.371 47.7176 30.6677H47.7173ZM75.2299 114.225C75.2299 114.225 75.2313 114.227 75.2323 114.227C76.6884 115.683 78.6239 116.484 80.6829 116.484C82.7428 116.484 84.6795 115.682 86.1361 114.226L114.226 86.1359C115.683 84.6792 116.485 82.7426 116.485 80.6827C116.485 78.6227 115.682 76.6863 114.225 75.2297L51.0776 12.0916C51.0776 12.1083 51.0788 12.1249 51.0788 12.1416V12.5484C51.0788 25.0137 51.1833 37.2584 52.0678 49.0741C52.0784 49.1484 52.0842 49.2244 52.0849 49.3015C52.5811 55.8532 53.3187 62.2716 54.4127 68.5223C57.9659 88.8209 64.7749 103.77 75.2297 114.225H75.2299ZM60.4165 99.4099C56.1382 90.9194 53.0062 80.8772 50.9498 69.1284C49.9186 63.2372 49.1991 57.2114 48.6982 51.079H12.1404C12.124 51.079 12.108 51.0778 12.0916 51.0778L60.4167 99.4099H60.4165ZM15.7317 47.5636H22.6596C21.9101 44.7082 22.2049 41.7012 23.4621 39.0661C22.583 37.5942 22.0282 35.9442 21.855 34.2288C21.2545 28.279 25.2253 22.9055 30.9082 21.5988C30.8241 21.0302 30.7793 20.4558 30.7793 19.8776C30.7793 19.3329 30.8196 18.7976 30.8918 18.2723C29.2896 16.9432 27.2934 16.219 25.1855 16.219C20.2472 16.219 16.2295 20.2369 16.2295 25.1752C16.2295 27.1453 16.8579 29.0147 18.0466 30.5815C18.3844 31.0268 18.4905 31.6064 18.3319 32.1424C18.1732 32.6784 17.7694 33.1071 17.2437 33.2972C14.0944 34.4355 11.9784 37.4508 11.9784 40.8007C11.9784 43.5577 13.4074 46.1093 15.7317 47.5636ZM10.5621 47.4164C9.22008 45.5109 8.46281 43.2101 8.46281 40.8005C8.46281 36.7015 10.6627 32.9496 14.1061 30.9077C13.1909 29.1483 12.7141 27.1995 12.7141 25.1752C12.7141 18.2984 18.3089 12.7036 25.1857 12.7034C27.6342 12.7034 29.9737 13.4067 31.9779 14.7136C33.893 10.8152 37.9038 8.12484 42.5325 8.12484C44.0709 8.12484 45.5728 8.42648 46.9673 8.99625C45.7078 5.79164 42.585 3.51609 38.9386 3.51609C19.4065 3.51609 3.51586 19.4067 3.51586 38.9388C3.51586 43.1552 6.55805 46.6725 10.5623 47.4164H10.5621ZM92.062 64.5321C92.7485 63.8456 93.8616 63.8456 94.5478 64.5321C95.2343 65.2186 95.2343 66.3316 94.5478 67.0179L71.6627 89.903C71.3196 90.2461 70.8696 90.4179 70.4198 90.4179C69.9701 90.4179 69.5201 90.2463 69.177 89.903C68.4905 89.2165 68.4905 88.1034 69.177 87.4172L92.062 64.5321ZM80.2828 52.7529C80.9693 52.0664 82.0823 52.0664 82.7686 52.7529C83.4551 53.4394 83.4551 54.5524 82.7686 55.2387L66.1362 71.8711C65.793 72.2142 65.343 72.386 64.8933 72.386C64.4435 72.386 63.9935 72.2145 63.6504 71.8711C62.9639 71.1846 62.9639 70.0716 63.6504 69.3853L80.2828 52.7529Z"/>
</mask>
<path d="M103.841 76.3113C104.528 75.6248 105.641 75.6248 106.327 76.3113C107.014 76.9978 107.014 78.1109 106.327 78.7971L80.0311 105.093C79.688 105.436 79.238 105.608 78.7882 105.608C78.3384 105.608 77.8884 105.436 77.5453 105.093C76.8588 104.407 76.8588 103.294 77.5453 102.607L103.841 76.3113ZM68.5034 40.9734C69.1898 40.287 70.3029 40.287 70.9891 40.9734C71.6756 41.6599 71.6756 42.773 70.9891 43.4592L63.0206 51.4277C62.6775 51.7709 62.2275 51.9427 61.7777 51.9427C61.328 51.9427 60.878 51.7711 60.5348 51.4277C59.8484 50.7412 59.8484 49.6282 60.5348 48.942L68.5034 40.9734ZM38.9386 0C42.3077 0 45.3598 1.38047 47.5615 3.60445L116.711 72.7437C118.832 74.8641 120 77.6836 120 80.6827C120 83.6817 118.832 86.5013 116.712 88.6219L88.6219 116.712C86.5012 118.833 83.6817 120 80.6827 120C77.6836 120 74.8641 118.832 72.7437 116.711L3.60587 47.5629C1.38117 45.3609 0 42.3084 0 38.9384C0 17.4677 17.4677 0 38.9386 0ZM47.5636 13.3615C46.1248 12.247 44.3644 11.64 42.5323 11.64C37.9903 11.64 34.2949 15.3352 34.2949 19.8773C34.2949 20.366 34.3397 20.8514 34.4257 21.33C38.4881 21.6417 42.1509 24.0731 44.0114 27.7001C45.1699 27.3408 46.3943 27.1498 47.6534 27.1523C47.5842 22.5916 47.5655 17.9918 47.5636 13.3615ZM35.6398 37.0936C35.7408 36.5684 35.8765 36.0591 36.0382 35.5643C33.2719 35.16 30.4181 36.0666 28.398 38.0866C25.8823 40.6024 25.1135 44.2999 26.3435 47.5631H38.5479C36.0811 44.7837 34.9015 40.9322 35.6398 37.0936ZM25.7714 35.7476C25.8185 35.6988 25.8642 35.6491 25.9123 35.6009C28.9999 32.5132 33.4856 31.2914 37.673 32.3034C38.5369 31.0805 39.6131 30.0373 40.8396 29.2151C39.3012 26.2987 36.0872 24.5112 32.7211 24.8522C28.2021 25.3085 24.8967 29.3562 25.3528 33.8752C25.4175 34.5164 25.5616 35.1438 25.7714 35.7476ZM47.7173 30.6677C43.5591 30.6314 39.903 33.5421 39.0923 37.7578C38.2957 41.8995 40.6263 46.0624 44.5348 47.5634H48.4352C48.0563 42.0091 47.8402 36.371 47.7176 30.6677H47.7173ZM75.2299 114.225C75.2299 114.225 75.2313 114.227 75.2323 114.227C76.6884 115.683 78.6239 116.484 80.6829 116.484C82.7428 116.484 84.6795 115.682 86.1361 114.226L114.226 86.1359C115.683 84.6792 116.485 82.7426 116.485 80.6827C116.485 78.6227 115.682 76.6863 114.225 75.2297L51.0776 12.0916C51.0776 12.1083 51.0788 12.1249 51.0788 12.1416V12.5484C51.0788 25.0137 51.1833 37.2584 52.0678 49.0741C52.0784 49.1484 52.0842 49.2244 52.0849 49.3015C52.5811 55.8532 53.3187 62.2716 54.4127 68.5223C57.9659 88.8209 64.7749 103.77 75.2297 114.225H75.2299ZM60.4165 99.4099C56.1382 90.9194 53.0062 80.8772 50.9498 69.1284C49.9186 63.2372 49.1991 57.2114 48.6982 51.079H12.1404C12.124 51.079 12.108 51.0778 12.0916 51.0778L60.4167 99.4099H60.4165ZM15.7317 47.5636H22.6596C21.9101 44.7082 22.2049 41.7012 23.4621 39.0661C22.583 37.5942 22.0282 35.9442 21.855 34.2288C21.2545 28.279 25.2253 22.9055 30.9082 21.5988C30.8241 21.0302 30.7793 20.4558 30.7793 19.8776C30.7793 19.3329 30.8196 18.7976 30.8918 18.2723C29.2896 16.9432 27.2934 16.219 25.1855 16.219C20.2472 16.219 16.2295 20.2369 16.2295 25.1752C16.2295 27.1453 16.8579 29.0147 18.0466 30.5815C18.3844 31.0268 18.4905 31.6064 18.3319 32.1424C18.1732 32.6784 17.7694 33.1071 17.2437 33.2972C14.0944 34.4355 11.9784 37.4508 11.9784 40.8007C11.9784 43.5577 13.4074 46.1093 15.7317 47.5636ZM10.5621 47.4164C9.22008 45.5109 8.46281 43.2101 8.46281 40.8005C8.46281 36.7015 10.6627 32.9496 14.1061 30.9077C13.1909 29.1483 12.7141 27.1995 12.7141 25.1752C12.7141 18.2984 18.3089 12.7036 25.1857 12.7034C27.6342 12.7034 29.9737 13.4067 31.9779 14.7136C33.893 10.8152 37.9038 8.12484 42.5325 8.12484C44.0709 8.12484 45.5728 8.42648 46.9673 8.99625C45.7078 5.79164 42.585 3.51609 38.9386 3.51609C19.4065 3.51609 3.51586 19.4067 3.51586 38.9388C3.51586 43.1552 6.55805 46.6725 10.5623 47.4164H10.5621ZM92.062 64.5321C92.7485 63.8456 93.8616 63.8456 94.5478 64.5321C95.2343 65.2186 95.2343 66.3316 94.5478 67.0179L71.6627 89.903C71.3196 90.2461 70.8696 90.4179 70.4198 90.4179C69.9701 90.4179 69.5201 90.2463 69.177 89.903C68.4905 89.2165 68.4905 88.1034 69.177 87.4172L92.062 64.5321ZM80.2828 52.7529C80.9693 52.0664 82.0823 52.0664 82.7686 52.7529C83.4551 53.4394 83.4551 54.5524 82.7686 55.2387L66.1362 71.8711C65.793 72.2142 65.343 72.386 64.8933 72.386C64.4435 72.386 63.9935 72.2145 63.6504 71.8711C62.9639 71.1846 62.9639 70.0716 63.6504 69.3853L80.2828 52.7529Z" fill="currentColor" stroke="currentColor" stroke-width="0.8" mask="url(#path-1-inside-1_1_949)"/>
</g>
<defs>
<clipPath id="clip0_1_949">
<rect width="120" height="120" fill="white" transform="matrix(-1 0 0 1 120 0)"/>
</clipPath>
</defs>
</svg>
