<svg width="20" height="20" viewBox="0 0 20 20" fill="none" xmlns="http://www.w3.org/2000/svg">
<mask id="mask0_1_15884" style="mask-type:alpha" maskUnits="userSpaceOnUse" x="0" y="0" width="20" height="20">
<rect width="20" height="20" fill="#D9D9D9"/>
</mask>
<g mask="url(#mask0_1_15884)">
<path d="M5.83398 18.3334C5.37565 18.3334 4.98329 18.1702 4.6569 17.8438C4.33051 17.5174 4.16732 17.1251 4.16732 16.6667C4.16732 16.2084 4.33051 15.8161 4.6569 15.4897C4.98329 15.1633 5.37565 15.0001 5.83398 15.0001C6.29232 15.0001 6.68468 15.1633 7.01107 15.4897C7.33746 15.8161 7.50065 16.2084 7.50065 16.6667C7.50065 17.1251 7.33746 17.5174 7.01107 17.8438C6.68468 18.1702 6.29232 18.3334 5.83398 18.3334ZM14.1673 18.3334C13.709 18.3334 13.3166 18.1702 12.9902 17.8438C12.6638 17.5174 12.5007 17.1251 12.5007 16.6667C12.5007 16.2084 12.6638 15.8161 12.9902 15.4897C13.3166 15.1633 13.709 15.0001 14.1673 15.0001C14.6257 15.0001 15.018 15.1633 15.3444 15.4897C15.6708 15.8161 15.834 16.2084 15.834 16.6667C15.834 17.1251 15.6708 17.5174 15.3444 17.8438C15.018 18.1702 14.6257 18.3334 14.1673 18.3334ZM5.12565 5.00008L7.12565 9.16675H12.959L15.2507 5.00008H5.12565ZM4.33398 3.33341H16.6257C16.9451 3.33341 17.1882 3.47578 17.3548 3.7605C17.5215 4.04522 17.5284 4.33341 17.3757 4.62508L14.4173 9.95841C14.2645 10.2362 14.0597 10.4515 13.8027 10.6042C13.5458 10.757 13.2645 10.8334 12.959 10.8334H6.75065L5.83398 12.5001H15.834V14.1667H5.83398C5.20898 14.1667 4.73676 13.8924 4.41732 13.3438C4.09787 12.7952 4.08398 12.2501 4.37565 11.7084L5.50065 9.66675L2.50065 3.33341H0.833984V1.66675H3.54232L4.33398 3.33341Z" fill="currentColor"/>
</g>
</svg>
