<svg width="120" height="120" viewBox="0 0 120 120" fill="none" xmlns="http://www.w3.org/2000/svg">
<g clip-path="url(#clip0_1_1019)">
<path d="M106.843 108.758C88.4806 123.747 31.1459 123.747 13.1585 108.758C-5.20364 93.7682 -3.32999 29.6882 13.1585 12.8251C29.6469 -4.03805 90.3543 -4.03805 106.843 12.8251C123.331 29.6882 125.205 93.7685 106.843 108.758Z" fill="#8DC640"/>
<g opacity="0.2">
<path d="M60.3734 82.5263C43.8849 95.6422 25.5228 102.387 8.285 102.762C-4.45616 81.0273 -1.83289 28.1896 13.1566 12.8254C26.6471 -1.03981 68.9923 -3.66308 93.3504 4.95583C99.346 29.6885 86.9798 61.1662 60.3734 82.5263Z" fill="white"/>
</g>
<path d="M51.381 93.3936C48.7577 93.3936 46.1347 92.2693 44.6357 90.021L23.6506 63.04C20.6527 59.2927 21.4023 54.0464 25.1496 51.0484C28.8969 48.0505 34.1432 48.8001 37.1411 52.5474L51.381 70.9095L82.859 30.0633C85.8569 26.316 91.1032 25.5664 94.8505 28.5643C98.5978 31.5623 99.3474 36.8085 96.3495 40.5559L58.1263 90.021C56.2526 91.8947 54.0043 93.3936 51.381 93.3936Z" fill="white"/>
</g>
<defs>
<clipPath id="clip0_1_1019">
<rect width="120" height="120" fill="white"/>
</clipPath>
</defs>
</svg>
