<svg width="18" height="19" viewBox="0 0 18 19" fill="none" xmlns="http://www.w3.org/2000/svg">
<g clip-path="url(#clip0_1_7695)">
<path d="M8.28205 1.34976C7.62252 1.8423 5.33349 3.97171 4.29463 5.06507C3.23009 6.13277 1.16502 8.49175 0.682321 9.16851C-0.123108 10.2696 -0.240882 12.0148 0.488259 13.1777C0.935095 13.8745 1.59216 14.7784 2.65705 15.8475C3.7258 16.9124 4.63002 17.5694 5.32681 18.0163C6.49013 18.7451 8.23494 18.6273 9.33603 17.8222C10.0128 17.3392 12.3718 15.2744 13.4395 14.2099C14.5328 13.171 16.6622 10.882 17.1548 10.2225C17.6772 9.57175 17.796 8.39507 17.796 8.39507C17.8561 7.70214 17.9135 6.78069 17.9592 5.57589C18.0108 4.22589 18.0147 3.25769 17.9869 2.563C17.9469 1.39968 17.1052 0.557687 15.9419 0.51796C15.2472 0.490187 14.2786 0.494054 12.929 0.545734C11.7242 0.591437 10.8028 0.648742 10.1098 0.708859C10.1098 0.708859 8.94826 0.819601 8.2824 1.35011L8.28205 1.34976Z" fill="#FFC935"/>
<path d="M17.256 1.0005C16.9087 0.710114 16.4569 0.535036 15.9415 0.517106C15.2468 0.489333 14.2783 0.4932 12.9286 0.544879C11.7238 0.590583 10.8024 0.647887 10.1095 0.708004C10.1095 0.708004 8.94789 0.818747 8.28203 1.34925C7.6225 1.84179 5.33348 3.97121 4.29461 5.06457C3.2923 6.06968 1.40406 8.21879 0.783203 9.03195C1.78199 10.0118 3.00789 10.7915 4.41906 11.2777C9.49738 13.0285 15.0331 10.3313 16.7842 5.253C17.2711 3.84043 17.4132 2.39234 17.2564 1.00015L17.256 1.0005Z" fill="#FFD86B"/>
<path d="M15.5238 2.87011C15.1016 2.49781 14.4568 2.49781 14.0346 2.87011C13.5223 3.32152 13.5223 4.1157 14.0346 4.56675C14.4568 4.93905 15.1016 4.93905 15.5238 4.56675C16.036 4.11534 16.036 3.32116 15.5238 2.87011Z" fill="white"/>
<path d="M8.01075 5.77262C7.89333 5.22805 7.2134 4.99145 6.84602 5.35848C6.84602 5.35848 6.6045 5.58313 6.67797 5.95438C7.27879 8.69727 7.8325 11.5006 8.43157 14.1426C8.51313 14.5026 8.88332 14.748 9.25844 14.6963C9.63356 14.6443 9.86875 14.3159 9.78438 13.9556C9.17125 11.3073 8.61051 8.50567 8.01075 5.77262Z" fill="white"/>
<path d="M13.397 8.28274C12.9656 7.84117 12.4492 7.61371 11.8449 7.5993C11.2426 7.58313 10.735 7.78246 10.3293 8.18817C9.92356 8.59387 9.7288 9.10153 9.74075 9.70481C9.75271 10.3081 9.98087 10.8263 10.4238 11.2626C10.8717 11.7038 11.3973 11.9327 11.9922 11.952C12.587 11.971 13.0862 11.7825 13.4895 11.3775C13.899 10.9662 14.0938 10.4621 14.0804 9.86477C14.0667 9.26746 13.8428 8.73836 13.397 8.28239V8.28274ZM12.548 10.4122C12.3898 10.5711 12.2024 10.64 11.9883 10.6263C11.7721 10.6101 11.5696 10.5088 11.3773 10.3172C11.1969 10.1376 11.1024 9.93824 11.0915 9.72168C11.0781 9.50266 11.1505 9.31668 11.3038 9.16305C11.4546 9.01188 11.6409 8.94403 11.8568 8.95492C12.073 8.97039 12.2692 9.06742 12.446 9.24602C12.6299 9.43164 12.7304 9.63485 12.7484 9.85422C12.7663 10.0739 12.6999 10.2596 12.548 10.4118V10.4122Z" fill="white"/>
<path d="M6.11707 9.05585C5.68782 8.61393 5.1784 8.3819 4.5934 8.36257C4.01051 8.34112 3.53028 8.53448 3.14286 8.94686C2.75754 9.35643 2.57122 9.87464 2.57227 10.4916C2.57403 11.1083 2.77477 11.6381 3.18575 12.0782C3.60094 12.5233 4.10016 12.7466 4.682 12.7553C5.26383 12.7638 5.76411 12.5609 6.1786 12.1507C6.59766 11.7316 6.80332 11.2267 6.79489 10.6319C6.7868 10.0371 6.5604 9.51218 6.11707 9.0562V9.05585ZM5.25504 11.1965C5.09649 11.3579 4.91122 11.4292 4.70274 11.4176C4.4918 11.4036 4.29739 11.3034 4.11493 11.1104C3.94372 10.9293 3.85618 10.7279 3.84879 10.5082C3.83895 10.286 3.91067 10.0972 4.05938 9.94179C4.20844 9.7864 4.38598 9.71573 4.59551 9.73155C4.80539 9.74737 4.99629 9.84511 5.16821 10.0241C5.34715 10.2104 5.44454 10.4132 5.46 10.6337C5.47547 10.8541 5.40692 11.0411 5.25504 11.1958V11.1965Z" fill="white"/>
</g>
<defs>
<clipPath id="clip0_1_7695">
<rect width="18" height="18" fill="white" transform="translate(0 0.5)"/>
</clipPath>
</defs>
</svg>
