<svg width="22" height="22" viewBox="0 0 22 22" fill="none" xmlns="http://www.w3.org/2000/svg">
<mask id="mask0_1_8286" style="mask-type:alpha" maskUnits="userSpaceOnUse" x="0" y="0" width="22" height="22">
<rect width="22" height="22" fill="#D9D9D9"/>
</mask>
<g mask="url(#mask0_1_8286)">
<path d="M11.0007 20.1667C9.38121 20.1667 8.05968 19.9108 7.03607 19.399C6.01246 18.8872 5.50065 18.2264 5.50065 17.4167C5.50065 17.1264 5.56558 16.8591 5.69544 16.6146C5.8253 16.3702 6.0201 16.141 6.27982 15.9271C6.49371 15.7743 6.72669 15.7132 6.97878 15.7438C7.23086 15.7743 7.43329 15.8966 7.58607 16.1105C7.73885 16.3243 7.79614 16.5573 7.75794 16.8094C7.71975 17.0615 7.59371 17.2639 7.37982 17.4167C7.57843 17.6612 8.03676 17.875 8.75482 18.0584C9.47287 18.2417 10.2215 18.3334 11.0007 18.3334C11.7798 18.3334 12.5284 18.2417 13.2465 18.0584C13.9645 17.875 14.4229 17.6612 14.6215 17.4167C14.4076 17.2639 14.2816 17.0615 14.2434 16.8094C14.2052 16.5573 14.2625 16.3243 14.4152 16.1105C14.568 15.8966 14.7704 15.7743 15.0225 15.7438C15.2746 15.7132 15.5076 15.7743 15.7215 15.9271C15.9812 16.141 16.176 16.3702 16.3059 16.6146C16.4357 16.8591 16.5007 17.1264 16.5007 17.4167C16.5007 18.2264 15.9888 18.8872 14.9652 19.399C13.9416 19.9108 12.6201 20.1667 11.0007 20.1667ZM11.0236 15.125C12.5361 14.0098 13.6743 12.8907 14.4382 11.7677C15.202 10.6448 15.584 9.5181 15.584 8.38754C15.584 6.82921 15.0875 5.65282 14.0944 4.85837C13.1013 4.06393 12.0701 3.66671 11.0007 3.66671C9.93121 3.66671 8.89996 4.06393 7.9069 4.85837C6.91385 5.65282 6.41732 6.82921 6.41732 8.38754C6.41732 9.41115 6.79162 10.4768 7.54023 11.5844C8.28885 12.6921 9.44996 13.8723 11.0236 15.125ZM11.0007 16.9813C10.8173 16.9813 10.634 16.9507 10.4507 16.8896C10.2673 16.8285 10.0993 16.7368 9.94648 16.6146C8.14371 15.1785 6.79926 13.7768 5.91315 12.4094C5.02704 11.0421 4.58398 9.70143 4.58398 8.38754C4.58398 7.30282 4.77878 6.35178 5.16836 5.53442C5.55794 4.71705 6.05829 4.03337 6.6694 3.48337C7.28051 2.93337 7.96801 2.52087 8.7319 2.24587C9.49579 1.97087 10.252 1.83337 11.0007 1.83337C11.7493 1.83337 12.5055 1.97087 13.2694 2.24587C14.0333 2.52087 14.7208 2.93337 15.3319 3.48337C15.943 4.03337 16.4434 4.71705 16.8329 5.53442C17.2225 6.35178 17.4173 7.30282 17.4173 8.38754C17.4173 9.70143 16.9743 11.0421 16.0882 12.4094C15.202 13.7768 13.8576 15.1785 12.0548 16.6146C11.902 16.7368 11.734 16.8285 11.5507 16.8896C11.3673 16.9507 11.184 16.9813 11.0007 16.9813ZM11.0007 10.0834C11.5048 10.0834 11.9364 9.90386 12.2954 9.54483C12.6545 9.1858 12.834 8.75421 12.834 8.25004C12.834 7.74587 12.6545 7.31428 12.2954 6.95525C11.9364 6.59622 11.5048 6.41671 11.0007 6.41671C10.4965 6.41671 10.0649 6.59622 9.70586 6.95525C9.34683 7.31428 9.16732 7.74587 9.16732 8.25004C9.16732 8.75421 9.34683 9.1858 9.70586 9.54483C10.0649 9.90386 10.4965 10.0834 11.0007 10.0834Z" fill="currentColor"/>
</g>
</svg>
