<svg width="120" height="120" viewBox="0 0 120 120" fill="none" xmlns="http://www.w3.org/2000/svg">
<g clip-path="url(#clip0_1_5261)">
<mask id="path-1-inside-1_1_5261" fill="currentColor">
<path d="M117.958 94.1813L116.246 80.4862L114.375 1.83187L114.328 1.83375C114.319 1.43625 114.229 1.0425 113.977 0.72375C113.623 0.26625 113.077 0 112.5 0H37.5C36.6394 0 35.8894 0.586875 35.6813 1.42125L31.9313 16.4213C31.7906 16.9819 31.9181 17.5744 32.2725 18.0281C32.5988 18.4462 33.09 18.6787 33.615 18.7181L31.215 52.5H8.475C6.7725 52.5 5.2725 53.6381 4.83187 55.2619L0.148125 72.1219C-0.1725 73.2469 0.04875 74.4281 0.7575 75.3675C1.47938 76.3256 2.58375 76.875 3.7875 76.875H3.91312L5.4525 93.75H3.75C1.68187 93.75 0 95.4319 0 97.5V116.25C0 118.318 1.68187 120 3.75 120H116.25C118.318 120 120 118.318 120 116.25V97.5C120 96.0506 119.166 94.8056 117.958 94.1813ZM110.957 15.7819L112.5 80.6681C112.5 80.7319 112.506 80.7938 112.513 80.8575L114.126 93.75H103.372L104.996 80.7356L108.643 18.75H108.75C109.611 18.75 110.361 18.1631 110.569 17.3287L110.957 15.7819ZM107.286 15H80.625V3.75H110.098L107.286 15ZM65.625 3.75H76.875V19.4662L75.8381 18.9487C75.3112 18.6844 74.6887 18.6844 74.16 18.9487L71.25 20.4037L68.3381 18.9487C67.8112 18.6844 67.1887 18.6844 66.66 18.9487L65.625 19.4662V3.75ZM37.3725 18.75H58.125C59.16 18.75 60 17.9119 60 16.875C60 15.8381 59.16 15 58.125 15H36.1519L38.9644 3.75H61.875V22.5C61.875 23.1506 62.2125 23.7525 62.7637 24.0956C63.3169 24.4387 64.0088 24.4669 64.5881 24.1781L67.5 22.7213L70.4119 24.1763C70.9388 24.4406 71.5613 24.4406 72.09 24.1763L75 22.7213L77.9119 24.1763C78.1763 24.3094 78.4631 24.375 78.75 24.375C79.0931 24.375 79.4344 24.2812 79.7363 24.0956C80.2875 23.7525 80.625 23.1506 80.625 22.5V18.75H104.887L101.265 80.3925L99.5944 93.75H58.2994L59.8387 76.875H59.9644C61.1681 76.875 62.2725 76.3256 62.9963 75.3675C63.7031 74.4281 63.9263 73.245 63.6094 72.135L58.9238 55.2694C58.4775 53.6381 56.9775 52.5 55.275 52.5H34.9762L37.3725 18.75ZM8.475 56.25L55.3069 56.265L59.9625 73.125H39.375H24.375H5.625L3.75563 73.14L8.475 56.25ZM26.25 76.875H37.5V80.625H26.25V76.875ZM22.5 76.875V80.625C22.5 82.6931 24.1819 84.375 26.25 84.375H37.5C39.5681 84.375 41.25 82.6931 41.25 80.625V76.875H56.0531L54.375 93.75L9.2175 93.7481L7.68 76.875H22.5ZM116.25 116.25H3.75V97.5H9.20625H54.5438H69.375V105H50.625V101.25C50.625 100.213 49.785 99.375 48.75 99.375C47.715 99.375 46.875 100.213 46.875 101.25V105C46.875 107.068 48.5569 108.75 50.625 108.75H69.375C71.4431 108.75 73.125 107.068 73.125 105V97.5H116.25V116.25Z"/>
</mask>
<path d="M117.958 94.1813L116.246 80.4862L114.375 1.83187L114.328 1.83375C114.319 1.43625 114.229 1.0425 113.977 0.72375C113.623 0.26625 113.077 0 112.5 0H37.5C36.6394 0 35.8894 0.586875 35.6813 1.42125L31.9313 16.4213C31.7906 16.9819 31.9181 17.5744 32.2725 18.0281C32.5988 18.4462 33.09 18.6787 33.615 18.7181L31.215 52.5H8.475C6.7725 52.5 5.2725 53.6381 4.83187 55.2619L0.148125 72.1219C-0.1725 73.2469 0.04875 74.4281 0.7575 75.3675C1.47938 76.3256 2.58375 76.875 3.7875 76.875H3.91312L5.4525 93.75H3.75C1.68187 93.75 0 95.4319 0 97.5V116.25C0 118.318 1.68187 120 3.75 120H116.25C118.318 120 120 118.318 120 116.25V97.5C120 96.0506 119.166 94.8056 117.958 94.1813ZM110.957 15.7819L112.5 80.6681C112.5 80.7319 112.506 80.7938 112.513 80.8575L114.126 93.75H103.372L104.996 80.7356L108.643 18.75H108.75C109.611 18.75 110.361 18.1631 110.569 17.3287L110.957 15.7819ZM107.286 15H80.625V3.75H110.098L107.286 15ZM65.625 3.75H76.875V19.4662L75.8381 18.9487C75.3112 18.6844 74.6887 18.6844 74.16 18.9487L71.25 20.4037L68.3381 18.9487C67.8112 18.6844 67.1887 18.6844 66.66 18.9487L65.625 19.4662V3.75ZM37.3725 18.75H58.125C59.16 18.75 60 17.9119 60 16.875C60 15.8381 59.16 15 58.125 15H36.1519L38.9644 3.75H61.875V22.5C61.875 23.1506 62.2125 23.7525 62.7637 24.0956C63.3169 24.4387 64.0088 24.4669 64.5881 24.1781L67.5 22.7213L70.4119 24.1763C70.9388 24.4406 71.5613 24.4406 72.09 24.1763L75 22.7213L77.9119 24.1763C78.1763 24.3094 78.4631 24.375 78.75 24.375C79.0931 24.375 79.4344 24.2812 79.7363 24.0956C80.2875 23.7525 80.625 23.1506 80.625 22.5V18.75H104.887L101.265 80.3925L99.5944 93.75H58.2994L59.8387 76.875H59.9644C61.1681 76.875 62.2725 76.3256 62.9963 75.3675C63.7031 74.4281 63.9263 73.245 63.6094 72.135L58.9238 55.2694C58.4775 53.6381 56.9775 52.5 55.275 52.5H34.9762L37.3725 18.75ZM8.475 56.25L55.3069 56.265L59.9625 73.125H39.375H24.375H5.625L3.75563 73.14L8.475 56.25ZM26.25 76.875H37.5V80.625H26.25V76.875ZM22.5 76.875V80.625C22.5 82.6931 24.1819 84.375 26.25 84.375H37.5C39.5681 84.375 41.25 82.6931 41.25 80.625V76.875H56.0531L54.375 93.75L9.2175 93.7481L7.68 76.875H22.5ZM116.25 116.25H3.75V97.5H9.20625H54.5438H69.375V105H50.625V101.25C50.625 100.213 49.785 99.375 48.75 99.375C47.715 99.375 46.875 100.213 46.875 101.25V105C46.875 107.068 48.5569 108.75 50.625 108.75H69.375C71.4431 108.75 73.125 107.068 73.125 105V97.5H116.25V116.25Z" fill="#D3D3DD" stroke="currentColor" stroke-width="1.4" mask="url(#path-1-inside-1_1_5261)"/>
</g>
<defs>
<clipPath id="clip0_1_5261">
<rect width="120" height="120" fill="currentColor"/>
</clipPath>
</defs>
</svg>
