<svg width="120" height="120" viewBox="0 0 120 120" fill="none" xmlns="http://www.w3.org/2000/svg">
<g clip-path="url(#clip0_1_7323)">
<path d="M59.9999 120C93.1367 120 120 93.1369 120 59.9996C120 26.8628 93.1369 0 59.9999 0C26.8628 0 0 26.8628 0 60.0001C0 93.1374 26.8628 120 59.9999 120Z" fill="#FF6465"/>
<path opacity="0.1" d="M16.1418 60.0001C16.1418 29.6003 38.751 4.48476 68.0708 0.542108C65.4306 0.187031 62.7374 0 59.9999 0C26.8628 0 0 26.8628 0 60.0001C0 93.1374 26.8628 120 59.9996 120C62.7371 120 65.4303 119.813 68.0706 119.458C38.751 115.515 16.1418 90.3994 16.1418 60.0001Z" fill="black"/>
<path d="M73.4497 59.9999L89.246 44.2035C90.3942 43.0553 90.3942 41.1937 89.246 40.0457L79.9531 30.7528C78.8049 29.6046 76.9432 29.6046 75.7953 30.7528L59.9989 46.5491L44.2025 30.7528C43.0543 29.6046 41.1927 29.6046 40.0447 30.7528L30.7518 40.0457C29.6036 41.1939 29.6036 43.0555 30.7518 44.2035L46.5482 59.9999L30.7518 75.7963C29.6036 76.9445 29.6036 78.8061 30.7518 79.9543L40.0447 89.2473C41.1929 90.3955 43.0546 90.3955 44.2025 89.2473L59.9989 73.4509L75.7955 89.2473C76.9437 90.3955 78.8054 90.3955 79.9533 89.2473L89.2463 79.9543C90.3945 78.8061 90.3945 76.9445 89.2463 75.7963L73.4497 59.9999Z" fill="white"/>
</g>
<defs>
<clipPath id="clip0_1_7323">
<rect width="120" height="120" fill="white"/>
</clipPath>
</defs>
</svg>
