<svg width="24" height="24" viewBox="0 0 24 24" fill="none" xmlns="http://www.w3.org/2000/svg">
<mask id="mask0_1_7665" style="mask-type:alpha" maskUnits="userSpaceOnUse" x="0" y="0" width="24" height="24">
<rect width="24" height="24" fill="#D9D9D9"/>
</mask>
<g mask="url(#mask0_1_7665)">
<path d="M12 20.325C11.7667 20.325 11.5292 20.2833 11.2875 20.2C11.0458 20.1167 10.8333 19.9833 10.65 19.8L8.925 18.225C7.15833 16.6083 5.5625 15.0042 4.1375 13.4125C2.7125 11.8208 2 10.0667 2 8.15C2 6.58334 2.525 5.275 3.575 4.225C4.625 3.175 5.93333 2.65 7.5 2.65C8.38333 2.65 9.21667 2.8375 10 3.2125C10.7833 3.5875 11.45 4.1 12 4.75C12.55 4.1 13.2167 3.5875 14 3.2125C14.7833 2.8375 15.6167 2.65 16.5 2.65C18.0667 2.65 19.375 3.175 20.425 4.225C21.475 5.275 22 6.58334 22 8.15C22 10.0667 21.2917 11.825 19.875 13.425C18.4583 15.025 16.85 16.6333 15.05 18.25L13.35 19.8C13.1667 19.9833 12.9542 20.1167 12.7125 20.2C12.4708 20.2833 12.2333 20.325 12 20.325Z" fill="currentColor"/>
</g>
</svg>
