<svg width="113" height="120" viewBox="0 0 113 120" fill="none" xmlns="http://www.w3.org/2000/svg">
<g clip-path="url(#clip0_1_970)">
<path d="M48.7447 85.5864C44.5384 76.3143 48.7853 65.4023 58.2143 61.2639C67.6441 57.1252 78.7365 61.3048 82.9427 70.5769C87.149 79.8489 82.9029 90.7606 73.4731 94.8993C64.044 99.0377 52.9509 94.8584 48.7447 85.5864ZM51.5714 84.3457C55.0837 92.0881 64.3437 95.5746 72.2127 92.121C80.0824 88.6669 83.6291 79.5595 80.1168 71.8172C76.6045 64.0748 67.3445 60.5883 59.4747 64.0423C51.6058 67.4959 48.059 76.6033 51.5714 84.3457Z" fill="currentColor" stroke="currentColor" stroke-width="0.2"/>
<mask id="path-2-inside-1_1_970" fill="white">
<path d="M84.4676 23.9515L84.35 24.0031L80.3672 6.14501C80.0741 4.82964 79.2612 3.70079 78.1373 3.04864C77.0843 2.43659 75.8622 2.28699 74.6975 2.62624L68.5596 4.41512C68.0979 4.54934 67.6714 4.75688 67.2866 5.01914L67.1448 4.57198C66.7329 3.27454 65.8145 2.2031 64.625 1.63428C63.5108 1.10084 62.2663 1.04247 61.1202 1.47059L56.7194 3.11276C56.3166 1.85199 55.442 0.79 54.2994 0.185799C53.2004 -0.394982 51.9551 -0.514979 50.7939 -0.151386L44.5148 1.81316C43.354 2.17564 42.4028 2.98141 41.8357 4.08081C41.2245 5.26522 41.1285 6.69035 41.571 7.99101L43.5431 13.7761C43.3034 13.6289 43.0513 13.502 42.7877 13.3995C41.6302 12.9488 40.3802 12.9696 39.2672 13.4581L33.3314 16.0633C32.5421 16.4097 31.8894 16.9662 31.4204 17.6684L29.0175 13.5008C28.3296 12.3078 27.1864 11.4265 25.882 11.0829C24.6722 10.7634 23.4283 10.922 22.3768 11.5295L16.6965 14.814C15.6458 15.4212 14.9049 16.4129 14.6103 17.6053C14.3043 18.8453 14.5237 20.1949 15.2086 21.3318L11.0267 23.4566C9.93813 24.0093 9.15026 24.9597 8.8097 26.1316C8.44565 27.3823 8.64294 28.7702 9.34955 29.9383L9.59356 30.3415C9.13811 30.448 8.69661 30.6205 8.28591 30.8692L2.8328 34.1676C1.79817 34.7937 1.09594 35.7878 0.854918 36.9678C0.597717 38.2261 0.908943 39.5752 1.70842 40.6683L12.5606 55.5114L12.443 55.563C11.4342 56.0058 10.6799 56.8582 10.3739 57.9032C10.0678 58.9481 10.2457 60.0654 10.8608 60.9676L49.3662 117.483C50.3826 118.974 52.329 119.525 53.9954 118.794L104.558 96.6015C106.225 95.8701 107.108 94.0773 106.658 92.3379L89.6145 26.4027C89.3426 25.3498 88.6153 24.4736 87.621 23.9994C86.6259 23.5256 85.4771 23.5084 84.4676 23.9515ZM68.5156 8.88852C68.5638 8.2387 68.9546 7.6789 69.4968 7.52322L75.6344 5.73357C75.9898 5.63028 76.2802 5.73392 76.4618 5.84003C76.8 6.03644 77.0507 6.40064 77.1483 6.83946L81.2771 25.3508L79.077 26.3165L75.3789 14.2926C75.007 13.0811 74.1516 12.0782 73.0329 11.5411C71.9437 11.0171 70.716 10.967 69.5775 11.3992L69.3402 11.4895L68.5156 8.88852ZM68.8883 15.1361L70.7652 14.4233C71.1157 14.2907 71.4059 14.3667 71.5872 14.4536C71.8888 14.5985 72.1147 14.8747 72.2244 15.2305L76.0432 27.649L69.0124 30.7348L67.7058 25.7041C67.4354 24.6626 66.7979 23.7794 65.904 23.1807L64.1921 18.4601C64.0255 18.0017 64.097 17.5025 64.3403 17.1294C64.4863 16.9064 64.6941 16.7283 64.9496 16.6328L68.8859 15.1372L68.8883 15.1361ZM56.1458 6.79797C56.1658 6.79014 56.1847 6.78 56.2057 6.7726L56.2065 6.77225L62.29 4.50069C62.6584 4.36394 62.9799 4.45117 63.1838 4.54842C63.56 4.72908 63.857 5.08962 63.9991 5.53755L65.2911 9.60579C65.2911 9.60579 65.2906 9.6069 65.291 9.60767L66.2599 12.6593L63.762 13.6087C61.4192 14.4983 60.2216 17.1622 61.0873 19.5491L62.187 22.5823L60.6803 22.9819L55.4341 8.86501C55.1219 8.02764 55.4513 7.09634 56.1458 6.79797ZM64.5124 26.5066L66.001 32.2367C65.1553 32.9666 64.6806 34.0458 64.7433 35.2053C64.9336 38.7327 64.0538 42.2048 62.1988 45.2469C61.9998 45.5727 61.7897 45.8887 61.5715 46.1989L56.503 28.6306C56.4181 28.3378 56.4556 28.0311 56.6084 27.7671C56.7605 27.5016 57.0087 27.3132 57.3073 27.2339L60.0548 26.505C60.0556 26.5047 60.0572 26.504 60.0591 26.5041L63.1028 25.697C63.4014 25.6177 63.7131 25.6584 63.9802 25.812C64.2473 25.9657 64.4361 26.2119 64.5124 26.5066ZM56.8734 42.6818L44.6958 6.96067C44.5322 6.4778 44.5602 5.96353 44.7747 5.54765C44.8908 5.3229 45.1146 5.02684 45.514 4.9024L51.7935 2.93674C52.1828 2.81488 52.5229 2.92633 52.7383 3.04071C53.1425 3.25434 53.4547 3.65445 53.5936 4.1389L53.7027 4.51814C53.6811 4.53685 53.661 4.55677 53.6394 4.57549C53.6126 4.59927 53.5862 4.62383 53.5605 4.64804C53.4808 4.72093 53.4032 4.79656 53.3298 4.87501C53.3105 4.89458 53.2915 4.91493 53.2729 4.93604C53.1303 5.092 52.9992 5.25677 52.8796 5.43036C52.8686 5.44537 52.8587 5.46082 52.848 5.4766C52.7747 5.58643 52.7047 5.69942 52.6407 5.81532C52.6349 5.82528 52.6287 5.83446 52.6233 5.84518C52.5886 5.90755 52.5562 5.97077 52.5249 6.03442C52.5181 6.04849 52.5114 6.06255 52.5046 6.07662C52.4516 6.18771 52.4028 6.29972 52.3581 6.41457C52.3468 6.44356 52.3359 6.47143 52.325 6.50119C52.3031 6.56071 52.2808 6.62135 52.2616 6.68249C52.2401 6.74922 52.2198 6.81636 52.2015 6.88359C52.184 6.94671 52.1682 7.00913 52.1527 7.07233C52.1417 7.12061 52.1318 7.16931 52.1212 7.21836C52.1084 7.28129 52.0963 7.34577 52.0853 7.41068C52.0736 7.48424 52.063 7.55823 52.0543 7.63231C52.0488 7.67817 52.044 7.7237 52.0404 7.76965C52.0329 7.85246 52.0273 7.93536 52.0239 8.01911C52.0229 8.05837 52.0215 8.09875 52.0217 8.13844C52.0202 8.22227 52.021 8.30696 52.0238 8.39174C52.0253 8.42619 52.0265 8.45988 52.028 8.49434C52.0341 8.5989 52.0432 8.70398 52.0551 8.8088C52.0582 8.83425 52.0624 8.86013 52.0666 8.88601C52.0789 8.9814 52.095 9.07696 52.1133 9.17336C52.1178 9.19359 52.1207 9.2145 52.1255 9.23549C52.1483 9.34569 52.1756 9.45572 52.2057 9.56548C52.213 9.58998 52.22 9.6156 52.2273 9.64011C52.2607 9.75304 52.2971 9.86648 52.3386 9.97863L57.4865 23.829L56.449 24.105C55.2923 24.4102 54.3305 25.1448 53.7406 26.1692C53.1503 27.1946 53.0054 28.3833 53.3324 29.5165L57.6708 44.5514L56.8734 42.6818ZM34.0295 19.7238C34.1142 19.4962 34.2951 19.1903 34.6744 19.0238L40.6102 16.4186C40.9896 16.2521 41.3437 16.3241 41.5744 16.4142C41.9785 16.5715 42.3147 16.9065 42.497 17.3331L53.5196 43.1969L47.915 32.3943C47.3306 31.2678 46.3549 30.4138 45.1678 29.9891C43.9372 29.5493 42.6373 29.6196 41.5034 30.1904L39.1439 31.3767L38.2116 29.4562L34.1131 21.0082C33.9105 20.5905 33.8803 20.1221 34.0295 19.7238ZM43.0034 33.0764C43.4195 32.8707 43.8327 32.9611 44.0414 33.0359C44.4427 33.1787 44.7761 33.4743 44.9798 33.8675L54.4499 52.122C54.344 52.1703 54.2384 52.2213 54.131 52.2685C51.5915 53.3831 48.8709 53.8976 46.1399 53.7927L36.8615 37.8586C36.6374 37.4744 36.5752 37.0348 36.6906 36.6532C36.7568 36.4365 36.9091 36.1404 37.2641 35.9615L43.0034 33.0764ZM17.8131 18.3693C17.8709 18.1341 18.014 17.8115 18.3662 17.6079L24.0469 14.3243C24.4094 14.1143 24.7813 14.1489 25.0297 14.2137C25.4869 14.3348 25.8955 14.6574 26.1508 15.1001L35.2618 30.9034L36.2082 32.8528L35.764 33.0755C34.6768 33.6229 33.8843 34.5652 33.5318 35.7294C33.1611 36.9571 33.3319 38.3197 34.0012 39.4699L38.4929 47.1833L34.6295 43.602L23.3297 22.7106C23.2725 22.6054 23.2113 22.5037 23.1482 22.4038C23.1342 22.3813 23.1198 22.3599 23.1058 22.3374C23.0428 22.2421 22.9779 22.1486 22.9093 22.0575C22.8977 22.0423 22.885 22.0266 22.8733 22.0114C22.8116 21.9312 22.7486 21.8545 22.6832 21.7787C22.6678 21.7614 22.6518 21.7426 22.6364 21.7253C22.5636 21.6435 22.4887 21.5654 22.411 21.4895C22.3904 21.469 22.369 21.4488 22.3477 21.4286C22.278 21.3621 22.2067 21.2981 22.1346 21.2364C22.1205 21.2241 22.1073 21.2115 22.0931 21.201C22.0124 21.1329 21.9292 21.0696 21.8451 21.0085C21.8179 20.9881 21.79 20.968 21.7621 20.9479C21.6783 20.8894 21.5932 20.8325 21.5072 20.7796C21.4836 20.765 21.4597 20.7515 21.4353 20.7372C21.3642 20.6945 21.2923 20.6539 21.2195 20.6156C21.1894 20.5992 21.1587 20.5831 21.129 20.5675C21.04 20.5225 20.9504 20.4804 20.8592 20.4409C20.8287 20.4275 20.7977 20.4152 20.7664 20.4022C20.6879 20.37 20.6105 20.3402 20.5314 20.313C20.5076 20.304 20.4838 20.2951 20.4592 20.2865C20.3627 20.2539 20.266 20.2252 20.1673 20.1982C20.1373 20.1902 20.1077 20.1828 20.0769 20.1751C19.9758 20.1492 19.8735 20.1266 19.7714 20.1067C19.7584 20.105 19.7454 20.1033 19.7332 20.1012C19.6341 20.0837 19.5345 20.0692 19.4347 20.0585C19.4137 20.0557 19.393 20.0537 19.3724 20.0516C19.2626 20.0397 19.1523 20.0327 19.0418 20.0294C19.0292 20.0285 19.0161 20.0287 19.0038 20.0285C18.889 20.0262 18.7745 20.0265 18.6597 20.0325C18.6594 20.0317 18.6586 20.0321 18.6578 20.0324C18.5392 20.0383 18.42 20.049 18.301 20.0642C18.2967 20.0652 18.2929 20.065 18.2891 20.0649L18.0728 19.729C17.7998 19.3034 17.7048 18.8079 17.8131 18.3693ZM11.9781 27.0226C12.0407 26.8084 12.1883 26.5143 12.5393 26.3371L18.3237 23.3981L18.3276 23.3964C18.3347 23.3933 18.3429 23.3906 18.3496 23.3867C19.0456 23.0563 19.9881 23.433 20.4203 24.2325L27.144 36.6628L25.5982 35.2298C24.6629 34.3636 23.4519 33.8819 22.1877 33.8756C22.031 33.8741 21.8758 33.8821 21.7219 33.8951C21.713 33.8962 21.7038 33.8966 21.6946 33.8969C21.5468 33.911 21.4025 33.9327 21.2584 33.959C21.2448 33.9621 21.2297 33.9641 21.2158 33.9666C21.0759 33.9938 20.9395 34.0287 20.804 34.0678C20.7873 34.0724 20.7698 34.0773 20.7534 34.0826C20.6213 34.123 20.4909 34.1691 20.3641 34.2211C20.3461 34.229 20.3285 34.2358 20.3109 34.2426C20.2898 34.2519 20.2679 34.2596 20.2475 34.2686C20.1809 34.2978 20.1178 34.3329 20.0526 34.3652C19.9976 34.3931 19.9407 34.4189 19.8864 34.4483C19.8052 34.4932 19.7277 34.5439 19.6486 34.5934C19.5999 34.6249 19.5487 34.6529 19.5008 34.686C19.4174 34.7448 19.3374 34.8086 19.2565 34.8727C19.2186 34.9032 19.1786 34.9309 19.1403 34.9625C19.0245 35.0615 18.913 35.1659 18.8066 35.2773L17.3415 36.8087L16.0388 34.6561L12.1815 28.2812C11.938 27.8768 11.8635 27.4186 11.9781 27.0226ZM16.7892 42.1154L17.5139 41.3572L18.2429 40.5963L18.2437 40.5959L21.207 37.4982C21.5274 37.1644 21.9479 37.1157 22.17 37.1162C22.5971 37.1192 23.0115 37.2868 23.3384 37.5889L38.8455 51.9633C37.112 51.1193 35.5221 50.0033 34.1338 48.6398C33.0234 47.5491 31.3851 47.2484 29.9601 47.8739L24.482 50.2782L17.0591 44.0344C16.717 43.7464 16.5079 43.3537 16.4861 42.9556C16.4807 42.8711 16.4843 42.7715 16.5041 42.6657C16.5377 42.4892 16.6183 42.2939 16.7892 42.1154ZM4.38459 38.7754C4.11772 38.4109 4.00884 37.9844 4.08609 37.6057C4.12823 37.4023 4.24345 37.1197 4.55934 36.9293L10.0124 33.6309C10.4922 33.3417 11.1765 33.4269 11.7012 33.8252L13.225 36.3431L14.9917 39.2637L14.3895 39.8941C13.5524 40.769 13.1283 41.9185 13.1955 43.1315C13.2655 44.4107 13.8934 45.6374 14.9173 46.498L21.1504 51.7414L15.6339 54.1625L4.38459 38.7754ZM86.4205 27.2018L93.9702 56.4073L84.1279 60.7271C83.297 61.0917 82.9234 62.0499 83.2945 62.8679C83.6652 63.6851 84.64 64.0522 85.4709 63.6876L94.7943 59.5955L97.2799 69.2118L89.72 72.5299C88.8884 72.8949 88.5155 73.8526 88.8866 74.6706C89.2577 75.4886 90.2314 75.8554 91.063 75.4904L98.104 72.4001L103.465 93.1359C103.518 93.3419 103.413 93.5543 103.215 93.641L52.6524 115.833C52.4549 115.92 52.2242 115.855 52.1037 115.678L39.9945 97.9043L47.0354 94.814C47.8663 94.4494 48.2399 93.4913 47.8689 92.6733C47.4978 91.8553 46.5233 91.4889 45.6924 91.8535L38.1325 95.1716L32.5165 86.9293L41.8862 82.8169C42.717 82.4522 43.0903 81.4934 42.7196 80.6761C42.3485 79.8581 41.374 79.4917 40.5431 79.8564L30.6545 84.1965L13.5987 59.1632C13.5035 59.0238 13.5149 58.8893 13.5412 58.8002C13.5667 58.7113 13.6305 58.5909 13.7865 58.5224L31.3031 50.8344C31.4716 50.7604 31.6681 50.7999 31.8051 50.9339C34.8132 53.8875 38.6167 55.8698 42.8052 56.6662C47.0919 57.4823 51.4735 56.9848 55.4748 55.2286C55.6802 55.1385 55.8858 55.0427 56.0927 54.9436C56.1893 54.8975 56.2863 54.8503 56.383 54.8023C56.4671 54.7598 56.552 54.717 56.6365 54.6734C57.5276 54.2177 58.3788 53.7054 59.1869 53.1372C59.1897 53.135 59.192 53.134 59.194 53.1322C61.5392 51.4835 63.5197 49.381 65.0239 46.9144C67.2188 43.3163 68.2593 39.208 68.0337 35.0332C68.0237 34.8434 68.1259 34.6729 68.2936 34.5993L85.8111 26.9109C85.9662 26.8427 86.1 26.8765 86.1839 26.9164C86.2693 26.9575 86.3778 27.0393 86.4205 27.2018Z"/>
</mask>
<path d="M84.4676 23.9515L84.35 24.0031L80.3672 6.14501C80.0741 4.82964 79.2612 3.70079 78.1373 3.04864C77.0843 2.43659 75.8622 2.28699 74.6975 2.62624L68.5596 4.41512C68.0979 4.54934 67.6714 4.75688 67.2866 5.01914L67.1448 4.57198C66.7329 3.27454 65.8145 2.2031 64.625 1.63428C63.5108 1.10084 62.2663 1.04247 61.1202 1.47059L56.7194 3.11276C56.3166 1.85199 55.442 0.79 54.2994 0.185799C53.2004 -0.394982 51.9551 -0.514979 50.7939 -0.151386L44.5148 1.81316C43.354 2.17564 42.4028 2.98141 41.8357 4.08081C41.2245 5.26522 41.1285 6.69035 41.571 7.99101L43.5431 13.7761C43.3034 13.6289 43.0513 13.502 42.7877 13.3995C41.6302 12.9488 40.3802 12.9696 39.2672 13.4581L33.3314 16.0633C32.5421 16.4097 31.8894 16.9662 31.4204 17.6684L29.0175 13.5008C28.3296 12.3078 27.1864 11.4265 25.882 11.0829C24.6722 10.7634 23.4283 10.922 22.3768 11.5295L16.6965 14.814C15.6458 15.4212 14.9049 16.4129 14.6103 17.6053C14.3043 18.8453 14.5237 20.1949 15.2086 21.3318L11.0267 23.4566C9.93813 24.0093 9.15026 24.9597 8.8097 26.1316C8.44565 27.3823 8.64294 28.7702 9.34955 29.9383L9.59356 30.3415C9.13811 30.448 8.69661 30.6205 8.28591 30.8692L2.8328 34.1676C1.79817 34.7937 1.09594 35.7878 0.854918 36.9678C0.597717 38.2261 0.908943 39.5752 1.70842 40.6683L12.5606 55.5114L12.443 55.563C11.4342 56.0058 10.6799 56.8582 10.3739 57.9032C10.0678 58.9481 10.2457 60.0654 10.8608 60.9676L49.3662 117.483C50.3826 118.974 52.329 119.525 53.9954 118.794L104.558 96.6015C106.225 95.8701 107.108 94.0773 106.658 92.3379L89.6145 26.4027C89.3426 25.3498 88.6153 24.4736 87.621 23.9994C86.6259 23.5256 85.4771 23.5084 84.4676 23.9515ZM68.5156 8.88852C68.5638 8.2387 68.9546 7.6789 69.4968 7.52322L75.6344 5.73357C75.9898 5.63028 76.2802 5.73392 76.4618 5.84003C76.8 6.03644 77.0507 6.40064 77.1483 6.83946L81.2771 25.3508L79.077 26.3165L75.3789 14.2926C75.007 13.0811 74.1516 12.0782 73.0329 11.5411C71.9437 11.0171 70.716 10.967 69.5775 11.3992L69.3402 11.4895L68.5156 8.88852ZM68.8883 15.1361L70.7652 14.4233C71.1157 14.2907 71.4059 14.3667 71.5872 14.4536C71.8888 14.5985 72.1147 14.8747 72.2244 15.2305L76.0432 27.649L69.0124 30.7348L67.7058 25.7041C67.4354 24.6626 66.7979 23.7794 65.904 23.1807L64.1921 18.4601C64.0255 18.0017 64.097 17.5025 64.3403 17.1294C64.4863 16.9064 64.6941 16.7283 64.9496 16.6328L68.8859 15.1372L68.8883 15.1361ZM56.1458 6.79797C56.1658 6.79014 56.1847 6.78 56.2057 6.7726L56.2065 6.77225L62.29 4.50069C62.6584 4.36394 62.9799 4.45117 63.1838 4.54842C63.56 4.72908 63.857 5.08962 63.9991 5.53755L65.2911 9.60579C65.2911 9.60579 65.2906 9.6069 65.291 9.60767L66.2599 12.6593L63.762 13.6087C61.4192 14.4983 60.2216 17.1622 61.0873 19.5491L62.187 22.5823L60.6803 22.9819L55.4341 8.86501C55.1219 8.02764 55.4513 7.09634 56.1458 6.79797ZM64.5124 26.5066L66.001 32.2367C65.1553 32.9666 64.6806 34.0458 64.7433 35.2053C64.9336 38.7327 64.0538 42.2048 62.1988 45.2469C61.9998 45.5727 61.7897 45.8887 61.5715 46.1989L56.503 28.6306C56.4181 28.3378 56.4556 28.0311 56.6084 27.7671C56.7605 27.5016 57.0087 27.3132 57.3073 27.2339L60.0548 26.505C60.0556 26.5047 60.0572 26.504 60.0591 26.5041L63.1028 25.697C63.4014 25.6177 63.7131 25.6584 63.9802 25.812C64.2473 25.9657 64.4361 26.2119 64.5124 26.5066ZM56.8734 42.6818L44.6958 6.96067C44.5322 6.4778 44.5602 5.96353 44.7747 5.54765C44.8908 5.3229 45.1146 5.02684 45.514 4.9024L51.7935 2.93674C52.1828 2.81488 52.5229 2.92633 52.7383 3.04071C53.1425 3.25434 53.4547 3.65445 53.5936 4.1389L53.7027 4.51814C53.6811 4.53685 53.661 4.55677 53.6394 4.57549C53.6126 4.59927 53.5862 4.62383 53.5605 4.64804C53.4808 4.72093 53.4032 4.79656 53.3298 4.87501C53.3105 4.89458 53.2915 4.91493 53.2729 4.93604C53.1303 5.092 52.9992 5.25677 52.8796 5.43036C52.8686 5.44537 52.8587 5.46082 52.848 5.4766C52.7747 5.58643 52.7047 5.69942 52.6407 5.81532C52.6349 5.82528 52.6287 5.83446 52.6233 5.84518C52.5886 5.90755 52.5562 5.97077 52.5249 6.03442C52.5181 6.04849 52.5114 6.06255 52.5046 6.07662C52.4516 6.18771 52.4028 6.29972 52.3581 6.41457C52.3468 6.44356 52.3359 6.47143 52.325 6.50119C52.3031 6.56071 52.2808 6.62135 52.2616 6.68249C52.2401 6.74922 52.2198 6.81636 52.2015 6.88359C52.184 6.94671 52.1682 7.00913 52.1527 7.07233C52.1417 7.12061 52.1318 7.16931 52.1212 7.21836C52.1084 7.28129 52.0963 7.34577 52.0853 7.41068C52.0736 7.48424 52.063 7.55823 52.0543 7.63231C52.0488 7.67817 52.044 7.7237 52.0404 7.76965C52.0329 7.85246 52.0273 7.93536 52.0239 8.01911C52.0229 8.05837 52.0215 8.09875 52.0217 8.13844C52.0202 8.22227 52.021 8.30696 52.0238 8.39174C52.0253 8.42619 52.0265 8.45988 52.028 8.49434C52.0341 8.5989 52.0432 8.70398 52.0551 8.8088C52.0582 8.83425 52.0624 8.86013 52.0666 8.88601C52.0789 8.9814 52.095 9.07696 52.1133 9.17336C52.1178 9.19359 52.1207 9.2145 52.1255 9.23549C52.1483 9.34569 52.1756 9.45572 52.2057 9.56548C52.213 9.58998 52.22 9.6156 52.2273 9.64011C52.2607 9.75304 52.2971 9.86648 52.3386 9.97863L57.4865 23.829L56.449 24.105C55.2923 24.4102 54.3305 25.1448 53.7406 26.1692C53.1503 27.1946 53.0054 28.3833 53.3324 29.5165L57.6708 44.5514L56.8734 42.6818ZM34.0295 19.7238C34.1142 19.4962 34.2951 19.1903 34.6744 19.0238L40.6102 16.4186C40.9896 16.2521 41.3437 16.3241 41.5744 16.4142C41.9785 16.5715 42.3147 16.9065 42.497 17.3331L53.5196 43.1969L47.915 32.3943C47.3306 31.2678 46.3549 30.4138 45.1678 29.9891C43.9372 29.5493 42.6373 29.6196 41.5034 30.1904L39.1439 31.3767L38.2116 29.4562L34.1131 21.0082C33.9105 20.5905 33.8803 20.1221 34.0295 19.7238ZM43.0034 33.0764C43.4195 32.8707 43.8327 32.9611 44.0414 33.0359C44.4427 33.1787 44.7761 33.4743 44.9798 33.8675L54.4499 52.122C54.344 52.1703 54.2384 52.2213 54.131 52.2685C51.5915 53.3831 48.8709 53.8976 46.1399 53.7927L36.8615 37.8586C36.6374 37.4744 36.5752 37.0348 36.6906 36.6532C36.7568 36.4365 36.9091 36.1404 37.2641 35.9615L43.0034 33.0764ZM17.8131 18.3693C17.8709 18.1341 18.014 17.8115 18.3662 17.6079L24.0469 14.3243C24.4094 14.1143 24.7813 14.1489 25.0297 14.2137C25.4869 14.3348 25.8955 14.6574 26.1508 15.1001L35.2618 30.9034L36.2082 32.8528L35.764 33.0755C34.6768 33.6229 33.8843 34.5652 33.5318 35.7294C33.1611 36.9571 33.3319 38.3197 34.0012 39.4699L38.4929 47.1833L34.6295 43.602L23.3297 22.7106C23.2725 22.6054 23.2113 22.5037 23.1482 22.4038C23.1342 22.3813 23.1198 22.3599 23.1058 22.3374C23.0428 22.2421 22.9779 22.1486 22.9093 22.0575C22.8977 22.0423 22.885 22.0266 22.8733 22.0114C22.8116 21.9312 22.7486 21.8545 22.6832 21.7787C22.6678 21.7614 22.6518 21.7426 22.6364 21.7253C22.5636 21.6435 22.4887 21.5654 22.411 21.4895C22.3904 21.469 22.369 21.4488 22.3477 21.4286C22.278 21.3621 22.2067 21.2981 22.1346 21.2364C22.1205 21.2241 22.1073 21.2115 22.0931 21.201C22.0124 21.1329 21.9292 21.0696 21.8451 21.0085C21.8179 20.9881 21.79 20.968 21.7621 20.9479C21.6783 20.8894 21.5932 20.8325 21.5072 20.7796C21.4836 20.765 21.4597 20.7515 21.4353 20.7372C21.3642 20.6945 21.2923 20.6539 21.2195 20.6156C21.1894 20.5992 21.1587 20.5831 21.129 20.5675C21.04 20.5225 20.9504 20.4804 20.8592 20.4409C20.8287 20.4275 20.7977 20.4152 20.7664 20.4022C20.6879 20.37 20.6105 20.3402 20.5314 20.313C20.5076 20.304 20.4838 20.2951 20.4592 20.2865C20.3627 20.2539 20.266 20.2252 20.1673 20.1982C20.1373 20.1902 20.1077 20.1828 20.0769 20.1751C19.9758 20.1492 19.8735 20.1266 19.7714 20.1067C19.7584 20.105 19.7454 20.1033 19.7332 20.1012C19.6341 20.0837 19.5345 20.0692 19.4347 20.0585C19.4137 20.0557 19.393 20.0537 19.3724 20.0516C19.2626 20.0397 19.1523 20.0327 19.0418 20.0294C19.0292 20.0285 19.0161 20.0287 19.0038 20.0285C18.889 20.0262 18.7745 20.0265 18.6597 20.0325C18.6594 20.0317 18.6586 20.0321 18.6578 20.0324C18.5392 20.0383 18.42 20.049 18.301 20.0642C18.2967 20.0652 18.2929 20.065 18.2891 20.0649L18.0728 19.729C17.7998 19.3034 17.7048 18.8079 17.8131 18.3693ZM11.9781 27.0226C12.0407 26.8084 12.1883 26.5143 12.5393 26.3371L18.3237 23.3981L18.3276 23.3964C18.3347 23.3933 18.3429 23.3906 18.3496 23.3867C19.0456 23.0563 19.9881 23.433 20.4203 24.2325L27.144 36.6628L25.5982 35.2298C24.6629 34.3636 23.4519 33.8819 22.1877 33.8756C22.031 33.8741 21.8758 33.8821 21.7219 33.8951C21.713 33.8962 21.7038 33.8966 21.6946 33.8969C21.5468 33.911 21.4025 33.9327 21.2584 33.959C21.2448 33.9621 21.2297 33.9641 21.2158 33.9666C21.0759 33.9938 20.9395 34.0287 20.804 34.0678C20.7873 34.0724 20.7698 34.0773 20.7534 34.0826C20.6213 34.123 20.4909 34.1691 20.3641 34.2211C20.3461 34.229 20.3285 34.2358 20.3109 34.2426C20.2898 34.2519 20.2679 34.2596 20.2475 34.2686C20.1809 34.2978 20.1178 34.3329 20.0526 34.3652C19.9976 34.3931 19.9407 34.4189 19.8864 34.4483C19.8052 34.4932 19.7277 34.5439 19.6486 34.5934C19.5999 34.6249 19.5487 34.6529 19.5008 34.686C19.4174 34.7448 19.3374 34.8086 19.2565 34.8727C19.2186 34.9032 19.1786 34.9309 19.1403 34.9625C19.0245 35.0615 18.913 35.1659 18.8066 35.2773L17.3415 36.8087L16.0388 34.6561L12.1815 28.2812C11.938 27.8768 11.8635 27.4186 11.9781 27.0226ZM16.7892 42.1154L17.5139 41.3572L18.2429 40.5963L18.2437 40.5959L21.207 37.4982C21.5274 37.1644 21.9479 37.1157 22.17 37.1162C22.5971 37.1192 23.0115 37.2868 23.3384 37.5889L38.8455 51.9633C37.112 51.1193 35.5221 50.0033 34.1338 48.6398C33.0234 47.5491 31.3851 47.2484 29.9601 47.8739L24.482 50.2782L17.0591 44.0344C16.717 43.7464 16.5079 43.3537 16.4861 42.9556C16.4807 42.8711 16.4843 42.7715 16.5041 42.6657C16.5377 42.4892 16.6183 42.2939 16.7892 42.1154ZM4.38459 38.7754C4.11772 38.4109 4.00884 37.9844 4.08609 37.6057C4.12823 37.4023 4.24345 37.1197 4.55934 36.9293L10.0124 33.6309C10.4922 33.3417 11.1765 33.4269 11.7012 33.8252L13.225 36.3431L14.9917 39.2637L14.3895 39.8941C13.5524 40.769 13.1283 41.9185 13.1955 43.1315C13.2655 44.4107 13.8934 45.6374 14.9173 46.498L21.1504 51.7414L15.6339 54.1625L4.38459 38.7754ZM86.4205 27.2018L93.9702 56.4073L84.1279 60.7271C83.297 61.0917 82.9234 62.0499 83.2945 62.8679C83.6652 63.6851 84.64 64.0522 85.4709 63.6876L94.7943 59.5955L97.2799 69.2118L89.72 72.5299C88.8884 72.8949 88.5155 73.8526 88.8866 74.6706C89.2577 75.4886 90.2314 75.8554 91.063 75.4904L98.104 72.4001L103.465 93.1359C103.518 93.3419 103.413 93.5543 103.215 93.641L52.6524 115.833C52.4549 115.92 52.2242 115.855 52.1037 115.678L39.9945 97.9043L47.0354 94.814C47.8663 94.4494 48.2399 93.4913 47.8689 92.6733C47.4978 91.8553 46.5233 91.4889 45.6924 91.8535L38.1325 95.1716L32.5165 86.9293L41.8862 82.8169C42.717 82.4522 43.0903 81.4934 42.7196 80.6761C42.3485 79.8581 41.374 79.4917 40.5431 79.8564L30.6545 84.1965L13.5987 59.1632C13.5035 59.0238 13.5149 58.8893 13.5412 58.8002C13.5667 58.7113 13.6305 58.5909 13.7865 58.5224L31.3031 50.8344C31.4716 50.7604 31.6681 50.7999 31.8051 50.9339C34.8132 53.8875 38.6167 55.8698 42.8052 56.6662C47.0919 57.4823 51.4735 56.9848 55.4748 55.2286C55.6802 55.1385 55.8858 55.0427 56.0927 54.9436C56.1893 54.8975 56.2863 54.8503 56.383 54.8023C56.4671 54.7598 56.552 54.717 56.6365 54.6734C57.5276 54.2177 58.3788 53.7054 59.1869 53.1372C59.1897 53.135 59.192 53.134 59.194 53.1322C61.5392 51.4835 63.5197 49.381 65.0239 46.9144C67.2188 43.3163 68.2593 39.208 68.0337 35.0332C68.0237 34.8434 68.1259 34.6729 68.2936 34.5993L85.8111 26.9109C85.9662 26.8427 86.1 26.8765 86.1839 26.9164C86.2693 26.9575 86.3778 27.0393 86.4205 27.2018Z" fill="currentColor" stroke="currentColor" stroke-width="0.4" mask="url(#path-2-inside-1_1_970)"/>
</g>
<defs>
<clipPath id="clip0_1_970">
<rect width="112.5" height="120" fill="white"/>
</clipPath>
</defs>
</svg>
