<svg width="22" height="22" viewBox="0 0 22 22" fill="none" xmlns="http://www.w3.org/2000/svg">
<mask id="mask0_1_7371" style="mask-type:alpha" maskUnits="userSpaceOnUse" x="0" y="0" width="22" height="22">
<rect width="22" height="22" fill="#D9D9D9"/>
</mask>
<g mask="url(#mask0_1_7371)">
<path d="M5.49967 11.9166C5.23995 11.9166 5.02224 11.8288 4.84655 11.6531C4.67086 11.4774 4.58301 11.2597 4.58301 11C4.58301 10.7403 4.67086 10.5225 4.84655 10.3469C5.02224 10.1712 5.23995 10.0833 5.49967 10.0833H16.4997C16.7594 10.0833 16.9771 10.1712 17.1528 10.3469C17.3285 10.5225 17.4163 10.7403 17.4163 11C17.4163 11.2597 17.3285 11.4774 17.1528 11.6531C16.9771 11.8288 16.7594 11.9166 16.4997 11.9166H5.49967Z" fill="currentColor"/>
</g>
</svg>
