<svg width="22" height="22" viewBox="0 0 22 22" fill="none" xmlns="http://www.w3.org/2000/svg">
<mask id="mask0_1_800" style="mask-type:alpha" maskUnits="userSpaceOnUse" x="0" y="0" width="22" height="22">
<rect width="22" height="22" fill="#D9D9D9"/>
</mask>
<g mask="url(#mask0_1_800)">
<path d="M4.58333 17.4167C3.31528 17.4167 2.23438 16.9698 1.34063 16.0761C0.446875 15.1823 0 14.1014 0 12.8334C0 11.5653 0.446875 10.4844 1.34063 9.59067C2.23438 8.69692 3.31528 8.25004 4.58333 8.25004H15.2167L13.3833 6.41671H11C10.7403 6.41671 10.5226 6.32886 10.3469 6.15317C10.1712 5.97747 10.0833 5.75976 10.0833 5.50004C10.0833 5.24032 10.1712 5.02261 10.3469 4.84692C10.5226 4.67122 10.7403 4.58337 11 4.58337H13.3604C13.6049 4.58337 13.8378 4.62921 14.0594 4.72087C14.2809 4.81254 14.4757 4.9424 14.6438 5.11046L17.8292 8.29587C19.0208 8.38754 20.0139 8.86879 20.8083 9.73962C21.6028 10.6105 22 11.6417 22 12.8334C22 14.1014 21.5531 15.1823 20.6594 16.0761C19.7656 16.9698 18.6847 17.4167 17.4167 17.4167C16.1486 17.4167 15.0677 16.9698 14.174 16.0761C13.2802 15.1823 12.8333 14.1014 12.8333 12.8334C12.8333 12.5584 12.8524 12.2872 12.8906 12.0198C12.9288 11.7525 13.0014 11.4889 13.1083 11.2292L10.8625 13.475C10.7708 13.5667 10.6677 13.6355 10.5531 13.6813C10.4385 13.7271 10.3201 13.75 10.1979 13.75H9.075C8.86111 14.8195 8.33403 15.698 7.49375 16.3855C6.65347 17.073 5.68333 17.4167 4.58333 17.4167ZM17.4167 15.5834C18.1806 15.5834 18.8299 15.316 19.3646 14.7813C19.8993 14.2466 20.1667 13.5973 20.1667 12.8334C20.1667 12.0695 19.8993 11.4202 19.3646 10.8855C18.8299 10.3507 18.1806 10.0834 17.4167 10.0834C16.6528 10.0834 16.0035 10.3507 15.4688 10.8855C14.934 11.4202 14.6667 12.0695 14.6667 12.8334C14.6667 13.5973 14.934 14.2466 15.4688 14.7813C16.0035 15.316 16.6528 15.5834 17.4167 15.5834ZM4.58333 15.5834C5.16389 15.5834 5.68715 15.4153 6.15313 15.0792C6.6191 14.7431 6.95139 14.3 7.15 13.75H5.5C5.24028 13.75 5.02257 13.6622 4.84688 13.4865C4.67118 13.3108 4.58333 13.0931 4.58333 12.8334C4.58333 12.5737 4.67118 12.3559 4.84688 12.1802C5.02257 12.0046 5.24028 11.9167 5.5 11.9167H7.15C6.95139 11.3667 6.6191 10.9237 6.15313 10.5875C5.68715 10.2514 5.16389 10.0834 4.58333 10.0834C3.81944 10.0834 3.17014 10.3507 2.63542 10.8855C2.10069 11.4202 1.83333 12.0695 1.83333 12.8334C1.83333 13.5973 2.10069 14.2466 2.63542 14.7813C3.17014 15.316 3.81944 15.5834 4.58333 15.5834ZM9.12083 11.9167H9.80833L11.6417 10.0834H8.20417C8.43333 10.3431 8.62431 10.6257 8.77708 10.9313C8.92986 11.2368 9.04444 11.5653 9.12083 11.9167Z" fill="currentColor"/>
</g>
</svg>
