<svg width="134" height="120" viewBox="0 0 134 120" fill="none" xmlns="http://www.w3.org/2000/svg">
<g clip-path="url(#clip0_1_958)">
<mask id="path-1-inside-1_1_958" fill="white">
<path d="M111.373 98.6523C114.346 94.9507 116.07 89.9523 116.059 85.3558C120.17 84.7337 123.952 82.0957 126.571 77.7048C129.999 71.9558 130.723 64.4176 128.556 57.0233C126.779 50.9606 122.169 42.074 110.299 34.1677C103.08 29.3597 88.6579 20.7605 73.1716 17.1894C65.6229 15.4485 53.4077 13.9363 41.763 14.9129C28.0168 16.0655 18.6442 20.4653 14.658 27.6365C12.4063 31.687 11.0595 35.6148 10.6209 39.3899C5.91363 44.7444 3.43412 51.6163 3.97218 57.8862C4.46807 63.6635 7.44173 68.9094 12.5971 73.1042C13.0883 74.693 14.4352 78.3296 17.4358 82.4016C18.8146 84.2725 20.6619 86.3841 23.0873 88.4649C26.8913 91.7284 32.1159 94.915 39.1812 96.9746C40.4271 98.0062 44.2406 100.94 49.5888 103.001C57.7077 106.129 65.7443 105.842 72.9409 102.192C74.3791 103.394 76.8985 105.25 80.1388 106.63C86.8826 109.502 93.5816 109.005 99.5532 105.199C104.244 104.708 108.321 102.453 111.373 98.6523ZM124.057 58.3414C125.859 64.4884 125.307 70.6709 122.544 75.3036C120.107 79.3898 115.47 82.677 109.762 79.6474C108.517 78.9868 107.39 78.1745 106.248 77.2509C108.796 74.9846 110.552 71.6746 109.408 67.7308C109.006 66.348 109.171 65.7837 109.5 64.6595C109.927 63.2012 110.51 61.2039 109.831 57.4704C109.524 55.7806 108.991 54.1371 108.475 52.548C107.919 50.8347 107.394 49.2166 107.286 47.9149C107.13 46.0241 107.613 44.3978 108.124 42.676C108.471 41.5063 108.837 40.2724 108.985 38.9535C118.727 45.8341 122.563 53.2445 124.057 58.3414ZM87.5904 66.1811C89.3028 63.832 90.8612 60.4449 89.7589 56.6466C89.3775 55.3324 89.4105 54.4796 89.4521 53.3998C89.5268 51.456 89.6118 49.2529 87.5008 45.0562C86.8306 43.724 85.6244 42.0648 84.3471 40.3085C82.9246 38.3518 80.5435 35.0772 80.4497 33.9396C80.3157 32.3182 80.453 30.7517 80.5853 29.2368C80.7254 27.6384 80.8727 25.9425 80.6351 24.2637C89.9479 27.5572 98.3746 32.2337 103.805 35.5771C104.726 37.3943 104.367 38.8597 103.63 41.3411C103.047 43.3057 102.385 45.5324 102.614 48.3001C102.766 50.145 103.401 52.1019 104.016 53.9944C104.484 55.4366 104.968 56.928 105.219 58.3088C105.7 60.9517 105.36 62.1135 105 63.3433C104.589 64.7492 104.123 66.3425 104.906 69.0369C105.585 71.379 103.933 73.1684 102.621 74.1698C99.0963 71.1921 94.7986 68.0048 87.5904 66.1811ZM42.1547 19.5841C43.9546 19.4332 45.769 19.3456 47.5766 19.3102C48.5337 20.5362 49.1735 22.6069 49.5229 25.6082C49.5939 26.2176 49.8928 26.7451 50.3245 27.1155C50.8034 27.5264 51.446 27.7438 52.1222 27.6652C53.4081 27.5155 54.329 26.3516 54.1793 25.0657C53.916 22.8053 53.4895 20.9198 52.8844 19.3519C60.3028 19.6055 67.234 20.6307 72.1184 21.7569C73.011 21.9627 73.9013 22.188 74.788 22.4292C76.2667 23.9331 76.1952 25.6388 75.9158 28.8274C75.7727 30.4581 75.6112 32.3062 75.7776 34.3254C75.9655 36.6014 77.7914 39.2635 80.5557 43.0648C81.6662 44.5922 82.8146 46.1716 83.313 47.1625C84.881 50.2794 84.8287 51.6418 84.7679 53.219C84.7193 54.4802 84.6642 55.9098 85.2571 57.9527C86.1192 60.9234 83.5352 63.9263 82.2689 65.1771C79.4405 64.8058 76.2488 64.6183 72.6152 64.672C70.5549 64.7024 68.4162 64.7529 66.1519 64.8066C64.6216 64.8427 63.0502 64.8799 61.4563 64.9113C62.9432 62.7518 64.0124 59.9253 63.0805 56.7135C62.7141 55.4512 62.803 54.7032 62.9265 53.6677C63.1404 51.8679 63.4069 49.6282 61.28 45.4003C60.9846 44.8127 60.5799 44.1573 60.0429 43.3967C59.2946 42.3398 57.8335 42.0875 56.7762 42.8344C55.7188 43.581 55.4669 45.0437 56.2135 46.1011C56.6149 46.6693 56.902 47.1287 57.0921 47.5065C58.5856 50.4751 58.447 51.6397 58.2715 53.1142C58.1268 54.33 57.947 55.843 58.5787 58.0199C59.4678 61.0834 56.2611 63.9813 54.982 64.9914C48.6948 65.0093 42.4328 64.8099 37.2505 64.0103C40.0027 60.8009 41.4243 56.9296 39.0493 53.4575C38.7869 53.0737 38.7351 52.5793 38.6427 51.4976C38.4919 49.7299 38.2636 47.0586 36.2906 43.1363C35.5307 41.6258 34.3902 40.2864 33.2871 38.9911C32.1545 37.6609 30.8706 36.153 30.7921 35.2043C30.6626 33.6356 30.7642 32.0412 30.8627 30.4991C31.0406 27.7111 31.2347 24.6468 29.8499 21.927C33.8677 20.5878 38.2714 19.9097 42.1547 19.5841ZM25.499 23.7537C26.4363 25.2685 26.373 27.2422 26.1841 30.2011C26.0801 31.8317 25.962 33.6799 26.1199 35.5905C26.3223 38.0436 28.0485 40.0704 29.7178 42.0307C30.6411 43.1149 31.5959 44.236 32.1024 45.2432C33.6696 48.3581 33.8368 50.3202 33.9715 51.8968C34.0885 53.268 34.2096 54.6862 35.1798 56.1047C36.5087 58.0474 33.6748 61.174 31.814 62.8008C30.2276 62.3023 28.8527 61.6976 27.7486 60.9644C14.8455 52.3966 11.9039 42.2392 18.7553 29.9139C20.2321 27.2573 22.6345 25.2582 25.499 23.7537ZM98.5967 100.577C98.1866 100.605 97.7915 100.742 97.4507 100.972C92.7044 104.172 87.5419 104.644 82.107 102.373C77.8386 100.589 74.9738 97.7245 74.9493 97.6995C74.1994 96.9311 73.0219 96.7751 72.0947 97.3159C65.7441 101.021 58.7856 101.48 51.4121 98.6788C45.7308 96.5209 41.9171 93.1459 41.8813 93.1178C41.6131 92.8768 41.2939 92.7009 40.9471 92.6038C32.5282 90.2418 25.9331 85.9349 21.345 79.8034C17.9084 75.2103 16.9381 71.244 16.9306 71.2128C16.8092 70.6844 16.5102 70.2104 16.0789 69.8834C11.5502 66.3864 9.0483 62.2141 8.64238 57.4849C8.34871 54.0626 9.20968 50.3827 11.0166 46.9892C11.1743 47.6718 11.3637 48.3484 11.5888 49.018C13.071 53.4275 16.0325 57.5457 20.4192 61.309C21.8473 62.5342 23.4265 63.7219 25.1551 64.8698C33.2907 70.2725 50.8073 69.8586 66.2622 69.4934C68.5157 69.4401 70.6441 69.39 72.6837 69.36C89.5962 69.1103 95.6233 74.3189 100.949 78.9108C103.063 80.7372 105.061 82.46 107.563 83.7883C108.818 84.4543 110.094 84.9187 111.369 85.1951C111.424 88.7629 110.051 92.8124 107.718 95.7173C106.08 97.7566 103.168 100.255 98.5967 100.577Z"/>
</mask>
<path d="M111.373 98.6523C114.346 94.9507 116.07 89.9523 116.059 85.3558C120.17 84.7337 123.952 82.0957 126.571 77.7048C129.999 71.9558 130.723 64.4176 128.556 57.0233C126.779 50.9606 122.169 42.074 110.299 34.1677C103.08 29.3597 88.6579 20.7605 73.1716 17.1894C65.6229 15.4485 53.4077 13.9363 41.763 14.9129C28.0168 16.0655 18.6442 20.4653 14.658 27.6365C12.4063 31.687 11.0595 35.6148 10.6209 39.3899C5.91363 44.7444 3.43412 51.6163 3.97218 57.8862C4.46807 63.6635 7.44173 68.9094 12.5971 73.1042C13.0883 74.693 14.4352 78.3296 17.4358 82.4016C18.8146 84.2725 20.6619 86.3841 23.0873 88.4649C26.8913 91.7284 32.1159 94.915 39.1812 96.9746C40.4271 98.0062 44.2406 100.94 49.5888 103.001C57.7077 106.129 65.7443 105.842 72.9409 102.192C74.3791 103.394 76.8985 105.25 80.1388 106.63C86.8826 109.502 93.5816 109.005 99.5532 105.199C104.244 104.708 108.321 102.453 111.373 98.6523ZM124.057 58.3414C125.859 64.4884 125.307 70.6709 122.544 75.3036C120.107 79.3898 115.47 82.677 109.762 79.6474C108.517 78.9868 107.39 78.1745 106.248 77.2509C108.796 74.9846 110.552 71.6746 109.408 67.7308C109.006 66.348 109.171 65.7837 109.5 64.6595C109.927 63.2012 110.51 61.2039 109.831 57.4704C109.524 55.7806 108.991 54.1371 108.475 52.548C107.919 50.8347 107.394 49.2166 107.286 47.9149C107.13 46.0241 107.613 44.3978 108.124 42.676C108.471 41.5063 108.837 40.2724 108.985 38.9535C118.727 45.8341 122.563 53.2445 124.057 58.3414ZM87.5904 66.1811C89.3028 63.832 90.8612 60.4449 89.7589 56.6466C89.3775 55.3324 89.4105 54.4796 89.4521 53.3998C89.5268 51.456 89.6118 49.2529 87.5008 45.0562C86.8306 43.724 85.6244 42.0648 84.3471 40.3085C82.9246 38.3518 80.5435 35.0772 80.4497 33.9396C80.3157 32.3182 80.453 30.7517 80.5853 29.2368C80.7254 27.6384 80.8727 25.9425 80.6351 24.2637C89.9479 27.5572 98.3746 32.2337 103.805 35.5771C104.726 37.3943 104.367 38.8597 103.63 41.3411C103.047 43.3057 102.385 45.5324 102.614 48.3001C102.766 50.145 103.401 52.1019 104.016 53.9944C104.484 55.4366 104.968 56.928 105.219 58.3088C105.7 60.9517 105.36 62.1135 105 63.3433C104.589 64.7492 104.123 66.3425 104.906 69.0369C105.585 71.379 103.933 73.1684 102.621 74.1698C99.0963 71.1921 94.7986 68.0048 87.5904 66.1811ZM42.1547 19.5841C43.9546 19.4332 45.769 19.3456 47.5766 19.3102C48.5337 20.5362 49.1735 22.6069 49.5229 25.6082C49.5939 26.2176 49.8928 26.7451 50.3245 27.1155C50.8034 27.5264 51.446 27.7438 52.1222 27.6652C53.4081 27.5155 54.329 26.3516 54.1793 25.0657C53.916 22.8053 53.4895 20.9198 52.8844 19.3519C60.3028 19.6055 67.234 20.6307 72.1184 21.7569C73.011 21.9627 73.9013 22.188 74.788 22.4292C76.2667 23.9331 76.1952 25.6388 75.9158 28.8274C75.7727 30.4581 75.6112 32.3062 75.7776 34.3254C75.9655 36.6014 77.7914 39.2635 80.5557 43.0648C81.6662 44.5922 82.8146 46.1716 83.313 47.1625C84.881 50.2794 84.8287 51.6418 84.7679 53.219C84.7193 54.4802 84.6642 55.9098 85.2571 57.9527C86.1192 60.9234 83.5352 63.9263 82.2689 65.1771C79.4405 64.8058 76.2488 64.6183 72.6152 64.672C70.5549 64.7024 68.4162 64.7529 66.1519 64.8066C64.6216 64.8427 63.0502 64.8799 61.4563 64.9113C62.9432 62.7518 64.0124 59.9253 63.0805 56.7135C62.7141 55.4512 62.803 54.7032 62.9265 53.6677C63.1404 51.8679 63.4069 49.6282 61.28 45.4003C60.9846 44.8127 60.5799 44.1573 60.0429 43.3967C59.2946 42.3398 57.8335 42.0875 56.7762 42.8344C55.7188 43.581 55.4669 45.0437 56.2135 46.1011C56.6149 46.6693 56.902 47.1287 57.0921 47.5065C58.5856 50.4751 58.447 51.6397 58.2715 53.1142C58.1268 54.33 57.947 55.843 58.5787 58.0199C59.4678 61.0834 56.2611 63.9813 54.982 64.9914C48.6948 65.0093 42.4328 64.8099 37.2505 64.0103C40.0027 60.8009 41.4243 56.9296 39.0493 53.4575C38.7869 53.0737 38.7351 52.5793 38.6427 51.4976C38.4919 49.7299 38.2636 47.0586 36.2906 43.1363C35.5307 41.6258 34.3902 40.2864 33.2871 38.9911C32.1545 37.6609 30.8706 36.153 30.7921 35.2043C30.6626 33.6356 30.7642 32.0412 30.8627 30.4991C31.0406 27.7111 31.2347 24.6468 29.8499 21.927C33.8677 20.5878 38.2714 19.9097 42.1547 19.5841ZM25.499 23.7537C26.4363 25.2685 26.373 27.2422 26.1841 30.2011C26.0801 31.8317 25.962 33.6799 26.1199 35.5905C26.3223 38.0436 28.0485 40.0704 29.7178 42.0307C30.6411 43.1149 31.5959 44.236 32.1024 45.2432C33.6696 48.3581 33.8368 50.3202 33.9715 51.8968C34.0885 53.268 34.2096 54.6862 35.1798 56.1047C36.5087 58.0474 33.6748 61.174 31.814 62.8008C30.2276 62.3023 28.8527 61.6976 27.7486 60.9644C14.8455 52.3966 11.9039 42.2392 18.7553 29.9139C20.2321 27.2573 22.6345 25.2582 25.499 23.7537ZM98.5967 100.577C98.1866 100.605 97.7915 100.742 97.4507 100.972C92.7044 104.172 87.5419 104.644 82.107 102.373C77.8386 100.589 74.9738 97.7245 74.9493 97.6995C74.1994 96.9311 73.0219 96.7751 72.0947 97.3159C65.7441 101.021 58.7856 101.48 51.4121 98.6788C45.7308 96.5209 41.9171 93.1459 41.8813 93.1178C41.6131 92.8768 41.2939 92.7009 40.9471 92.6038C32.5282 90.2418 25.9331 85.9349 21.345 79.8034C17.9084 75.2103 16.9381 71.244 16.9306 71.2128C16.8092 70.6844 16.5102 70.2104 16.0789 69.8834C11.5502 66.3864 9.0483 62.2141 8.64238 57.4849C8.34871 54.0626 9.20968 50.3827 11.0166 46.9892C11.1743 47.6718 11.3637 48.3484 11.5888 49.018C13.071 53.4275 16.0325 57.5457 20.4192 61.309C21.8473 62.5342 23.4265 63.7219 25.1551 64.8698C33.2907 70.2725 50.8073 69.8586 66.2622 69.4934C68.5157 69.4401 70.6441 69.39 72.6837 69.36C89.5962 69.1103 95.6233 74.3189 100.949 78.9108C103.063 80.7372 105.061 82.46 107.563 83.7883C108.818 84.4543 110.094 84.9187 111.369 85.1951C111.424 88.7629 110.051 92.8124 107.718 95.7173C106.08 97.7566 103.168 100.255 98.5967 100.577Z" fill="currentColor" stroke="currentColor" stroke-width="2" mask="url(#path-1-inside-1_1_958)"/>
<path d="M67.4528 82.9687L67.4541 82.9697C68.227 83.6328 68.3159 84.797 67.6529 85.5697C66.99 86.3425 65.8258 86.4317 65.0529 85.7686C64.2798 85.1054 64.1906 83.9405 64.8533 83.168C65.5164 82.3951 66.6801 82.3057 67.4528 82.9687Z" fill="currentColor" stroke="currentColor"/>
<path d="M67.4528 82.5771L67.4541 82.5781C68.227 83.2412 68.3159 84.4054 67.6529 85.1781C66.99 85.9509 65.8258 86.0401 65.0529 85.377C64.2798 84.7138 64.1906 83.5489 64.8533 82.7764C65.5164 82.0035 66.6801 81.9141 67.4528 82.5771Z" fill="currentColor" stroke="currentColor"/>
<path d="M67.4528 79.5526L67.4541 79.5537C68.227 80.2168 68.3159 81.381 67.6529 82.1537C66.99 82.9265 65.8258 83.0157 65.0529 82.3526C64.2798 81.6894 64.1906 80.5245 64.8533 79.752C65.5164 78.979 66.6801 78.8897 67.4528 79.5526Z" fill="currentColor" stroke="currentColor"/>
<path d="M67.6528 37.0701C66.9898 37.8429 65.8256 37.932 65.0527 37.2689C64.2797 36.6058 64.1905 35.4411 64.8533 34.6685C65.5165 33.8955 66.68 33.8061 67.4527 34.469L67.4539 34.4701C68.2268 35.1331 68.3157 36.2973 67.6528 37.0701Z" fill="currentColor" stroke="currentColor"/>
</g>
<defs>
<clipPath id="clip0_1_958">
<rect width="134" height="120" fill="white"/>
</clipPath>
</defs>
</svg>
