<svg width="113" height="120" viewBox="0 0 113 120" fill="none" xmlns="http://www.w3.org/2000/svg">
<g clip-path="url(#clip0_1_964)">
<mask id="path-1-inside-1_1_964" fill="white">
<path d="M10.9906 88.9801C11.3923 88.7774 11.7165 88.421 11.8682 87.9605L18.5021 67.82L51.2886 118.084C51.7795 118.835 52.7529 119.098 53.5533 118.694L106.892 91.7871C107.692 91.3833 108.061 90.4433 107.747 89.6033L86.8066 33.3632L106.947 39.9971C107.408 40.1488 107.887 40.0999 108.289 39.8972C108.69 39.6945 109.015 39.338 109.166 38.8776C109.47 37.9544 108.97 36.9625 108.047 36.6585L84.4339 28.8821C84.2954 28.8378 84.1586 28.8438 84.021 28.8325C83.9376 28.8273 83.8581 28.7985 83.7756 28.8027C83.5351 28.8177 83.3026 28.8759 83.0923 28.982L81.4586 29.8062C75.3419 19.6948 62.3468 15.8176 51.623 21.2273C47.6837 23.2145 44.4745 26.2391 42.253 30C38.0567 29.5692 33.6954 30.271 29.6573 32.3081C18.9318 37.7187 14.3258 50.475 18.8196 61.4049L17.1874 62.2283C17.1874 62.2283 17.1874 62.2283 17.1859 62.2291C16.9756 62.3352 16.7906 62.4876 16.6356 62.6721C16.5831 62.7359 16.5583 62.8154 16.5137 62.8871C16.441 63.0045 16.3533 63.1117 16.3082 63.2487L8.52952 86.8608C8.22543 87.7841 8.7258 88.7759 9.649 89.08C10.1094 89.2317 10.5888 89.1828 10.9906 88.9801ZM45.2237 48.0852C43.1557 45.7381 39.7018 44.9604 36.7811 46.4337C33.8604 47.9071 32.4333 51.1471 33.092 54.2051L31.4551 55.0309C30.3852 51.0797 32.1961 46.7779 35.991 44.8635C39.7843 42.9499 44.3202 44.0501 46.8606 47.2594L45.2237 48.0852ZM41.8698 49.7771L36.4443 52.514C36.5202 51.3023 37.2047 50.1577 38.3645 49.5726C39.5243 48.9875 40.8518 49.1172 41.8698 49.7771ZM50.0324 45.6594C46.5779 40.7317 39.9335 38.937 34.4075 41.7247C28.8785 44.5139 26.3731 50.9242 28.2833 56.6309L26.6966 57.4313C24.3596 50.8512 27.2204 43.3815 33.6158 40.1552C40.0097 36.9298 47.7158 39.0689 51.6175 44.8598L50.0324 45.6594ZM26.5395 61.4482C26.5615 61.4371 26.5851 61.441 26.607 61.4299C26.629 61.4188 26.6407 61.3991 26.6619 61.3864L31.2478 59.0731C31.2698 59.062 31.2934 59.0658 31.3153 59.0547C31.3373 59.0437 31.349 59.024 31.3702 59.0113L35.9561 56.6979C35.978 56.6868 36.0016 56.6907 36.0236 56.6796C36.0456 56.6685 36.0573 56.6488 36.0785 56.6362L45.4024 51.9326C45.4244 51.9215 45.448 51.9254 45.47 51.9143C45.492 51.9032 45.5037 51.8835 45.5249 51.8709L50.1107 49.5575C50.1327 49.5464 50.1563 49.5503 50.1783 49.5392C50.2002 49.5281 50.212 49.5084 50.2331 49.4957L54.819 47.1824C54.841 47.1713 54.8646 47.1751 54.8865 47.164C54.9085 47.153 54.9202 47.1333 54.9414 47.1206L59.5273 44.8072C59.5492 44.7961 59.5728 44.8 59.5948 44.7889C59.6168 44.7778 59.6285 44.7581 59.6497 44.7455L67.3681 40.8518C67.3901 40.8408 67.4137 40.8446 67.4357 40.8335C67.4576 40.8224 67.4694 40.8027 67.4905 40.7901L72.0764 38.4767C72.0984 38.4656 72.122 38.4695 72.1439 38.4584C72.1659 38.4473 72.1776 38.4276 72.1988 38.4149L76.7847 36.1016C76.8067 36.0905 76.8302 36.0943 76.8522 36.0832C76.8742 36.0722 76.8859 36.0525 76.9071 36.0398L80.8887 34.0312L74.6654 52.9211L58.2383 61.208C58.1786 61.2381 58.1142 61.2587 58.053 61.2896C57.9918 61.3205 57.9369 61.36 57.8773 61.3901L41.4501 69.6769L22.5594 63.456L26.5395 61.4482ZM67.1893 37.0044C65.1213 34.6573 61.6675 33.8796 58.7468 35.3529C57.9087 35.7757 57.1765 36.3498 56.5815 37.0398C56.1807 36.6159 55.7571 36.2173 55.3281 35.8274C56.0664 34.9922 56.9491 34.291 57.9566 33.7827C61.75 31.8692 66.2859 32.9693 68.8262 36.1786L67.1893 37.0044ZM71.9981 34.5786C68.5452 29.6501 61.9007 27.8555 56.3732 30.6439C54.8995 31.3873 53.6045 32.4186 52.5453 33.6636C52.0458 33.3368 51.5439 33.0171 51.0248 32.7296C52.2646 31.2143 53.8128 29.9667 55.5815 29.0744C61.9754 25.849 69.6815 27.9881 73.5832 33.779L71.9981 34.5786ZM58.8557 39.8893C59.1971 39.2937 59.704 38.8077 60.3302 38.4918C61.49 37.9067 62.8175 38.0364 63.837 38.6955L59.496 40.8854C59.2896 40.5465 59.077 40.2147 58.8557 39.8893ZM59.8217 64.3468C67.5751 60.5576 76.9883 63.7 80.8867 71.4279C84.8159 79.217 81.6763 88.7489 73.8872 92.6781C66.0982 96.6074 56.5663 93.4677 52.637 85.6787C48.7386 77.9508 51.8055 68.5127 59.4607 64.5289L59.8217 64.3468ZM103.907 89.3552L53.3745 114.847L22.1878 67.0357L41.0383 73.2434C41.2563 73.3166 41.4883 73.3432 41.7217 73.3259C41.9536 73.3094 42.1782 73.2472 42.3822 73.1443L49.7334 69.4359C46.869 74.8028 46.5554 81.4285 49.4982 87.2621C54.2999 96.7807 65.9521 100.619 75.4707 95.817C84.9892 91.0152 88.8273 79.363 84.0255 69.8445C81.0827 64.0109 75.5675 60.3256 69.5474 59.4406L76.9002 55.7314C77.1042 55.6285 77.2876 55.4848 77.4387 55.3081C77.5914 55.1307 77.7078 54.9283 77.7786 54.7095L83.9879 35.8621L103.907 89.3552ZM53.2064 24.3662C62.1992 19.8297 73.0857 23.0046 78.3228 31.388L76.7534 32.1797C71.9612 24.6587 62.1261 21.8353 53.9981 25.9356C51.5058 27.1928 49.3946 29.0375 47.7611 31.2673C47.1723 31.0524 46.5766 30.8666 45.9715 30.7014C47.8022 28.0236 50.2621 25.8514 53.2064 24.3662ZM31.2407 35.447C40.2335 30.9105 51.12 34.0854 56.3572 42.4688L54.7877 43.2605C49.9955 35.7394 40.1605 32.9161 32.0324 37.0164C23.9028 41.1174 20.3286 50.7051 23.5279 59.0298L21.9585 59.8215C18.3284 50.6274 22.2447 39.985 31.2407 35.447Z"/>
</mask>
<path d="M10.9906 88.9801C11.3923 88.7774 11.7165 88.421 11.8682 87.9605L18.5021 67.82L51.2886 118.084C51.7795 118.835 52.7529 119.098 53.5533 118.694L106.892 91.7871C107.692 91.3833 108.061 90.4433 107.747 89.6033L86.8066 33.3632L106.947 39.9971C107.408 40.1488 107.887 40.0999 108.289 39.8972C108.69 39.6945 109.015 39.338 109.166 38.8776C109.47 37.9544 108.97 36.9625 108.047 36.6585L84.4339 28.8821C84.2954 28.8378 84.1586 28.8438 84.021 28.8325C83.9376 28.8273 83.8581 28.7985 83.7756 28.8027C83.5351 28.8177 83.3026 28.8759 83.0923 28.982L81.4586 29.8062C75.3419 19.6948 62.3468 15.8176 51.623 21.2273C47.6837 23.2145 44.4745 26.2391 42.253 30C38.0567 29.5692 33.6954 30.271 29.6573 32.3081C18.9318 37.7187 14.3258 50.475 18.8196 61.4049L17.1874 62.2283C17.1874 62.2283 17.1874 62.2283 17.1859 62.2291C16.9756 62.3352 16.7906 62.4876 16.6356 62.6721C16.5831 62.7359 16.5583 62.8154 16.5137 62.8871C16.441 63.0045 16.3533 63.1117 16.3082 63.2487L8.52952 86.8608C8.22543 87.7841 8.7258 88.7759 9.649 89.08C10.1094 89.2317 10.5888 89.1828 10.9906 88.9801ZM45.2237 48.0852C43.1557 45.7381 39.7018 44.9604 36.7811 46.4337C33.8604 47.9071 32.4333 51.1471 33.092 54.2051L31.4551 55.0309C30.3852 51.0797 32.1961 46.7779 35.991 44.8635C39.7843 42.9499 44.3202 44.0501 46.8606 47.2594L45.2237 48.0852ZM41.8698 49.7771L36.4443 52.514C36.5202 51.3023 37.2047 50.1577 38.3645 49.5726C39.5243 48.9875 40.8518 49.1172 41.8698 49.7771ZM50.0324 45.6594C46.5779 40.7317 39.9335 38.937 34.4075 41.7247C28.8785 44.5139 26.3731 50.9242 28.2833 56.6309L26.6966 57.4313C24.3596 50.8512 27.2204 43.3815 33.6158 40.1552C40.0097 36.9298 47.7158 39.0689 51.6175 44.8598L50.0324 45.6594ZM26.5395 61.4482C26.5615 61.4371 26.5851 61.441 26.607 61.4299C26.629 61.4188 26.6407 61.3991 26.6619 61.3864L31.2478 59.0731C31.2698 59.062 31.2934 59.0658 31.3153 59.0547C31.3373 59.0437 31.349 59.024 31.3702 59.0113L35.9561 56.6979C35.978 56.6868 36.0016 56.6907 36.0236 56.6796C36.0456 56.6685 36.0573 56.6488 36.0785 56.6362L45.4024 51.9326C45.4244 51.9215 45.448 51.9254 45.47 51.9143C45.492 51.9032 45.5037 51.8835 45.5249 51.8709L50.1107 49.5575C50.1327 49.5464 50.1563 49.5503 50.1783 49.5392C50.2002 49.5281 50.212 49.5084 50.2331 49.4957L54.819 47.1824C54.841 47.1713 54.8646 47.1751 54.8865 47.164C54.9085 47.153 54.9202 47.1333 54.9414 47.1206L59.5273 44.8072C59.5492 44.7961 59.5728 44.8 59.5948 44.7889C59.6168 44.7778 59.6285 44.7581 59.6497 44.7455L67.3681 40.8518C67.3901 40.8408 67.4137 40.8446 67.4357 40.8335C67.4576 40.8224 67.4694 40.8027 67.4905 40.7901L72.0764 38.4767C72.0984 38.4656 72.122 38.4695 72.1439 38.4584C72.1659 38.4473 72.1776 38.4276 72.1988 38.4149L76.7847 36.1016C76.8067 36.0905 76.8302 36.0943 76.8522 36.0832C76.8742 36.0722 76.8859 36.0525 76.9071 36.0398L80.8887 34.0312L74.6654 52.9211L58.2383 61.208C58.1786 61.2381 58.1142 61.2587 58.053 61.2896C57.9918 61.3205 57.9369 61.36 57.8773 61.3901L41.4501 69.6769L22.5594 63.456L26.5395 61.4482ZM67.1893 37.0044C65.1213 34.6573 61.6675 33.8796 58.7468 35.3529C57.9087 35.7757 57.1765 36.3498 56.5815 37.0398C56.1807 36.6159 55.7571 36.2173 55.3281 35.8274C56.0664 34.9922 56.9491 34.291 57.9566 33.7827C61.75 31.8692 66.2859 32.9693 68.8262 36.1786L67.1893 37.0044ZM71.9981 34.5786C68.5452 29.6501 61.9007 27.8555 56.3732 30.6439C54.8995 31.3873 53.6045 32.4186 52.5453 33.6636C52.0458 33.3368 51.5439 33.0171 51.0248 32.7296C52.2646 31.2143 53.8128 29.9667 55.5815 29.0744C61.9754 25.849 69.6815 27.9881 73.5832 33.779L71.9981 34.5786ZM58.8557 39.8893C59.1971 39.2937 59.704 38.8077 60.3302 38.4918C61.49 37.9067 62.8175 38.0364 63.837 38.6955L59.496 40.8854C59.2896 40.5465 59.077 40.2147 58.8557 39.8893ZM59.8217 64.3468C67.5751 60.5576 76.9883 63.7 80.8867 71.4279C84.8159 79.217 81.6763 88.7489 73.8872 92.6781C66.0982 96.6074 56.5663 93.4677 52.637 85.6787C48.7386 77.9508 51.8055 68.5127 59.4607 64.5289L59.8217 64.3468ZM103.907 89.3552L53.3745 114.847L22.1878 67.0357L41.0383 73.2434C41.2563 73.3166 41.4883 73.3432 41.7217 73.3259C41.9536 73.3094 42.1782 73.2472 42.3822 73.1443L49.7334 69.4359C46.869 74.8028 46.5554 81.4285 49.4982 87.2621C54.2999 96.7807 65.9521 100.619 75.4707 95.817C84.9892 91.0152 88.8273 79.363 84.0255 69.8445C81.0827 64.0109 75.5675 60.3256 69.5474 59.4406L76.9002 55.7314C77.1042 55.6285 77.2876 55.4848 77.4387 55.3081C77.5914 55.1307 77.7078 54.9283 77.7786 54.7095L83.9879 35.8621L103.907 89.3552ZM53.2064 24.3662C62.1992 19.8297 73.0857 23.0046 78.3228 31.388L76.7534 32.1797C71.9612 24.6587 62.1261 21.8353 53.9981 25.9356C51.5058 27.1928 49.3946 29.0375 47.7611 31.2673C47.1723 31.0524 46.5766 30.8666 45.9715 30.7014C47.8022 28.0236 50.2621 25.8514 53.2064 24.3662ZM31.2407 35.447C40.2335 30.9105 51.12 34.0854 56.3572 42.4688L54.7877 43.2605C49.9955 35.7394 40.1605 32.9161 32.0324 37.0164C23.9028 41.1174 20.3286 50.7051 23.5279 59.0298L21.9585 59.8215C18.3284 50.6274 22.2447 39.985 31.2407 35.447Z" fill="currentColor" stroke="currentColor" mask="url(#path-1-inside-1_1_964)"/>
<path d="M24.6437 26.2848C24.5224 25.7902 24.193 25.2959 23.7134 24.8217C23.2314 24.3452 22.5832 23.8746 21.7969 23.4293C19.2847 22.0061 17.8584 20.3449 17.4728 18.5101L17.4728 18.51C17.0511 16.5059 18.0578 15.0827 18.1644 14.9395L18.1645 14.9393C18.6625 14.2693 19.6042 14.1315 20.2748 14.6299C20.9318 15.1191 21.0767 16.0423 20.6057 16.7088L20.6003 16.7164L20.5955 16.7245C20.5403 16.8166 20.2756 17.2898 20.4371 17.9506L20.4371 17.9506C20.558 18.4446 20.8875 18.939 21.3672 19.4134C21.8493 19.8901 22.4977 20.3611 23.284 20.8064C25.7962 22.2296 27.2225 23.8908 27.6081 25.7256L27.6081 25.7257C28.0297 27.729 27.0238 29.152 26.9166 29.2961C26.772 29.489 26.5892 29.6385 26.3876 29.7402C25.8927 29.9898 25.2804 29.9571 24.8059 29.6057C24.1381 29.1082 23.9994 28.1634 24.4965 27.4957L24.5888 27.3717L24.5737 27.3419C24.5967 27.2862 24.6226 27.2134 24.6447 27.1261C24.6972 26.918 24.7279 26.626 24.6437 26.2848ZM24.6437 26.2848C24.6437 26.2848 24.6437 26.2849 24.6437 26.285L24.4009 26.3445L24.6436 26.2846C24.6437 26.2847 24.6437 26.2847 24.6437 26.2848Z" fill="currentColor" stroke="currentColor" stroke-width="0.5"/>
<path d="M37.2003 19.9503C37.079 19.4558 36.7496 18.9614 36.27 18.4872C35.788 18.0107 35.1398 17.5401 34.3536 17.0948C31.8413 15.6717 30.415 14.0104 30.0294 12.1756L30.0294 12.1755C29.6077 10.1715 30.6144 8.74821 30.7211 8.605L30.7213 8.60468C31.2176 7.9357 32.1608 7.79701 32.8315 8.29543C33.4884 8.78463 33.6333 9.70785 33.1624 10.3743L33.157 10.382L33.1522 10.39C33.0969 10.4821 32.8323 10.9553 32.9938 11.6161L32.9938 11.6161C33.1146 12.1101 33.4442 12.6046 33.9239 13.0789C34.4059 13.5556 35.0543 14.0266 35.8406 14.472C38.3528 15.8951 39.7792 17.5563 40.1647 19.3912L40.1648 19.3912C40.5863 21.3947 39.5803 22.8177 39.4732 22.9616C39.3287 23.1545 39.1458 23.304 38.9442 23.4057C38.4494 23.6554 37.837 23.6227 37.3625 23.2712C36.6947 22.7738 36.5561 21.829 37.0532 21.1612L37.1454 21.0373L37.1304 21.0074C37.1534 20.9517 37.1793 20.879 37.2013 20.7916C37.2539 20.5835 37.2845 20.2916 37.2003 19.9503ZM37.2003 19.9503C37.2003 19.9504 37.2004 19.9504 37.2004 19.9505L36.9576 20.01L37.2003 19.9501C37.2003 19.9502 37.2003 19.9502 37.2003 19.9503Z" fill="currentColor" stroke="currentColor" stroke-width="0.5"/>
<path d="M45.5392 1.76006C44.7581 1.17954 43.6581 1.34068 43.0791 2.121M45.5392 1.76006L45.3899 1.96059C45.3899 1.96063 45.39 1.96067 45.3901 1.96071M45.5392 1.76006L45.3901 1.96071M45.5392 1.76006C46.3053 2.33041 46.4742 3.4068 45.9252 4.18387C45.8845 4.25162 45.6564 4.65414 45.7952 5.22202C46.0066 6.086 46.9762 7.04397 48.5224 7.91971M43.0791 2.121L46.7889 10.9776C48.3336 11.8541 49.304 12.8098 49.5162 13.6753C49.65 14.2178 49.4464 14.6091 49.4152 14.6692C49.4125 14.6742 49.4111 14.677 49.4112 14.6772C48.8315 15.456 48.9934 16.5575 49.7722 17.1373M43.0791 2.121C42.9571 2.28495 41.8996 3.78313 42.3434 5.89229M43.0791 2.121L42.3434 5.89229M45.3901 1.96071C44.7194 1.4623 43.7762 1.60099 43.2799 2.26996L43.2797 2.27029C43.173 2.4135 42.1663 3.83676 42.588 5.84081L42.588 5.84088C42.9736 7.67572 44.3999 9.33694 46.9121 10.7601L46.9123 10.7602C47.6977 11.2058 48.3458 11.6764 48.8279 12.1527C49.3077 12.6267 49.6376 13.1209 49.7589 13.6156C49.8431 13.9568 49.8125 14.2488 49.7599 14.4569C49.7379 14.5443 49.7119 14.617 49.689 14.6727M45.3901 1.96071C46.047 2.44991 46.1919 3.37313 45.721 4.0396L45.7156 4.04725L45.7108 4.05528C45.6555 4.14741 45.3908 4.62063 45.5524 5.28138L45.5524 5.28143C45.6732 5.77537 46.0027 6.26984 46.4825 6.74422C46.9645 7.2209 47.6129 7.6919 48.3992 8.13725M49.689 14.6727L49.6344 14.5646C49.6647 14.6246 49.6616 14.6788 49.6608 14.6924C49.6595 14.7132 49.6559 14.7293 49.654 14.7368C49.6502 14.7524 49.6456 14.7641 49.6442 14.7677C49.6408 14.7765 49.6376 14.783 49.6372 14.7838C49.6357 14.7869 49.6347 14.7889 49.6357 14.7869L49.6441 14.7707C49.6522 14.7548 49.6634 14.7318 49.6763 14.7025C49.6804 14.6932 49.6846 14.6832 49.689 14.6727ZM49.689 14.6727L49.704 14.7026L49.6118 14.8265C49.1147 15.4943 49.2533 16.439 49.9211 16.9365M49.9211 16.9365C49.9211 16.9364 49.921 16.9364 49.921 16.9364L49.7722 17.1373M49.9211 16.9365C49.9212 16.9366 49.9213 16.9366 49.9215 16.9367L49.7722 17.1373M49.9211 16.9365C50.3956 17.288 51.0079 17.3206 51.5028 17.071C51.7044 16.9693 51.8873 16.8198 52.0318 16.6269M49.7722 17.1373C50.3255 17.5472 51.0394 17.5848 51.6154 17.2942C51.8508 17.1755 52.064 17.001 52.2322 16.7763C52.3543 16.6124 53.4118 15.1142 52.968 13.005C52.5618 11.0718 51.0667 9.36105 48.5224 7.91971M42.3434 5.89229L42.3434 5.89229L42.3434 5.89229ZM52.0318 16.6269C52.0318 16.6269 52.0317 16.627 52.0317 16.627L52.2322 16.7763L52.0321 16.6265C52.032 16.6266 52.0319 16.6268 52.0318 16.6269ZM52.0318 16.6269C52.1389 16.483 53.1449 15.06 52.7233 13.0565L52.7233 13.0564C52.3378 11.2216 50.9114 9.5604 48.3992 8.13725M48.3992 8.13725L48.5224 7.91971M48.3992 8.13725C48.3992 8.13724 48.3992 8.13724 48.3992 8.13723L48.5224 7.91971" fill="currentColor" stroke="currentColor" stroke-width="0.5"/>
<path d="M70.6087 86.1775C66.405 88.2981 61.2594 86.6032 59.1388 82.3996C57.0182 78.1959 58.7131 73.0503 62.9168 70.9297C67.1204 68.8091 72.2661 70.504 74.3866 74.7077C76.5072 78.9113 74.8123 84.057 70.6087 86.1775ZM69.2504 83.4851C71.9696 82.1134 73.0659 78.785 71.6942 76.0659C70.3225 73.3468 66.9941 72.2505 64.275 73.6221C61.5559 74.9938 60.4596 78.3222 61.8312 81.0413C63.2029 83.7605 66.5313 84.8568 69.2504 83.4851Z" fill="currentColor" stroke="currentColor" stroke-width="0.5"/>
</g>
<defs>
<clipPath id="clip0_1_964">
<rect width="112.5" height="120" fill="white"/>
</clipPath>
</defs>
</svg>
