<svg width="22" height="22" viewBox="0 0 22 22" fill="none" xmlns="http://www.w3.org/2000/svg">
<mask id="mask0_1_8292" style="mask-type:alpha" maskUnits="userSpaceOnUse" x="0" y="0" width="22" height="22">
<rect width="22" height="22" fill="#D9D9D9"/>
</mask>
<g mask="url(#mask0_1_8292)">
<path d="M11.0007 20.1667C9.7326 20.1667 8.54093 19.9261 7.42565 19.4448C6.31037 18.9636 5.34023 18.3105 4.51523 17.4855C3.69023 16.6605 3.03711 15.6903 2.55586 14.575C2.07461 13.4598 1.83398 12.2681 1.83398 11C1.83398 9.73199 2.07461 8.54032 2.55586 7.42504C3.03711 6.30976 3.69023 5.33962 4.51523 4.51462C5.34023 3.68962 6.31037 3.0365 7.42565 2.55525C8.54093 2.074 9.7326 1.83337 11.0007 1.83337C12.284 1.83337 13.4795 2.074 14.5871 2.55525C15.6947 3.0365 16.6611 3.68962 17.4861 4.51462C18.3111 5.33962 18.9642 6.30594 19.4454 7.41358C19.9267 8.52122 20.1673 9.71671 20.1673 11C20.1673 11.1528 20.1635 11.3018 20.1559 11.4469C20.1482 11.5921 20.1368 11.7334 20.1215 11.8709C20.0909 12.1306 19.9802 12.3292 19.7892 12.4667C19.5982 12.6042 19.3729 12.65 19.1132 12.6042C18.8534 12.5584 18.6472 12.4285 18.4944 12.2146C18.3416 12.0007 18.2805 11.7639 18.3111 11.5042C18.3111 11.4278 18.3149 11.3438 18.3225 11.2521C18.3302 11.1605 18.334 11.0764 18.334 11C18.334 9.97643 18.1468 9.02157 17.7725 8.13546C17.3982 7.24935 16.875 6.47018 16.2027 5.79796C15.5305 5.12574 14.7513 4.60247 13.8652 4.22817C12.9791 3.85386 12.0243 3.66671 11.0007 3.66671C8.95343 3.66671 7.2194 4.37712 5.79857 5.79796C4.37773 7.21879 3.66732 8.95282 3.66732 11C3.66732 13.0473 4.37773 14.7813 5.79857 16.2021C7.2194 17.623 8.95343 18.3334 11.0007 18.3334C11.6882 18.3334 12.3489 18.2455 12.9829 18.0698C13.617 17.8941 14.2166 17.6306 14.7819 17.2792C14.9958 17.157 15.2288 17.1112 15.4809 17.1417C15.7329 17.1723 15.9277 17.2945 16.0652 17.5084C16.218 17.7223 16.2677 17.9552 16.2142 18.2073C16.1607 18.4594 16.027 18.6542 15.8132 18.7917C15.0951 19.2348 14.335 19.5747 13.5329 19.8115C12.7309 20.0483 11.8868 20.1667 11.0007 20.1667ZM17.6465 16.5C17.3257 16.5 17.0545 16.3893 16.8329 16.1677C16.6114 15.9462 16.5007 15.675 16.5007 15.3542C16.5007 15.0334 16.6114 14.7622 16.8329 14.5407C17.0545 14.3191 17.3257 14.2084 17.6465 14.2084C17.9673 14.2084 18.2385 14.3191 18.46 14.5407C18.6816 14.7622 18.7923 15.0334 18.7923 15.3542C18.7923 15.675 18.6816 15.9462 18.46 16.1677C18.2385 16.3893 17.9673 16.5 17.6465 16.5ZM11.9173 10.6334L14.6673 13.3834C14.8354 13.5514 14.9194 13.7653 14.9194 14.025C14.9194 14.2848 14.8354 14.4987 14.6673 14.6667C14.4993 14.8348 14.2854 14.9188 14.0257 14.9188C13.7659 14.9188 13.552 14.8348 13.384 14.6667L10.359 11.6417C10.2673 11.55 10.1986 11.4469 10.1527 11.3323C10.1069 11.2177 10.084 11.0993 10.084 10.9771V7.33337C10.084 7.07365 10.1718 6.85594 10.3475 6.68025C10.5232 6.50455 10.7409 6.41671 11.0007 6.41671C11.2604 6.41671 11.4781 6.50455 11.6538 6.68025C11.8295 6.85594 11.9173 7.07365 11.9173 7.33337V10.6334Z" fill="currentColor"/>
</g>
</svg>
