<svg width="120" height="120" viewBox="0 0 120 120" fill="none" xmlns="http://www.w3.org/2000/svg">
<path d="M70.4002 42.0643C72.7716 42.0643 74.7012 43.9949 74.7012 46.368C74.7012 48.7409 72.7718 50.6716 70.4002 50.6716C68.0286 50.6716 66.0992 48.7409 66.0992 46.368C66.0994 43.9946 68.0288 42.0643 70.4002 42.0643ZM70.4002 48.1611C71.3883 48.1611 72.1926 47.3566 72.1926 46.3678C72.1926 45.379 71.3886 44.5742 70.4002 44.5742C69.4118 44.5742 68.6078 45.3788 68.6078 46.3678C68.6078 47.3568 69.412 48.1611 70.4002 48.1611Z" fill="currentColor"/>
<path d="M72.916 31.4784C72.916 35.0116 70.0437 37.886 66.5128 37.886C62.982 37.886 60.1094 35.0116 60.1094 31.4784C60.1094 27.9453 62.982 25.0709 66.5128 25.0709C70.0437 25.0709 72.916 27.9453 72.916 31.4784ZM62.618 31.4784C62.618 33.6274 64.3652 35.3758 66.5128 35.3758C68.6604 35.3758 70.4074 33.6274 70.4074 31.4784C70.4074 29.3294 68.6602 27.5811 66.5128 27.5811C64.365 27.5811 62.618 29.3294 62.618 31.4784Z" fill="currentColor"/>
<path d="M79.2806 31.1047C79.8546 30.7164 80.6343 30.867 81.0221 31.4413C81.7431 32.5079 82.9346 34.6659 82.8182 37.1347C82.7866 37.807 82.232 38.3308 81.5664 38.3308C81.5466 38.3308 81.5266 38.3303 81.5065 38.3296C80.8144 38.297 80.2798 37.7091 80.3127 37.0167C80.3947 35.2729 79.4906 33.6561 78.9442 32.8478C78.5564 32.2732 78.7069 31.493 79.2806 31.1047Z" fill="currentColor"/>
<path d="M39.6072 42.4514C37.2358 42.4514 35.3062 40.5208 35.3062 38.1479C35.3062 35.7747 37.2356 33.8441 39.6072 33.8441C41.9788 33.8441 43.9082 35.7747 43.9082 38.1479C43.908 40.5208 41.9786 42.4514 39.6072 42.4514ZM39.6072 36.3543C38.6191 36.3543 37.8148 37.1589 37.8148 38.1479C37.8148 39.1369 38.6188 39.9412 39.6072 39.9412C40.5956 39.9412 41.3996 39.1367 41.3996 38.1479C41.3996 37.1591 40.5954 36.3543 39.6072 36.3543Z" fill="currentColor"/>
<path d="M94.1437 55.9817C97.6745 55.9817 100.547 53.1073 100.547 49.5741C100.547 46.041 97.6745 43.1666 94.1437 43.1666C90.6128 43.1666 87.7402 46.041 87.7402 49.5741C87.7402 53.1073 90.6128 55.9817 94.1437 55.9817ZM94.1437 45.6768C96.2913 45.6768 98.0383 47.4251 98.0383 49.5741C98.0383 51.7231 96.291 53.4715 94.1437 53.4715C91.9958 53.4715 90.2488 51.7231 90.2488 49.5741C90.2488 47.4251 91.9958 45.6768 94.1437 45.6768Z" fill="currentColor"/>
<path d="M82.992 64.6005C80.6206 64.6005 78.691 62.6698 78.691 60.2969C78.691 57.9238 80.6204 55.9932 82.992 55.9932C85.3636 55.9932 87.293 57.9238 87.293 60.2969C87.293 62.6698 85.3634 64.6005 82.992 64.6005ZM82.992 58.5034C82.0038 58.5034 81.1996 59.3079 81.1996 60.2969C81.1996 61.286 82.0036 62.0902 82.992 62.0902C83.9804 62.0902 84.7844 61.2857 84.7844 60.2969C84.7844 59.3082 83.9804 58.5034 82.992 58.5034Z" fill="currentColor"/>
<path d="M24.9347 40.4776C28.4655 40.4776 31.3379 37.6031 31.3379 34.07C31.3379 30.5369 28.4655 27.6624 24.9347 27.6624C21.4038 27.6624 18.5313 30.5369 18.5313 34.07C18.5313 37.6031 21.4038 40.4776 24.9347 40.4776ZM24.9347 30.1724C27.0823 30.1724 28.8293 31.9208 28.8293 34.0697C28.8293 36.2187 27.0821 37.9671 24.9347 37.9671C22.7868 37.9671 21.0398 36.2187 21.0398 34.0697C21.0398 31.9208 22.7871 30.1724 24.9347 30.1724Z" fill="currentColor"/>
<path d="M101.227 62.4293C100.664 63.5873 99.3918 65.6991 97.1975 66.8325C96.5947 67.1473 95.8268 66.9148 95.5077 66.2928C95.1899 65.6768 95.4314 64.9197 96.0471 64.6019C97.5969 63.8017 98.5444 62.2094 98.9711 61.3314C99.2739 60.7083 100.024 60.4485 100.648 60.7518C101.271 61.055 101.53 61.806 101.227 62.4293Z" fill="currentColor"/>
<path d="M76.941 83.0577C74.5696 83.0577 72.64 81.1271 72.64 78.7542C72.64 76.3811 74.5693 74.4504 76.941 74.4504C79.3126 74.4504 81.242 76.3811 81.242 78.7542C81.242 81.1271 79.3126 83.0577 76.941 83.0577ZM76.941 76.9609C75.9528 76.9609 75.1486 77.7654 75.1486 78.7545C75.1486 79.7435 75.9526 80.5478 76.941 80.5478C77.9294 80.5478 78.7334 79.7432 78.7334 78.7545C78.7334 77.7657 77.9294 76.9609 76.941 76.9609ZM91.9288 89.3523C95.4597 89.3523 98.332 86.4779 98.332 82.9448C98.332 79.4116 95.4597 76.5372 91.9288 76.5372C88.398 76.5372 85.5254 79.4116 85.5254 82.9448C85.5254 86.4779 88.398 89.3523 91.9288 89.3523ZM91.9288 79.0474C94.0764 79.0474 95.8234 80.7958 95.8234 82.9448C95.8234 85.0938 94.0762 86.8421 91.9288 86.8421C89.781 86.8421 88.034 85.0938 88.034 82.9448C88.034 80.7958 89.7812 79.0474 91.9288 79.0474Z" fill="currentColor"/>
<path d="M84.511 95.4332C84.2717 95.4503 83.9915 95.4626 83.6801 95.4626C82.3225 95.4626 80.3766 95.2294 78.6858 94.1432C78.103 93.7687 77.9337 92.9923 78.3077 92.4089C78.682 91.8255 79.4579 91.6563 80.0409 92.0309C81.5094 92.974 83.3605 92.998 84.3331 92.9295C85.9497 92.7897 86.1388 95.3418 84.511 95.4332Z" fill="currentColor"/>
<path d="M58.2107 86.8257C55.8394 86.8257 53.9097 84.8951 53.9097 82.5222C53.9097 80.1491 55.8391 78.2184 58.2107 78.2184C60.5824 78.2184 62.5117 80.1491 62.5117 82.5222C62.5117 84.8951 60.5821 86.8257 58.2107 86.8257ZM58.2107 80.7287C57.2226 80.7287 56.4183 81.5332 56.4183 82.5222C56.4183 83.5112 57.2223 84.3155 58.2107 84.3155C59.1991 84.3155 60.0031 83.511 60.0031 82.5222C60.0031 81.5334 59.1991 80.7287 58.2107 80.7287Z" fill="currentColor"/>
<path d="M55.6953 97.4117C55.6953 93.8785 58.5679 91.0041 62.0988 91.0041C65.6296 91.0041 68.502 93.8785 68.502 97.4117C68.502 100.945 65.6296 103.819 62.0988 103.819C58.5679 103.819 55.6953 100.945 55.6953 97.4117ZM65.9936 97.4117C65.9936 95.2627 64.2464 93.5143 62.099 93.5143C59.9511 93.5143 58.2042 95.2627 58.2042 97.4117C58.2042 99.5607 59.9514 101.309 62.099 101.309C64.2464 101.309 65.9936 99.5607 65.9936 97.4117Z" fill="currentColor"/>
<path d="M49.3311 97.785C48.7647 98.1703 47.9798 98.0267 47.5897 97.4484C46.8687 96.3815 45.6771 94.2237 45.7938 91.7549C45.8264 91.0629 46.4126 90.5317 47.1058 90.5606C47.7976 90.5935 48.3322 91.1813 48.2994 91.8737C48.2171 93.617 49.1212 95.2338 49.6675 96.0424C50.0554 96.6162 49.9049 97.3966 49.3311 97.785Z" fill="currentColor"/>
<path d="M34.6749 85.3659C38.2058 85.3659 41.0781 82.4915 41.0781 78.9584C41.0781 75.4252 38.2058 72.5508 34.6749 72.5508C31.1441 72.5508 28.2715 75.4252 28.2715 78.9584C28.2715 82.4915 31.1441 85.3659 34.6749 85.3659ZM34.6749 75.061C36.8225 75.061 38.5695 76.8094 38.5695 78.9584C38.5695 81.1074 36.8223 82.8557 34.6749 82.8557C32.5271 82.8557 30.7801 81.1074 30.7801 78.9584C30.7801 76.8094 32.5271 75.061 34.6749 75.061Z" fill="currentColor"/>
<path d="M45.658 72.4268C43.2866 72.4268 41.357 70.4962 41.357 68.1233C41.357 65.7501 43.2864 63.8195 45.658 63.8195C48.0296 63.8195 49.959 65.7501 49.959 68.1233C49.9587 70.4962 48.0294 72.4268 45.658 72.4268ZM45.658 66.33C44.6699 66.33 43.8656 67.1345 43.8656 68.1235C43.8656 69.1126 44.6696 69.9168 45.658 69.9168C46.6464 69.9168 47.4504 69.1123 47.4504 68.1235C47.4504 67.1348 46.6461 66.33 45.658 66.33Z" fill="currentColor"/>
<path d="M32.5629 64.2887C31.0126 65.0892 30.0656 66.6812 29.6394 67.5588C29.3353 68.1886 28.572 68.4391 27.9626 68.1389C27.3398 67.8357 27.0801 67.0849 27.3829 66.4613C27.9456 65.3034 29.2172 63.1915 31.4122 62.0579C32.0276 61.7401 32.7844 61.9816 33.102 62.5976C33.4201 63.2139 33.1785 63.9707 32.5629 64.2887Z" fill="currentColor"/>
<path d="M0.426384 32.4904C6.02934 17.7913 17.6549 6.10799 32.3214 0.436408C35.708 -0.960277 39.8673 1.13801 40.7383 4.70127L53.4034 51.9988C53.6658 52.8728 52.8061 53.7728 51.9219 53.5494L43.8366 51.7661V55.7129C43.8366 56.3663 43.7075 56.9891 43.4799 57.5622L62.532 62.6705L50.423 17.4489C49.403 13.9512 51.9153 10.0568 55.5222 9.55277C70.9726 6.99134 87.269 11.3227 99.3951 21.2122C101.113 22.5913 102.006 24.8651 101.673 27.0447C103.851 26.7061 106.128 27.5924 107.512 29.3082C117.457 41.4368 121.832 57.7635 119.291 73.2621C119.009 75.026 117.987 76.5952 116.486 77.5676C116.132 77.7978 115.756 77.9868 115.369 78.1399C116.752 79.8695 117.111 82.2939 116.306 84.3593C110.637 99.1085 98.9194 110.784 84.1571 116.391C82.096 117.186 79.6677 116.819 77.9455 115.427C77.1438 117.479 75.2348 119.001 73.0613 119.328C57.6387 121.79 41.4276 117.405 29.3666 107.504C27.6522 106.119 26.7659 103.842 27.1048 101.662C24.8614 102.012 22.577 101.025 21.1717 99.2529C13.2614 89.4249 8.9072 77.0595 8.9072 64.4146C8.9072 61.5 9.13573 58.5715 9.58678 55.7112C10.164 51.4679 14.9376 49.3026 18.7213 50.9234V45.3974L4.69802 40.8886C1.1461 40.0188 -0.950584 35.8764 0.426384 32.4904ZM28.765 53.6164L33.7922 54.9644V46.1169C33.7922 44.73 32.6646 43.6016 31.2786 43.6016C29.8926 43.6016 28.7647 44.73 28.7647 46.1169V53.6164H28.765ZM34.1888 57.6694L28.765 56.2152V60.7396C28.765 63.5107 26.5123 65.7651 23.7428 65.7651C23.1523 65.7651 22.5878 65.6571 22.0613 65.4691C22.2848 75.761 26.49 85.9241 33.6096 93.3857L61.8825 65.0948L41.8333 59.7192C40.9919 60.3558 39.9481 60.7381 38.8144 60.7381C36.7386 60.7379 34.953 59.471 34.1888 57.6694ZM95.001 35.5044L66.7286 63.7953L105.449 74.1773C108.763 60.5072 104.718 45.6688 95.001 35.5044ZM66.0796 66.2202L76.4547 104.966C89.9427 101.002 100.761 90.0783 104.701 76.5753L66.0796 66.2202ZM63.6563 66.8698L35.3107 95.2335C45.485 104.94 60.3492 108.854 74.0045 105.516L63.6563 66.8698ZM64.9548 62.0203L93.3002 33.6564C83.1255 23.9499 68.2619 20.0359 54.6063 23.3743L64.9548 62.0203ZM97.8151 23.1622C86.2382 13.7197 70.6749 9.5844 55.9231 12.0304C53.7423 12.3298 52.2241 14.6867 52.8455 16.7988L53.9576 20.9517C68.4696 17.3759 84.274 21.5443 95.0737 31.8817L98.717 28.2363C99.683 26.2899 99.2395 24.3169 97.8151 23.1622ZM116.814 72.8642C119.24 58.0652 115.063 42.4755 105.568 30.8946C104.218 29.152 101.416 29.0097 99.8975 30.605L96.7733 33.7309C107.124 44.5183 111.419 60.2996 107.872 74.8267L112.049 75.9465C114.158 76.5595 116.521 75.0506 116.814 72.8642ZM83.2665 114.044C97.3623 108.69 108.552 97.5417 113.964 83.4581C114.801 81.4105 113.55 78.8897 111.392 78.3694L107.121 77.2242C102.96 91.5882 91.4501 103.2 77.1039 107.39L78.1851 111.428C79.1346 114.237 82.2473 114.431 83.2665 114.044ZM30.6622 99.885C29.0668 101.406 29.2113 104.207 30.9517 105.559C42.4669 115.013 57.949 119.199 72.6742 116.848C74.8635 116.564 76.3754 114.191 75.7618 112.079L74.6533 107.938C60.1415 111.514 44.3366 107.346 33.5371 97.0085L30.6743 99.8734C30.6705 99.8764 30.6655 99.8817 30.6622 99.885ZM16.8306 53.0154C14.7199 52.4019 12.352 53.9131 12.0643 56.1025C11.6335 58.8341 11.4153 61.6307 11.4153 64.4148C11.4153 76.5417 15.6092 88.3985 23.2243 97.8015C24.5709 99.5501 27.3752 99.6969 28.898 98.1004L31.8375 95.1592C23.7814 86.749 19.268 75.1312 19.5479 63.4951C19.0266 62.7031 18.7211 61.757 18.7211 60.7399V53.5225L16.8306 53.0154ZM20.3933 43.3267C20.8945 43.5042 21.2294 43.9781 21.2294 44.5101V60.7396C21.2294 62.1265 22.357 63.2549 23.743 63.2549C25.129 63.2549 26.2566 62.1265 26.2566 60.7396V46.1169C26.2566 43.3458 28.5096 41.0914 31.2791 41.0914C34.0486 41.0914 36.3013 43.3458 36.3013 46.1169V55.7127C36.3013 57.0996 37.4289 58.2279 38.8149 58.2279C40.2009 58.2279 41.3286 57.0996 41.3286 55.7127V50.204C41.3087 49.4258 42.0982 48.7917 42.8528 48.9782L50.4465 50.6531L40.0728 11.9134C26.5562 16.0316 15.9109 26.7606 11.8949 40.3185L20.3933 43.3267ZM2.77016 33.385C2.07101 35.218 2.82535 37.4413 4.94035 38.3548L9.49421 39.576C13.7638 25.1992 25.0736 13.8277 39.422 9.48549L38.3147 5.35066C37.7952 3.18961 35.2715 1.93702 33.2258 2.77769C19.221 8.19348 8.12025 19.3494 2.77016 33.385Z" fill="currentColor"/>
<path d="M31.9141 21.5177C33.1965 21.4265 35.6612 21.4725 37.7396 22.8077C38.3226 23.1822 38.4917 23.9586 38.1174 24.542C37.7409 25.1301 36.9589 25.2915 36.3845 24.92C34.9162 23.9767 33.0638 23.9526 32.0923 24.0214C31.4031 24.0731 30.8013 23.5499 30.7522 22.8584C30.7027 22.1671 31.223 21.5666 31.9141 21.5177Z" fill="currentColor"/>
</svg>
