<svg width="24" height="25" viewBox="0 0 24 25" fill="none" xmlns="http://www.w3.org/2000/svg">
<mask id="mask0_1_8311" style="mask-type:alpha" maskUnits="userSpaceOnUse" x="0" y="0" width="24" height="25">
<rect y="0.5" width="24" height="24" fill="#D9D9D9"/>
</mask>
<g mask="url(#mask0_1_8311)">
<path d="M9.77344 16.7727C7.95677 16.7727 6.41927 16.1435 5.16094 14.8852C3.9026 13.6269 3.27344 12.0894 3.27344 10.2727C3.27344 8.45604 3.9026 6.91854 5.16094 5.66021C6.41927 4.40187 7.95677 3.77271 9.77344 3.77271C11.5901 3.77271 13.1276 4.40187 14.3859 5.66021C15.6443 6.91854 16.2734 8.45604 16.2734 10.2727C16.2734 11.006 16.1568 11.6977 15.9234 12.3477C15.6901 12.9977 15.3734 13.5727 14.9734 14.0727L19.5734 18.6727C19.7568 18.856 19.8484 19.0894 19.8484 19.3727C19.8484 19.656 19.7568 19.8894 19.5734 20.0727C19.3901 20.256 19.1568 20.3477 18.8734 20.3477C18.5901 20.3477 18.3568 20.256 18.1734 20.0727L13.5734 15.4727C13.0734 15.8727 12.4984 16.1894 11.8484 16.4227C11.1984 16.656 10.5068 16.7727 9.77344 16.7727ZM9.77344 14.7727C11.0234 14.7727 12.0859 14.3352 12.9609 13.4602C13.8359 12.5852 14.2734 11.5227 14.2734 10.2727C14.2734 9.02271 13.8359 7.96021 12.9609 7.08521C12.0859 6.21021 11.0234 5.77271 9.77344 5.77271C8.52344 5.77271 7.46094 6.21021 6.58594 7.08521C5.71094 7.96021 5.27344 9.02271 5.27344 10.2727C5.27344 11.5227 5.71094 12.5852 6.58594 13.4602C7.46094 14.3352 8.52344 14.7727 9.77344 14.7727Z" fill="currentColor"/>
</g>
</svg>
