<svg width="120" height="120" viewBox="0 0 120 120" fill="none" xmlns="http://www.w3.org/2000/svg">
<g clip-path="url(#clip0_1_34)">
<path d="M74.4764 30.8129L74.5946 30.8943L74.7115 30.8135L76.5516 29.5405C78.8278 27.9658 82.0008 28.4784 83.625 30.6772C85.2493 32.8761 84.7236 35.9473 82.4474 37.522L80.8734 38.6109L80.7257 38.7131L80.816 38.8677L113.339 94.5158C113.73 95.1836 113.538 96.0318 112.889 96.4805L76.6634 121.541C76.0148 121.99 75.1233 121.891 74.5968 121.318L74.4459 121.448L74.5968 121.318L30.7133 73.5282L30.5914 73.3954L30.4436 73.4976L28.8697 74.5865C26.5934 76.1612 23.4203 75.6484 21.7962 73.4497C20.1721 71.2511 20.6977 68.1796 22.9739 66.6049L24.814 65.332L24.9309 65.2511L24.8896 65.1165L22.0692 55.9312L21.8748 55.9858L22.0692 55.9312C21.8805 55.3171 22.1153 54.6526 22.6564 54.2783L39.3393 42.7372L39.5038 42.6234L39.3849 42.4626L30.357 30.2409C28.2282 27.3589 28.2227 23.4818 30.3469 20.5929L30.1813 20.4773L30.3469 20.5929L44.0712 1.92577C44.0712 1.92576 44.0712 1.92575 44.0712 1.92574C44.3109 1.59986 44.674 1.37983 45.0813 1.31312C45.4884 1.24685 45.9056 1.3396 46.2407 1.57056L46.2408 1.57062L51.9698 5.51546L52.086 5.3551L51.9698 5.51548C52.6673 5.99555 52.8325 6.93353 52.3339 7.61168L39.3361 25.2905L39.2522 25.4047L39.3372 25.5198L47.636 36.7545L47.7549 36.9154L47.9193 36.8016L64.6022 25.2606C65.1433 24.8863 65.869 24.8863 66.4084 25.2579L74.4764 30.8129ZM45.8674 5.00809L45.7021 4.89433L45.5856 5.05289L32.8804 22.3341L33.0459 22.4497L32.8804 22.3341C31.5267 24.1755 31.5284 26.6492 32.8881 28.4899L41.916 40.7116L42.0348 40.8725L42.1993 40.7587L45.0593 38.7802L45.2238 38.6664L45.105 38.5055L36.0771 26.2838C35.6923 25.7629 35.6907 25.0616 36.0759 24.5377L35.9103 24.4222L36.0759 24.5377L48.7812 7.25635L48.8994 7.0957L48.7319 6.98044L45.8674 5.00809ZM109.796 94.9241L109.944 94.8219L109.854 94.6673L78.2922 40.6655L78.1803 40.474L77.9972 40.6006L33.3197 71.508L33.1366 71.6347L33.2877 71.7992L75.8729 118.175L75.9949 118.308L76.1426 118.205L109.796 94.9241ZM28.2279 65.4194L28.4223 65.3649L28.2279 65.4195C28.4166 66.0336 28.1818 66.6981 27.6407 67.0724L24.7807 69.051C23.9029 69.6582 23.6967 70.8451 24.3273 71.6988C24.9578 72.5524 26.1851 72.7477 27.0629 72.1405L80.6406 35.076C81.5184 34.4687 81.7245 33.2818 81.094 32.4282C80.4634 31.5746 79.2362 31.3792 78.3584 31.9865L75.5315 33.942L75.5274 33.945C75.5084 33.9589 75.4888 33.9725 75.4693 33.9852L75.4693 33.9852L75.465 33.9881L33.6906 62.8872C32.9899 63.3719 32.0194 63.2135 31.5217 62.5397C31.0239 61.8658 31.1831 60.9259 31.8838 60.4412L71.6863 32.9062L71.9178 32.7461L71.6838 32.585L65.6242 28.4127L65.506 28.3313L65.3891 28.4122L25.4829 56.0189L25.366 56.0997L25.4073 56.2343L28.2279 65.4194Z" fill="#EEEEF5" stroke="#FFFCF9" stroke-width="0.4"/>
</g>
<defs>
<clipPath id="clip0_1_34">
<rect width="120" height="120" fill="white"/>
</clipPath>
</defs>
</svg>
