<svg width="120" height="120" viewBox="0 0 120 120" fill="none" xmlns="http://www.w3.org/2000/svg">
<g clip-path="url(#clip0_1_951)">
<path d="M67.6886 65.8108L67.8353 65.625L67.6886 65.4392C67.5296 65.2376 67.2352 65.0203 66.8462 64.8096C66.4488 64.5944 65.9265 64.3721 65.285 64.1713C64.0013 63.7695 62.2285 63.45 60 63.45C57.7715 63.45 55.9987 63.7695 54.715 64.1713C54.0735 64.3721 53.5512 64.5944 53.1538 64.8096C52.7648 65.0203 52.4704 65.2376 52.3114 65.4392L52.1647 65.625L52.3114 65.8108C52.4704 66.0124 52.7648 66.2297 53.1538 66.4404C53.5512 66.6556 54.0735 66.8779 54.715 67.0787C55.9987 67.4805 57.7715 67.8 60 67.8C62.2285 67.8 64.0013 67.4805 65.285 67.0787C65.9265 66.8779 66.4488 66.6556 66.8462 66.4404C67.2352 66.2297 67.5296 66.0124 67.6886 65.8108ZM70.95 65.625C70.95 67.3764 69.6346 68.7057 67.538 69.612C65.452 70.5137 62.6832 70.95 60 70.95C57.3168 70.95 54.548 70.5137 52.462 69.612C50.3654 68.7057 49.05 67.3764 49.05 65.625C49.05 63.8736 50.3654 62.5443 52.462 61.638C54.548 60.7363 57.3168 60.3 60 60.3C62.6832 60.3 65.452 60.7363 67.538 61.638C69.6346 62.5443 70.95 63.8736 70.95 65.625Z" fill="currentColor" stroke="currentColor" stroke-width="0.6"/>
<path d="M89.8114 86.0642L89.6647 86.25L89.8114 86.4358C89.9704 86.6374 90.2648 86.8547 90.6538 87.0654C91.0512 87.2806 91.5735 87.5029 92.215 87.7037C93.4987 88.1055 95.2715 88.425 97.5 88.425C99.7285 88.425 101.501 88.1055 102.785 87.7037C103.427 87.5029 103.949 87.2806 104.346 87.0654C104.735 86.8547 105.03 86.6374 105.189 86.4358L105.335 86.25L105.189 86.0642C105.03 85.8626 104.735 85.6453 104.346 85.4346C103.949 85.2194 103.427 84.9971 102.785 84.7963C101.501 84.3945 99.7285 84.075 97.5 84.075C95.2715 84.075 93.4987 84.3945 92.215 84.7963C91.5735 84.9971 91.0512 85.2194 90.6538 85.4346C90.2648 85.6453 89.9704 85.8626 89.8114 86.0642ZM86.55 86.25C86.55 84.4986 87.8654 83.1693 89.962 82.263C92.048 81.3613 94.8168 80.925 97.5 80.925C100.183 80.925 102.952 81.3613 105.038 82.263C107.135 83.1693 108.45 84.4986 108.45 86.25C108.45 88.0014 107.135 89.3307 105.038 90.237C102.952 91.1387 100.183 91.575 97.5 91.575C94.8168 91.575 92.048 91.1387 89.962 90.237C87.8654 89.3307 86.55 88.0014 86.55 86.25Z" fill="currentColor" stroke="currentColor" stroke-width="0.6"/>
<path d="M97.4945 71.55H97.5C103.759 71.55 109.324 73.1849 113.315 75.8454C117.306 78.5061 119.7 82.173 119.7 86.25V105C119.7 109.077 117.306 112.744 113.315 115.405C109.324 118.065 103.759 119.7 97.5 119.7C91.2406 119.7 85.6759 118.065 81.6851 115.405C77.694 112.744 75.3 109.077 75.3 105V95.5575V95.0452L74.8532 95.2959C70.3213 97.838 65.1997 99.1414 60.0038 99.075L60.0038 99.0749L59.9962 99.075C54.8004 99.1414 49.6787 97.838 45.1468 95.2959L44.7 95.0452V95.5575V105C44.7 109.077 42.306 112.744 38.3149 115.405C34.3241 118.065 28.7594 119.7 22.5 119.7C16.2406 119.7 10.6759 118.065 6.68508 115.405C2.69399 112.744 0.3 109.077 0.3 105V86.25C0.3 82.173 2.69399 78.5061 6.68508 75.8454C10.6759 73.1849 16.2406 71.55 22.5 71.55V71.5501L22.5055 71.5499C27.6959 71.4551 32.8189 72.7359 37.354 75.2621L37.8 75.5105V75V65.625C37.8 61.548 40.194 57.8811 44.1851 55.2204C48.1759 52.5599 53.7406 50.925 60 50.925C66.2594 50.925 71.8241 52.5599 75.8149 55.2204C79.806 57.8811 82.2 61.548 82.2 65.625V75V75.5105L82.646 75.2621C87.1811 72.7359 92.3041 71.4551 97.4945 71.55ZM3.96243 94.4344L3.45 93.9205V94.6463V105C3.45 108.199 5.6988 111.092 9.15971 113.169C12.6294 115.251 17.3716 116.55 22.5 116.55C27.6284 116.55 32.3706 115.251 35.8403 113.169C39.3012 111.092 41.55 108.199 41.55 105V94.6463V93.9205L41.0376 94.4344C37.1103 98.3728 30.3587 100.95 22.5 100.95C14.6413 100.95 7.88975 98.3728 3.96243 94.4344ZM75.176 91.2517L75.3 91.1619V91.0087V86.2529C75.3336 84.7153 75.6739 83.1999 76.3011 81.7956C76.9288 80.3902 77.8311 79.1245 78.955 78.0728L79.05 77.9839V77.8537V74.0213V73.2955L78.5376 73.8094C74.6103 77.7478 67.8587 80.325 60 80.325C52.1413 80.325 45.3897 77.7478 41.4624 73.8094L40.95 73.2955V74.0213V77.8537V77.9839L41.045 78.0728C42.1689 79.1245 43.0712 80.3902 43.6989 81.7956C44.3261 83.2 44.6665 84.7155 44.7 86.2533V91.0087V91.1619L44.824 91.2517C49.2284 94.4416 54.5643 96.0847 60 95.9251C65.4357 96.0847 70.7716 94.4416 75.176 91.2517ZM78.9624 94.4344L78.45 93.9205V94.6463V105C78.45 108.199 80.6988 111.092 84.1597 113.169C87.6294 115.251 92.3716 116.55 97.5 116.55C102.628 116.55 107.371 115.251 110.84 113.169C114.301 111.092 116.55 108.199 116.55 105V94.6463V93.9205L116.038 94.4344C112.11 98.3728 105.359 100.95 97.5 100.95C89.6413 100.95 82.8897 98.3728 78.9624 94.4344ZM79.05 65.625C79.05 62.426 76.8012 59.5327 73.3403 57.4562C69.8706 55.3744 65.1284 54.075 60 54.075C54.8716 54.075 50.1294 55.3744 46.6597 57.4562C43.1988 59.5327 40.95 62.426 40.95 65.625C40.95 68.824 43.1988 71.7173 46.6597 73.7938C50.1294 75.8756 54.8716 77.175 60 77.175C65.1284 77.175 69.8706 75.8756 73.3403 73.7938C76.8012 71.7173 79.05 68.824 79.05 65.625ZM3.45 86.25C3.45 89.449 5.6988 92.3423 9.15971 94.4188C12.6294 96.5006 17.3716 97.8 22.5 97.8C27.6284 97.8 32.3706 96.5006 35.8403 94.4188C39.3012 92.3423 41.55 89.449 41.55 86.25C41.55 83.051 39.3012 80.1577 35.8403 78.0812C32.3706 75.9994 27.6284 74.7 22.5 74.7C17.3716 74.7 12.6294 75.9994 9.15971 78.0812C5.6988 80.1577 3.45 83.051 3.45 86.25ZM78.45 86.25C78.45 89.449 80.6988 92.3423 84.1597 94.4188C87.6294 96.5006 92.3716 97.8 97.5 97.8C102.628 97.8 107.371 96.5006 110.84 94.4188C114.301 92.3423 116.55 89.449 116.55 86.25C116.55 83.051 114.301 80.1577 110.84 78.0812C107.371 75.9994 102.628 74.7 97.5 74.7C92.3716 74.7 87.6294 75.9994 84.1597 78.0812C80.6988 80.1577 78.45 83.051 78.45 86.25Z" fill="currentColor" stroke="currentColor" stroke-width="0.6"/>
<path d="M14.8114 86.0642L14.6647 86.25L14.8114 86.4358C14.9704 86.6374 15.2648 86.8547 15.6538 87.0654C16.0512 87.2806 16.5735 87.5029 17.215 87.7037C18.4987 88.1055 20.2715 88.425 22.5 88.425C24.7285 88.425 26.5013 88.1055 27.785 87.7037C28.4265 87.5029 28.9488 87.2806 29.3462 87.0654C29.7352 86.8547 30.0296 86.6374 30.1886 86.4358L30.3353 86.25L30.1886 86.0642C30.0296 85.8626 29.7352 85.6453 29.3462 85.4346C28.9488 85.2194 28.4265 84.9971 27.785 84.7963C26.5013 84.3945 24.7285 84.075 22.5 84.075C20.2715 84.075 18.4987 84.3945 17.215 84.7963C16.5735 84.9971 16.0512 85.2194 15.6538 85.4346C15.2648 85.6453 14.9704 85.8626 14.8114 86.0642ZM11.55 86.25C11.55 84.4986 12.8654 83.1693 14.962 82.263C17.048 81.3613 19.8168 80.925 22.5 80.925C25.1832 80.925 27.952 81.3613 30.038 82.263C32.1346 83.1693 33.45 84.4986 33.45 86.25C33.45 88.0014 32.1346 89.3307 30.038 90.237C27.952 91.1387 25.1832 91.575 22.5 91.575C19.8168 91.575 17.048 91.1387 14.962 90.237C12.8654 89.3307 11.55 88.0014 11.55 86.25Z" fill="currentColor" stroke="currentColor" stroke-width="0.6"/>
<path d="M10.3526 29.5258L10.4043 29.8188L11.2387 34.5438L11.2952 34.8636L10.9719 34.8946L5.33213 35.4345C4.91868 35.4745 4.53774 35.6761 4.27225 35.9956C4.00677 36.3151 3.87823 36.7265 3.91463 37.1403L3.91465 37.1405L4.404 42.7427C4.44049 43.1567 4.63908 43.5394 4.95651 43.8076L4.76291 44.0367L4.95651 43.8076C5.27395 44.0757 5.68449 44.2076 6.0987 44.1744L6.099 44.1744L14.8909 43.4787L15.0141 43.469L15.1084 43.5488C19.3655 47.1526 24.8278 49.0135 30.3996 48.7581L30.413 48.7575V48.7578C32.3525 48.7557 34.2881 48.5835 36.1975 48.2431L36.2047 48.2418L36.2047 48.2419C41.9794 47.357 47.3378 44.704 51.5425 40.6481L51.6199 40.5735L51.7271 40.565L118.248 35.3019L118.25 35.3018C118.458 35.2863 118.661 35.2295 118.848 35.1348C119.034 35.04 119.199 34.9092 119.334 34.7499C119.47 34.5905 119.572 34.4059 119.635 34.2067L119.921 34.2973L119.635 34.2067C119.698 34.0075 119.721 33.7978 119.702 33.5897L119.702 33.589L119.048 26.1191C119.048 26.119 119.048 26.119 119.048 26.119C119.029 25.912 118.97 25.7107 118.874 25.5266C118.778 25.3424 118.646 25.1792 118.486 25.0463C118.326 24.9133 118.142 24.8133 117.943 24.752C117.745 24.6907 117.536 24.6693 117.329 24.6889L10.3526 29.5258ZM10.3526 29.5258L10.0592 29.5751M10.3526 29.5258L10.0592 29.5751M10.0592 29.5751L3.1125 30.7413M10.0592 29.5751L3.1125 30.7413M3.1125 30.7413C3.11246 30.7413 3.11241 30.7413 3.11237 30.7413C2.70265 30.8099 2.28244 30.7138 1.94323 30.474C1.60403 30.2342 1.3733 29.8701 1.30128 29.461L3.1125 30.7413ZM55.8763 30.5877L117.329 24.689L1.30125 29.4608L0.330029 23.9222L0.32995 23.9218C0.257689 23.5133 0.34948 23.0929 0.58539 22.7517C0.82121 22.4106 1.182 22.1763 1.58947 22.0996C1.58963 22.0996 1.58979 22.0996 1.58995 22.0995L8.51533 20.8191L8.80772 20.765L8.75626 20.4721L8.52564 19.1596L8.52561 19.1595C7.81761 15.1433 9.53819 11.1158 13.0063 7.8023C16.4742 4.48903 21.6702 1.91286 27.8347 0.82638C33.9993 -0.260108 39.7634 0.383703 44.1555 2.3115C48.548 4.23943 51.5423 7.43615 52.2503 11.4542L52.2504 11.4548L52.4173 12.3923L52.4702 12.6896L52.7672 12.6347L112.216 1.63816C112.216 1.63811 112.216 1.63806 112.217 1.63801C112.42 1.60189 112.629 1.60616 112.831 1.65058C113.033 1.69507 113.224 1.77894 113.394 1.89742C113.563 2.0159 113.708 2.16666 113.819 2.34107C113.931 2.51548 114.007 2.71014 114.043 2.91391L114.043 2.91404L115.355 10.3012C115.392 10.506 115.387 10.7158 115.341 10.9187C115.296 11.1216 115.211 11.3136 115.091 11.4834C114.971 11.6533 114.819 11.7977 114.643 11.9083C114.467 12.019 114.271 12.0937 114.066 12.1282C114.065 12.1282 114.065 12.1282 114.065 12.1282L54.4405 22.1313L54.1421 22.1814L54.1947 22.4793L55.5072 29.9137L55.5073 29.9142C55.5167 29.9671 55.5224 30.0262 55.5283 30.0982C55.529 30.1077 55.5298 30.1175 55.5306 30.1276C55.5355 30.189 55.5411 30.2599 55.5503 30.3287L55.5885 30.6153L55.8763 30.5877ZM35.6582 45.1427L35.6581 45.1422C39.0398 44.571 42.289 43.3881 45.2464 41.6515L45.0709 41.0937L20.7896 43.0137L20.6955 43.5887C25.4123 45.6032 30.628 46.1448 35.6582 45.1427ZM111.281 5.32389L111.229 5.02591L110.931 5.08094L53.3087 15.7384L53.0162 15.7925L53.0678 16.0855L53.5441 18.7855L53.5958 19.0785L53.8892 19.0293L111.68 9.33367L111.979 9.28363L111.926 8.98577L111.281 5.32389ZM116.068 28.2866L116.041 27.9853L115.74 28.0142L7.48341 38.3923L7.1874 38.4207L7.21317 38.7169L7.37817 40.6144L7.40395 40.911L7.70068 40.8875L116.117 32.3169L116.419 32.293L116.392 31.9916L116.068 28.2866ZM50.6062 20.2638L50.4804 19.5502L50.065 20.144C46.8743 24.7053 40.6787 28.4155 32.9356 29.7799C25.1922 31.1443 18.0994 29.7802 13.5476 26.5823L12.953 26.1646L13.0798 26.8801L14.3923 34.2883L14.4406 34.561L14.7163 34.5346L52.1507 30.9439L52.5159 30.9089L52.4103 30.5621C52.4102 30.561 52.41 30.5591 52.4098 30.5564C52.409 30.5459 52.4089 30.5335 52.4089 30.5103V30.4841L52.4044 30.4582L50.6062 20.2638ZM49.1494 11.9954L49.1493 11.9951C48.5936 8.84521 45.8767 6.38669 42.1079 4.94274C38.3296 3.49515 33.4339 3.03887 28.3831 3.92924C23.3322 4.81963 18.8876 6.92481 15.832 9.5789C12.7842 12.2262 11.0718 15.4669 11.6266 18.6149L11.6266 18.615C12.1824 21.7631 14.9004 24.2197 18.6696 25.6619C22.4483 27.1078 27.344 27.5627 32.3929 26.6714C37.4418 25.78 41.885 23.6773 44.9403 21.0258C47.9879 18.381 49.7013 15.1433 49.1494 11.9954ZM9.40683 24.1637L9.35415 23.8658L9.05672 23.921L3.99047 24.8603L3.69817 24.9145L3.7497 25.2073L4.0797 27.0823L4.13129 27.3754L4.42482 27.3262L9.50794 26.473L9.80641 26.423L9.7537 26.1249L9.40683 24.1637Z" fill="currentColor" stroke="currentColor" stroke-width="0.6"/>
<path d="M31.3116 20.5471L31.3114 20.5471C28.6702 21.0131 25.8701 21.061 23.6607 20.5327C21.4401 20.0018 19.9141 18.9194 19.6083 17.1976C19.3026 15.4764 20.3657 13.9383 22.2723 12.6803C24.1692 11.4287 26.8196 10.5162 29.4618 10.0511C32.1043 9.58593 34.9069 9.5335 37.1179 10.0586C39.34 10.5862 40.8664 11.6666 41.1705 13.3945C41.4747 15.1228 40.4096 16.6629 38.5024 17.9207C36.6047 19.1723 33.9538 20.0829 31.3116 20.5471ZM37.9907 14.1517L38.1047 13.9426L37.9268 13.7841C37.7351 13.6134 37.4075 13.4506 36.9878 13.3107C36.5591 13.1678 36.0061 13.0397 35.3395 12.9534C34.0056 12.7807 32.2045 12.7741 30.0101 13.1615C27.8149 13.5489 26.1244 14.1712 24.93 14.7896C24.3331 15.0987 23.8574 15.4082 23.5036 15.6891C23.1571 15.9641 22.9051 16.2293 22.7835 16.4556L22.6718 16.6638L22.848 16.8212C23.0393 16.9922 23.3667 17.1551 23.7861 17.2952C24.2146 17.4383 24.7675 17.5667 25.4341 17.6532C26.7681 17.8264 28.5697 17.8335 30.765 17.4461C32.9603 17.0587 34.6494 16.4359 35.8432 15.8169C36.4397 15.5076 36.9152 15.1979 37.2692 14.9169C37.616 14.6416 37.868 14.3769 37.9907 14.1517Z" fill="currentColor" stroke="currentColor" stroke-width="0.6"/>
</g>
<defs>
<clipPath id="clip0_1_951">
<rect width="120" height="120" fill="white"/>
</clipPath>
</defs>
</svg>
