<svg width="22" height="22" viewBox="0 0 22 22" fill="none" xmlns="http://www.w3.org/2000/svg">
<mask id="mask0_1_7381" style="mask-type:alpha" maskUnits="userSpaceOnUse" x="0" y="0" width="22" height="22">
<rect width="22" height="22" fill="#D9D9D9"/>
</mask>
<g mask="url(#mask0_1_7381)">
<path d="M6.41699 19.25C5.91283 19.25 5.48123 19.0705 5.1222 18.7115C4.76317 18.3524 4.58366 17.9208 4.58366 17.4167V5.5C4.32394 5.5 4.10623 5.41215 3.93053 5.23646C3.75484 5.06076 3.66699 4.84306 3.66699 4.58333C3.66699 4.32361 3.75484 4.1059 3.93053 3.93021C4.10623 3.75451 4.32394 3.66667 4.58366 3.66667H8.25033C8.25033 3.40694 8.33817 3.18924 8.51387 3.01354C8.68956 2.83785 8.90727 2.75 9.16699 2.75H12.8337C13.0934 2.75 13.3111 2.83785 13.4868 3.01354C13.6625 3.18924 13.7503 3.40694 13.7503 3.66667H17.417C17.6767 3.66667 17.8944 3.75451 18.0701 3.93021C18.2458 4.1059 18.3337 4.32361 18.3337 4.58333C18.3337 4.84306 18.2458 5.06076 18.0701 5.23646C17.8944 5.41215 17.6767 5.5 17.417 5.5V17.4167C17.417 17.9208 17.2375 18.3524 16.8785 18.7115C16.5194 19.0705 16.0878 19.25 15.5837 19.25H6.41699ZM15.5837 5.5H6.41699V17.4167H15.5837V5.5ZM9.16699 15.5833C9.42671 15.5833 9.64442 15.4955 9.82012 15.3198C9.99581 15.1441 10.0837 14.9264 10.0837 14.6667V8.25C10.0837 7.99028 9.99581 7.77257 9.82012 7.59688C9.64442 7.42118 9.42671 7.33333 9.16699 7.33333C8.90727 7.33333 8.68956 7.42118 8.51387 7.59688C8.33817 7.77257 8.25033 7.99028 8.25033 8.25V14.6667C8.25033 14.9264 8.33817 15.1441 8.51387 15.3198C8.68956 15.4955 8.90727 15.5833 9.16699 15.5833ZM12.8337 15.5833C13.0934 15.5833 13.3111 15.4955 13.4868 15.3198C13.6625 15.1441 13.7503 14.9264 13.7503 14.6667V8.25C13.7503 7.99028 13.6625 7.77257 13.4868 7.59688C13.3111 7.42118 13.0934 7.33333 12.8337 7.33333C12.5739 7.33333 12.3562 7.42118 12.1805 7.59688C12.0048 7.77257 11.917 7.99028 11.917 8.25V14.6667C11.917 14.9264 12.0048 15.1441 12.1805 15.3198C12.3562 15.4955 12.5739 15.5833 12.8337 15.5833Z" fill="currentColor"/>
</g>
</svg>
