<svg width="1920" height="220" viewBox="0 0 1920 220" fill="none" xmlns="http://www.w3.org/2000/svg">
<path d="M-133.803 218.015C-75.1795 166.273 -25.0469 115.825 44.2096 78.0053C116.342 38.6155 195.125 24.4888 275.626 38.6025C332.893 48.6429 376.688 78.3904 430.236 96.8066C534.465 132.652 653.359 119.988 760.259 111.208C873.549 101.902 1000.67 96.6196 1101.88 39.2026C1125.57 25.7656 1161.37 14.1005 1187.09 8.00042C1221.26 -0.10461 1248.85 2.23595 1284.7 6.4003C1360.35 15.1902 1435.38 31.7442 1509.71 48.0032C1550.08 56.8333 1589.84 64.3303 1630.92 68.8046C1674.08 73.5058 1717.72 79.4437 1761.13 81.2055C1796.22 82.6298 1831.41 80.2129 1864.94 68.8046C1877.71 64.4581 1890.37 59.3397 1901.94 52.4035C1965.36 14.3883 1899.84 45.3811 1954.34 2" stroke="currentColor" stroke-width="2.3" stroke-linecap="round"/>
</svg>
