<svg width="22" height="22" viewBox="0 0 22 22" fill="none" xmlns="http://www.w3.org/2000/svg">
<mask id="mask0_1_795" style="mask-type:alpha" maskUnits="userSpaceOnUse" x="0" y="0" width="22" height="22">
<rect width="22" height="22" fill="#D9D9D9"/>
</mask>
<g mask="url(#mask0_1_795)">
<path d="M4.58333 19.25C4.07917 19.25 3.64757 19.0705 3.28854 18.7115C2.92951 18.3524 2.75 17.9208 2.75 17.4167V4.58333C2.75 4.07917 2.92951 3.64757 3.28854 3.28854C3.64757 2.92951 4.07917 2.75 4.58333 2.75H17.4167C17.9208 2.75 18.3524 2.92951 18.7115 3.28854C19.0705 3.64757 19.25 4.07917 19.25 4.58333V6.875H17.4167V4.58333H4.58333V17.4167H17.4167V15.125H19.25V17.4167C19.25 17.9208 19.0705 18.3524 18.7115 18.7115C18.3524 19.0705 17.9208 19.25 17.4167 19.25H4.58333ZM11.9167 15.5833C11.4125 15.5833 10.9809 15.4038 10.6219 15.0448C10.2628 14.6858 10.0833 14.2542 10.0833 13.75V8.25C10.0833 7.74583 10.2628 7.31424 10.6219 6.95521C10.9809 6.59618 11.4125 6.41667 11.9167 6.41667H18.3333C18.8375 6.41667 19.2691 6.59618 19.6281 6.95521C19.9872 7.31424 20.1667 7.74583 20.1667 8.25V13.75C20.1667 14.2542 19.9872 14.6858 19.6281 15.0448C19.2691 15.4038 18.8375 15.5833 18.3333 15.5833H11.9167ZM18.3333 13.75V8.25H11.9167V13.75H18.3333ZM14.6667 12.375C15.0486 12.375 15.3733 12.2413 15.6406 11.974C15.908 11.7066 16.0417 11.3819 16.0417 11C16.0417 10.6181 15.908 10.2934 15.6406 10.026C15.3733 9.75868 15.0486 9.625 14.6667 9.625C14.2847 9.625 13.9601 9.75868 13.6927 10.026C13.4253 10.2934 13.2917 10.6181 13.2917 11C13.2917 11.3819 13.4253 11.7066 13.6927 11.974C13.9601 12.2413 14.2847 12.375 14.6667 12.375Z" fill="currentColor"/>
</g>
</svg>
